{
.appVersion = "1352";
DisplayStrings = (
GH,
nghi,
oOHB,
Q,
"R/space B",
HK,
"í",
"7",
"ABCDEFGHIJKLMNÑOÖPQRSTUVWXYZ\012abcdefghijklmnñoópqrstuvwxyz\012\012SALIDA\012HUERTO/space COMUNITARIO",
"¿/questiondown.ss01",
K,
"1",
"3",
"/acutecomb á",
"/tildecomb Ñ",
"/acutecomb O/acutecomb ¿",
"/Extintor",
"/Advertencia",
"/Basura",
"/Mascota",
"@",
"&",
"#",
"0123456789\0120123456789\012\012."
);
classes = (
{
automatic = 1;
code = "A B C D E F G H I J K L M N Ntilde O Odieresis P Q R S T U V W X Y Z Aacute Eacute Iacute Oacute Uacute Udieresis";
name = Uppercase;
}
);
copyright = "Copyright © 2021 by Ana Michel, Claudia Rebeca, Estefania Leyva, Karla Mateos y Elena Peralta. All rights reserved.";
customParameters = (
{
name = glyphOrder;
value = (
.notdef,
space,
A,
B,
C,
D,
E,
F,
G,
H,
I,
J,
K,
L,
M,
N,
O,
P,
Q,
R,
S,
T,
U,
V,
W,
X,
Y,
Z,
a,
b,
c,
d,
e,
f,
g,
h,
i,
j,
k,
l,
m,
n,
o,
p,
q,
r,
s,
t,
u,
v,
w,
x,
y,
z,
zero,
one,
two,
three,
four,
five,
six,
seven,
eight,
nine,
zero.001,
five.001,
nine.001,
colon,
uni0308,
acutecomb,
tildecomb,
uni000D,
uni000A
);
},
{
name = openTypeGaspRangeRecords;
value = (
{
rangeGaspBehavior = (
0,
1,
2,
3
);
rangeMaxPPEM = 65535;
}
);
},
{
name = openTypeHeadFlags;
value = (
);
},
{
name = preferredFamilyName;
value = Mutua;
},
{
name = versionString;
value = "Version 1.000";
},
{
name = openTypeOS2Panose;
value = (
0,
0,
0,
0,
0,
0,
0,
0,
0,
0
);
},
{
name = openTypeOS2Selection;
value = (
);
},
{
name = fsType;
value = (
2
);
},
{
name = blueFuzz;
value = 1;
},
{
name = blueScale;
value = 0.04;
},
{
name = blueShift;
value = 7;
},
{
name = postscriptForceBold;
value = 0;
},
{
name = postscriptIsFixedPitch;
value = 0;
}
);
date = "2021-08-16 09:50:10 +0000";
designer = "Ana Michel, Claudia Rebeca, Estefania Leyva, Karla Mateos y Elena Peralta";
disablesNiceNames = 1;
familyName = Mutua;
featurePrefixes = (
{
code = "languagesystem DFLT dflt;\012languagesystem latn dflt;";
name = Languagesystems;
}
);
features = (
{

glyphs = (
{
glyphname = A;
lastChange = "2021-09-29 20:54:34 +0000";
layers = (
{
anchors = (
{
name = bottom;
position = "{375, 0}";
},
{
name = ogonek;
position = "{666, 10}";
},
{
name = top;
position = "{377, 756}";
}
);
layerId = master01;
paths = (
{
closed = 1;
nodes = (
"163 0 LINE",
"373 673 LINE",
"316 630 LINE",
"433 630 LINE",
"373 673 LINE",
"581 0 LINE",
"722 0 LINE",
"480 756 LINE",
"274 756 LINE",
"27 0 LINE"
);
},
{
closed = 1;
nodes = (
"202 191 LINE",
"539 191 LINE",
"539 315 LINE",
"202 315 LINE"
);
}
);
userData = {
com.schriftgestaltung.Glyphs.lastChange = "2021-09-27 06:34:19 +0000";
};
width = 749;
},
{
anchors = (
{
name = bottom;
position = "{375, 0}";
},
{
name = ogonek;
position = "{666, 10}";
},
{
name = top;
position = "{377, 756}";
}
);
background = {
paths = (
{
closed = 1;
nodes = (
"163 0 LINE",
"373 673 LINE",
"316 630 LINE",
"433 630 LINE",
"373 673 LINE",
"581 0 LINE",
"722 0 LINE",
"480 756 LINE",
"274 756 LINE",
"27 0 LINE"
);
},
{
closed = 1;
nodes = (
"596 188 LINE",
"596 313 LINE",
"291 313 LINE",
"286 234 OFFCURVE",
"347 188 OFFCURVE",
"417 188 CURVE SMOOTH"
);
}
);
};
layerId = "D1DD5D9A-50CC-400A-8230-704C313030E6";
paths = (
{
closed = 1;
nodes = (
"163 0 LINE",
"373 673 LINE",
"316 630 LINE",
"433 630 LINE",
"373 673 LINE",
"581 0 LINE",
"722 0 LINE",
"480 756 LINE",
"274 756 LINE",
"27 0 LINE"
);
},
{
closed = 1;
nodes = (
"596 188 LINE",
"596 313 LINE",
"313 313 LINE",
"274 188 LINE"
);
}
);
userData = {
com.schriftgestaltung.Glyphs.lastChange = "2021-09-27 06:34:19 +0000";
};
width = 749;
}
);
leftMetricsKey = V;
rightMetricsKey = V;
unicode = 0041;
},
{
glyphname = B;
lastChange = "2021-09-29 21:11:42 +0000";
layers = (
{
guideLines = (
{
position = "{-253, 0}";
}
);
layerId = master01;
paths = (
{
closed = 1;
nodes = (
"561 410 LINE",
"646 410 OFFCURVE",
"683 467 OFFCURVE",
"683 571 CURVE SMOOTH",
"683 678 OFFCURVE",
"633 756 OFFCURVE",
"494 756 CURVE SMOOTH",
"197 756 LINE",
"197 629 LINE",
"459 629 LINE",
"522 629 OFFCURVE",
"561 606 OFFCURVE",
"561 540 CURVE SMOOTH",
"561 474 OFFCURVE",
"514 451 OFFCURVE",
"463 451 CURVE",
"163 451 LINE",
"163 330 LINE",
"486 330 LINE",
"562 329 OFFCURVE",
"585 287 OFFCURVE",
"585 229 CURVE SMOOTH",
"585 153 OFFCURVE",
"548 128 OFFCURVE",
"484 128 CURVE SMOOTH",
"185 128 LINE",
"186 0 LINE",
"494 0 LINE SMOOTH",
"630 0 OFFCURVE",
"710 48 OFFCURVE",
"710 205 CURVE SMOOTH",
"710 324 OFFCURVE",
"664 388 OFFCURVE",
"561 388 CURVE"
);
},
{
closed = 1;
nodes = (
"241 756 LINE",
"114 756 LINE",
"114 0 LINE",
"241 0 LINE"
);
}
);
userData = {
com.schriftgestaltung.Glyphs.lastChange = "2021-09-27 06:30:33 +0000";
};
width = 792;
},
{
guideLines = (
{
position = "{-253, 0}";
}
);
layerId = "D1DD5D9A-50CC-400A-8230-704C313030E6";
paths = (
{
closed = 1;
nodes = (
"241 756 LINE",
"114 756 LINE",
"114 0 LINE",
"241 0 LINE"
);
},
{
closed = 1;
nodes = (
"291 0 LINE",
"494 0 LINE SMOOTH",
"630 0 OFFCURVE",
"715 48 OFFCURVE",
"715 205 CURVE SMOOTH",
"715 324 OFFCURVE",
"669 388 OFFCURVE",
"561 388 CURVE",
"561 410 LINE",
"653 410 OFFCURVE",
"690 467 OFFCURVE",
"690 571 CURVE SMOOTH",
"690 678 OFFCURVE",
"640 756 OFFCURVE",
"464 756 CURVE SMOOTH",
"291 756 LINE",
"291 631 LINE",
"459 631 LINE",
"522 631 OFFCURVE",
"561 608 OFFCURVE",
"561 540 CURVE SMOOTH",
"561 474 OFFCURVE",
"514 451 OFFCURVE",
"463 451 CURVE",
"163 451 LINE",
"163 330 LINE",
"486 330 LINE",
"562 329 OFFCURVE",
"585 287 OFFCURVE",
"585 229 CURVE SMOOTH",
"585 150 OFFCURVE",
"548 125 OFFCURVE",
"484 125 CURVE SMOOTH",
"291 125 LINE"
);
}
);
userData = {
com.schriftgestaltung.Glyphs.lastChange = "2021-09-27 06:30:33 +0000";
};
width = 792;
},
{
associatedMasterId = "D1DD5D9A-50CC-400A-8230-704C313030E6";
background = {
paths = (
{
closed = 1;
nodes = (
"561 410 LINE",
"646 410 OFFCURVE",
"683 467 OFFCURVE",
"683 571 CURVE SMOOTH",
"683 678 OFFCURVE",
"633 756 OFFCURVE",
"494 756 CURVE SMOOTH",
"197 756 LINE",
"197 629 LINE",
"459 629 LINE",
"522 629 OFFCURVE",
"561 606 OFFCURVE",
"561 540 CURVE SMOOTH",
"561 474 OFFCURVE",
"514 451 OFFCURVE",
"463 451 CURVE",
"163 451 LINE",
"163 330 LINE",
"486 330 LINE",
"562 329 OFFCURVE",
"585 287 OFFCURVE",
"585 229 CURVE SMOOTH",
"585 153 OFFCURVE",
"548 128 OFFCURVE",
"484 128 CURVE SMOOTH",
"185 128 LINE",
"186 0 LINE",
"494 0 LINE SMOOTH",
"630 0 OFFCURVE",
"710 48 OFFCURVE",
"710 205 CURVE SMOOTH",
"710 324 OFFCURVE",
"664 388 OFFCURVE",
"561 388 CURVE"
);
},
{
closed = 1;
nodes = (
"241 756 LINE",
"114 756 LINE",
"114 0 LINE",
"241 0 LINE"
);
}
);
};
guideLines = (
{
position = "{-253, 0}";
}
);
layerId = "78FC96C6-BBD9-47B0-9D6C-16EE75342F76";
name = "Sep 29 21, 22:56";
paths = (
{
closed = 1;
nodes = (
"710 327 OFFCURVE",
"604 335 OFFCURVE",
"568 296 CURVE",
"580 278 OFFCURVE",
"585 249 OFFCURVE",
"585 229 CURVE SMOOTH",
"585 153 OFFCURVE",
"548 128 OFFCURVE",
"484 128 CURVE SMOOTH",
"185 128 LINE",
"186 0 LINE",
"494 0 LINE SMOOTH",
"630 0 OFFCURVE",
"710 48 OFFCURVE",
"710 205 CURVE SMOOTH"
);
},
{
closed = 1;
nodes = (
"241 756 LINE",
"114 756 LINE",
"114 0 LINE",
"241 0 LINE"
);
},
{
closed = 1;
nodes = (
"561 330 LINE",
"561 451 LINE",
"163 451 LINE",
"163 330 LINE"
);
},
{
closed = 1;
nodes = (
"611 468 OFFCURVE",
"683 483 OFFCURVE",
"683 571 CURVE SMOOTH",
"683 678 OFFCURVE",
"633 756 OFFCURVE",
"494 756 CURVE SMOOTH",
"197 756 LINE",
"197 629 LINE",
"459 629 LINE",
"522 629 OFFCURVE",
"561 606 OFFCURVE",
"561 540 CURVE SMOOTH",
"561 518 OFFCURVE",
"556 501 OFFCURVE",
"547 488 CURVE"
);
}
);
userData = {
com.schriftgestaltung.Glyphs.lastChange = "2021-09-27 06:30:33 +0000";
};
width = 792;
}
);
leftMetricsKey = H;
unicode = 0042;
},
{
color = 6;
glyphname = C;
lastChange = "2021-09-29 20:52:59 +0000";
layers = (
{
layerId = master01;
paths = (
{
closed = 1;
nodes = (
"223 253 LINE",
"223 168 OFFCURVE",
"258 131 OFFCURVE",
"346 131 CURVE SMOOTH",
"634 131 LINE",
"634 0 LINE",
"297 0 LINE SMOOTH",
"158 0 OFFCURVE",
"92 82 OFFCURVE",
"92 230 CURVE",
"92 528 LINE",
"92 676 OFFCURVE",
"157 756 OFFCURVE",
"297 756 CURVE SMOOTH",
"634 756 LINE",
"634 625 LINE",
"345 625 LINE SMOOTH",
"259 625 OFFCURVE",
"223 588 OFFCURVE",
"223 503 CURVE SMOOTH"
);
}
);
userData = {
com.schriftgestaltung.Glyphs.lastChange = "2021-09-24 04:58:47 +0000";
};
width = 703;
},
{
layerId = "D1DD5D9A-50CC-400A-8230-704C313030E6";
paths = (
{
closed = 1;
nodes = (
"104 625 LINE",
"129 711 OFFCURVE",
"191 756 OFFCURVE",
"297 756 CURVE SMOOTH",
"634 756 LINE",
"634 625 LINE"
);
},
{
closed = 1;
nodes = (
"223 253 LINE",
"223 168 OFFCURVE",
"258 131 OFFCURVE",
"346 131 CURVE SMOOTH",
"634 131 LINE",
"634 0 LINE",
"297 0 LINE SMOOTH",
"158 0 OFFCURVE",
"92 82 OFFCURVE",
"92 230 CURVE",
"92 528 LINE",
"92 544 OFFCURVE",
"93 561 OFFCURVE",
"95 575 CURVE",
"223 575 LINE"
);
}
);
userData = {
com.schriftgestaltung.Glyphs.lastChange = "2021-09-24 04:58:47 +0000";
};
width = 703;
}
);
leftMetricsKey = O;
unicode = 0043;
},
{
color = 6;
glyphname = D;
lastChange = "2021-09-29 20:54:15 +0000";
layers = (
{
background = {
anchors = (
{
name = bottom;
position = "{412, 0}";
},
{
name = center;
position = "{412, 378}";
},
{
name = ogonek;
position = "{754, 10}";
},
{
name = top;
position = "{412, 756}";
},
{
name = topleft;
position = "{5, 756}";
},
{
name = topright;
position = "{819, 756}";
}
);
paths = (
{
closed = 1;
nodes = (
"725 528 LINE",
"725 675 OFFCURVE",
"661 758 OFFCURVE",
"525 758 CURVE SMOOTH",
"248 758 LINE SMOOTH",
"112 758 OFFCURVE",
"47 675 OFFCURVE",
"47 528 CURVE SMOOTH",
"47 228 LINE SMOOTH",
"47 81 OFFCURVE",
"112 -2 OFFCURVE",
"248 -2 CURVE SMOOTH",
"524 -2 LINE SMOOTH",
"661 -2 OFFCURVE",
"725 81 OFFCURVE",
"725 228 CURVE SMOOTH"
);
},
{
closed = 1;
nodes = (
"296 127 LINE",
"210 127 OFFCURVE",
"175 164 OFFCURVE",
"175 249 CURVE SMOOTH",
"175 507 LINE SMOOTH",
"175 592 OFFCURVE",
"210 629 OFFCURVE",
"296 629 CURVE SMOOTH",
"476 629 LINE SMOOTH",
"562 629 OFFCURVE",
"597 592 OFFCURVE",
"597 507 CURVE SMOOTH",
"597 249 LINE SMOOTH",
"597 164 OFFCURVE",
"562 127 OFFCURVE",
"476 127 CURVE SMOOTH"
);
}
);
};
layerId = master01;
paths = (
{
closed = 1;
nodes = (
"523 3 LINE SMOOTH",
"663 3 OFFCURVE",
"725 76 OFFCURVE",
"725 234 CURVE SMOOTH",
"725 528 LINE SMOOTH",
"725 686 OFFCURVE",
"663 759 OFFCURVE",
"523 759 CURVE SMOOTH",
"114 759 LINE",
"114 3 LINE"
);
},
{
closed = 1;
nodes = (
"560 629 OFFCURVE",
"597 592 OFFCURVE",
"597 520 CURVE SMOOTH",
"597 242 LINE SMOOTH",
"597 164 OFFCURVE",
"560 133 OFFCURVE",
"476 133 CURVE SMOOTH",
"242 133 LINE",
"242 629 LINE",
"476 629 LINE"
);
}
);
userData = {
com.schriftgestaltung.Glyphs.lastChange = "2021-09-24 01:53:12 +0000";
};
width = 817;
},
{
background = {
anchors = (
{
name = bottom;
position = "{412, 0}";
},
{
name = center;
position = "{412, 378}";
},
{
name = ogonek;
position = "{754, 10}";
},
{
name = top;
position = "{412, 756}";
},
{
name = topleft;
position = "{5, 756}";
},
{
name = topright;
position = "{819, 756}";
}
);
paths = (
{
closed = 1;
nodes = (
"725 528 LINE",
"725 675 OFFCURVE",
"661 758 OFFCURVE",
"525 758 CURVE SMOOTH",
"248 758 LINE SMOOTH",
"112 758 OFFCURVE",
"47 675 OFFCURVE",
"47 528 CURVE SMOOTH",
"47 228 LINE SMOOTH",
"47 81 OFFCURVE",
"112 -2 OFFCURVE",
"248 -2 CURVE SMOOTH",
"524 -2 LINE SMOOTH",
"661 -2 OFFCURVE",
"725 81 OFFCURVE",
"725 228 CURVE SMOOTH"
);
},
{
closed = 1;
nodes = (
"296 127 LINE",
"210 127 OFFCURVE",
"175 164 OFFCURVE",
"175 249 CURVE SMOOTH",
"175 507 LINE SMOOTH",
"175 592 OFFCURVE",
"210 629 OFFCURVE",
"296 629 CURVE SMOOTH",
"476 629 LINE SMOOTH",
"562 629 OFFCURVE",
"597 592 OFFCURVE",
"597 507 CURVE SMOOTH",
"597 249 LINE SMOOTH",
"597 164 OFFCURVE",
"562 127 OFFCURVE",
"476 127 CURVE SMOOTH"
);
}
);
};
layerId = "D1DD5D9A-50CC-400A-8230-704C313030E6";
paths = (
{
closed = 1;
nodes = (
"242 0 LINE",
"242 629 LINE",
"476 629 LINE",
"560 629 OFFCURVE",
"597 592 OFFCURVE",
"597 520 CURVE SMOOTH",
"597 234 LINE SMOOTH",
"597 156 OFFCURVE",
"560 125 OFFCURVE",
"476 125 CURVE SMOOTH",
"460 125 LINE",
"460 0 LINE",
"523 0 LINE SMOOTH",
"663 0 OFFCURVE",
"725 73 OFFCURVE",
"725 231 CURVE SMOOTH",
"725 528 LINE SMOOTH",
"725 686 OFFCURVE",
"663 759 OFFCURVE",
"523 759 CURVE SMOOTH",
"114 759 LINE",
"114 0 LINE"
);
},
{
closed = 1;
nodes = (
"292 0 LINE",
"460 0 LINE",
"460 125 LINE",
"292 125 LINE"
);
}
);
userData = {
com.schriftgestaltung.Glyphs.lastChange = "2021-09-24 01:53:12 +0000";
};
width = 817;
}
);
leftMetricsKey = H;
rightMetricsKey = O;
unicode = 0044;
},
{
glyphname = E;
lastChange = "2021-09-29 20:31:02 +0000";
layers = (
{
anchors = (
{
name = bottom;
position = "{364, 0}";
},
{
name = ogonek;
position = "{654, 10}";
},
{
name = top;
position = "{383, 756}";
},
{
name = topleft;
position = "{20, 756}";
}
);
layerId = master01;
paths = (
{
closed = 1;
nodes = (
"244 756 LINE",
"114 756 LINE",
"114 0 LINE",
"244 0 LINE"
);
},
{
closed = 1;
nodes = (
"194 127 LINE",
"194 0 LINE",
"656 0 LINE",
"656 127 LINE"
);
},
{
closed = 1;
nodes = (
"578 322 LINE",
"578 449 LINE",
"198 449 LINE",
"198 322 LINE"
);
},
{
closed = 1;
nodes = (
"656 629 LINE",
"656 756 LINE",
"184 756 LINE",
"184 629 LINE"
);
}
);
userData = {
com.schriftgestaltung.Glyphs.lastChange = "2021-09-27 06:32:11 +0000";
};
width = 727;
},
{
anchors = (
{
name = bottom;
position = "{364, 0}";
},
{
name = ogonek;
position = "{654, 10}";
},
{
name = top;
position = "{383, 756}";
},
{
name = topleft;
position = "{20, 756}";
}
);
layerId = "D1DD5D9A-50CC-400A-8230-704C313030E6";
paths = (
{
closed = 1;
nodes = (
"114 0 LINE",
"244 0 LINE",
"244 579 LINE",
"114 579 LINE"
);
},
{
closed = 1;
nodes = (
"194 127 LINE",
"194 0 LINE",
"656 0 LINE",
"656 127 LINE"
);
},
{
closed = 1;
nodes = (
"578 322 LINE",
"578 449 LINE",
"198 449 LINE",
"198 322 LINE"
);
},
{
closed = 1;
nodes = (
"656 629 LINE",
"656 756 LINE",
"184 756 LINE",
"184 629 LINE"
);
},
{
closed = 1;
nodes = (
"244 756 LINE",
"114 756 LINE",
"114 629 LINE",
"244 629 LINE"
);
}
);
userData = {
com.schriftgestaltung.Glyphs.lastChange = "2021-09-27 06:32:11 +0000";
};
width = 727;
}
);
leftMetricsKey = H;
unicode = 0045;
},
{
glyphname = F;
lastChange = "2021-09-29 20:30:37 +0000";
layers = (
{
layerId = master01;
paths = (
{
closed = 1;
nodes = (
"114 756 LINE",
"114 0 LINE",
"246 0 LINE",
"246 756 LINE"
);
},
{
closed = 1;
nodes = (
"636 756 LINE",
"246 756 LINE",
"246 629 LINE",
"636 629 LINE"
);
},
{
closed = 1;
nodes = (
"246 294 LINE",
"561 294 LINE",
"561 421 LINE",
"246 421 LINE"
);
}
);
userData = {
com.schriftgestaltung.Glyphs.lastChange = "2021-09-24 01:58:49 +0000";
};
width = 702;
},
{
layerId = "D1DD5D9A-50CC-400A-8230-704C313030E6";
paths = (
{
closed = 1;
nodes = (
"114 579 LINE",
"114 0 LINE",
"246 0 LINE",
"246 579 LINE"
);
},
{
closed = 1;
nodes = (
"636 756 LINE",
"114 756 LINE",
"114 629 LINE",
"636 629 LINE"
);
},
{
closed = 1;
nodes = (
"246 294 LINE",
"561 294 LINE",
"561 421 LINE",
"246 421 LINE"
);
}
);
userData = {
com.schriftgestaltung.Glyphs.lastChange = "2021-09-24 01:58:49 +0000";
};
width = 702;
}
);
leftMetricsKey = H;
unicode = 0046;
},
{
color = 6;
glyphname = G;
lastChange = "2021-09-28 22:05:29 +0000";
layers = (
{
guideLines = (
{
position = "{-450, 0}";
}
);
layerId = master01;
paths = (
{
closed = 1;
nodes = (
"589 141 OFFCURVE",
"548 127 OFFCURVE",
"477 127 CURVE",
"344 127 LINE SMOOTH",
"269 127 OFFCURVE",
"228 147 OFFCURVE",
"228 247 CURVE",
"228 507 LINE SMOOTH",
"228 607 OFFCURVE",
"268 629 OFFCURVE",
"343 629 CURVE SMOOTH",
"687 629 LINE",
"687 756 LINE",
"295 756 LINE SMOOTH",
"185 756 OFFCURVE",
"92 663 OFFCURVE",
"92 528 CURVE",
"92 230 LINE",
"92 71 OFFCURVE",
"159 0 OFFCURVE",
"295 0 CURVE SMOOTH",
"423 0 LINE SMOOTH",
"531 0 OFFCURVE",
"586 39 OFFCURVE",
"597 124 CURVE",
"615 124 LINE",
"614 0 LINE",
"719 0 LINE",
"719 429 LINE",
"424 429 LINE",
"424 309 LINE",
"589 309 LINE",
"589 229 LINE"
);
}
);
userData = {
com.schriftgestaltung.Glyphs.lastChange = "2021-09-24 04:51:40 +0000";
};
width = 800;
},
{
background = {
paths = (
{
closed = 1;
nodes = (
"589 141 OFFCURVE",
"548 127 OFFCURVE",
"477 127 CURVE",
"344 127 LINE SMOOTH",
"269 127 OFFCURVE",
"228 147 OFFCURVE",
"228 247 CURVE",
"228 507 LINE SMOOTH",
"228 607 OFFCURVE",
"268 629 OFFCURVE",
"343 629 CURVE SMOOTH",
"687 629 LINE",
"687 756 LINE",
"295 756 LINE SMOOTH",
"185 756 OFFCURVE",
"92 663 OFFCURVE",
"92 528 CURVE",
"92 230 LINE",
"92 71 OFFCURVE",
"159 0 OFFCURVE",
"295 0 CURVE SMOOTH",
"423 0 LINE SMOOTH",
"531 0 OFFCURVE",
"586 39 OFFCURVE",
"597 124 CURVE",
"615 124 LINE",
"614 0 LINE",
"719 0 LINE",
"719 429 LINE",
"424 429 LINE",
"424 309 LINE",
"589 309 LINE",
"589 229 LINE"
);
}
);
};
guideLines = (
{
position = "{-450, 0}";
}
);
layerId = "D1DD5D9A-50CC-400A-8230-704C313030E6";
paths = (
{
closed = 1;
nodes = (
"589 0 LINE",
"719 0 LINE",
"719 429 LINE",
"424 429 LINE",
"424 309 LINE",
"589 309 LINE"
);
},
{
closed = 1;
nodes = (
"516 0 OFFCURVE",
"559 48 OFFCURVE",
"549 127 CURVE",
"344 127 LINE SMOOTH",
"269 127 OFFCURVE",
"228 147 OFFCURVE",
"228 247 CURVE",
"228 507 LINE SMOOTH",
"228 607 OFFCURVE",
"268 629 OFFCURVE",
"343 629 CURVE SMOOTH",
"687 629 LINE",
"687 756 LINE",
"295 756 LINE SMOOTH",
"185 756 OFFCURVE",
"92 663 OFFCURVE",
"92 528 CURVE",
"92 230 LINE",
"92 71 OFFCURVE",
"159 0 OFFCURVE",
"295 0 CURVE SMOOTH",
"443 0 LINE SMOOTH"
);
}
);
userData = {
com.schriftgestaltung.Glyphs.lastChange = "2021-09-24 04:51:40 +0000";
};
width = 800;
}
);
leftMetricsKey = O;
unicode = 0047;
},
{
color = 9;
glyphname = H;
lastChange = "2021-09-29 21:49:20 +0000";
layers = (
{
layerId = master01;
paths = (
{
closed = 1;
nodes = (
"114 756 LINE",
"114 0 LINE",
"242 0 LINE",
"242 756 LINE"
);
},
{
closed = 1;
nodes = (
"597 756 LINE",
"597 0 LINE",
"725 0 LINE",
"725 756 LINE"
);
},
{
closed = 1;
nodes = (
"198 322 LINE",
"636 322 LINE",
"636 448 LINE",
"198 448 LINE"
);
}
);
userData = {
com.schriftgestaltung.Glyphs.lastChange = "2021-09-24 01:54:42 +0000";
};
width = 839;
},
{
background = {
paths = (
{
closed = 1;
nodes = (
"114 756 LINE",
"114 0 LINE",
"241 0 LINE",
"241 756 LINE"
);
},
{
closed = 1;
nodes = (
"598 756 LINE",
"598 0 LINE",
"725 0 LINE",
"725 756 LINE"
);
},
{
closed = 1;
nodes = (
"317 446 OFFCURVE",
"271 400 OFFCURVE",
"281 321 CURVE",
"636 321 LINE",
"636 446 LINE",
"387 446 LINE SMOOTH"
);
}
);
};
layerId = "D1DD5D9A-50CC-400A-8230-704C313030E6";
paths = (
{
closed = 1;
nodes = (
"114 756 LINE",
"114 0 LINE",
"241 0 LINE",
"241 756 LINE"
);
},
{
closed = 1;
nodes = (
"598 756 LINE",
"598 0 LINE",
"725 0 LINE",
"725 756 LINE"
);
},
{
closed = 1;
nodes = (
"291 321 LINE",
"636 321 LINE",
"636 446 LINE",
"291 446 LINE"
);
}
);
userData = {
com.schriftgestaltung.Glyphs.lastChange = "2021-09-24 01:54:42 +0000";
};
width = 839;
}
);
rightMetricsKey = "=|H";
unicode = 0048;
},
{
color = 4;
glyphname = I;
lastChange = "2021-09-29 20:31:29 +0000";
layers = (
{
anchors = (
{
name = bottom;
position = "{337, 0}";
},
{
name = ogonek;
position = "{607, 10}";
},
{
name = top;
position = "{337, 756}";
},
{
name = topleft;
position = "{20, 756}";
}
);
layerId = master01;
paths = (
{
closed = 1;
nodes = (
"85 755 LINE",
"85 630 LINE",
"316 630 LINE",
"272 673 LINE",
"272 82 LINE",
"316 125 LINE",
"85 125 LINE",
"85 0 LINE",
"589 0 LINE",
"589 125 LINE",
"356 125 LINE",
"400 82 LINE",
"400 673 LINE",
"356 630 LINE",
"589 630 LINE",
"589 755 LINE"
);
}
);
userData = {
com.schriftgestaltung.Glyphs.lastChange = "2021-09-27 05:59:53 +0000";
};
width = 674;
},
{
anchors = (
{
name = bottom;
position = "{337, 0}";
},
{
name = ogonek;
position = "{607, 10}";
},
{
name = top;
position = "{337, 756}";
},
{
name = topleft;
position = "{20, 756}";
}
);
layerId = "D1DD5D9A-50CC-400A-8230-704C313030E6";
paths = (
{
closed = 1;
nodes = (
"272 125 LINE",
"85 125 LINE",
"85 0 LINE",
"589 0 LINE",
"589 125 LINE",
"400 125 LINE",
"400 580 LINE",
"272 580 LINE"
);
},
{
closed = 1;
nodes = (
"589 630 LINE",
"589 755 LINE",
"85 755 LINE",
"85 630 LINE"
);
}
);
userData = {
com.schriftgestaltung.Glyphs.lastChange = "2021-09-27 05:59:53 +0000";
};
width = 674;
}
);
unicode = 0049;
},
{
glyphname = J;
lastChange = "2021-09-29 20:31:59 +0000";
layers = (
{
layerId = master01;
paths = (
{
closed = 1;
nodes = (
"474 756 LINE",
"111 756 LINE",
"111 629 LINE",
"389 629 LINE",
"344 680 LINE",
"344 199 LINE SMOOTH",
"344 149 OFFCURVE",
"322 127 OFFCURVE",
"273 127 CURVE SMOOTH",
"53 127 LINE",
"53 0 LINE",
"317 0 LINE SMOOTH",
"426 0 OFFCURVE",
"474 54 OFFCURVE",
"474 176 CURVE SMOOTH"
);
}
);
userData = {
com.schriftgestaltung.Glyphs.lastChange = "2021-09-24 02:03:29 +0000";
};
width = 588;
},
{
layerId = "D1DD5D9A-50CC-400A-8230-704C313030E6";
paths = (
{
closed = 1;
nodes = (
"344 199 LINE SMOOTH",
"344 149 OFFCURVE",
"322 127 OFFCURVE",
"273 127 CURVE SMOOTH",
"53 127 LINE",
"53 0 LINE",
"317 0 LINE SMOOTH",
"426 0 OFFCURVE",
"474 54 OFFCURVE",
"474 176 CURVE SMOOTH",
"474 579 LINE",
"344 579 LINE"
);
},
{
closed = 1;
nodes = (
"474 756 LINE",
"111 756 LINE",
"111 629 LINE",
"474 629 LINE"
);
}
);
userData = {
com.schriftgestaltung.Glyphs.lastChange = "2021-09-24 02:03:29 +0000";
};
width = 588;
}
);
rightMetricsKey = H;
unicode = 004A;
},
{
glyphname = K;
lastChange = "2021-09-29 20:43:03 +0000";
layers = (
{
layerId = master01;
paths = (
{
closed = 1;
nodes = (
"245 0 LINE",
"245 322 LINE",
"362 322 LINE",
"573 -1 LINE",
"739 -1 LINE",
"446 429 LINE",
"444 352 LINE",
"709 756 LINE",
"551 756 LINE",
"360 450 LINE",
"245 450 LINE",
"245 756 LINE",
"114 756 LINE",
"114 0 LINE"
);
}
);
userData = {
com.schriftgestaltung.Glyphs.lastChange = "2021-09-24 04:47:01 +0000";
};
width = 747;
},
{
layerId = "D1DD5D9A-50CC-400A-8230-704C313030E6";
paths = (
{
closed = 1;
nodes = (
"362 322 LINE",
"573 -1 LINE",
"739 -1 LINE",
"446 429 LINE",
"444 352 LINE",
"709 756 LINE",
"551 756 LINE",
"360 450 LINE",
"295 450 LINE",
"295 322 LINE"
);
},
{
closed = 1;
nodes = (
"245 756 LINE",
"114 756 LINE",
"114 0 LINE",
"245 0 LINE"
);
}
);
userData = {
com.schriftgestaltung.Glyphs.lastChange = "2021-09-24 04:47:01 +0000";
};
width = 747;
}
);
leftMetricsKey = H;
unicode = 004B;
},
{
glyphname = L;
lastChange = "2021-09-29 20:32:20 +0000";
layers = (
{
layerId = master01;
paths = (
{
closed = 1;
nodes = (
"587 0 LINE",
"587 127 LINE",
"204 127 LINE",
"248 82 LINE",
"248 756 LINE",
"114 756 LINE",
"114 0 LINE"
);
}
);
userData = {
com.schriftgestaltung.Glyphs.lastChange = "2021-09-24 04:50:51 +0000";
};
width = 609;
},
{
layerId = "D1DD5D9A-50CC-400A-8230-704C313030E6";
paths = (
{
closed = 1;
nodes = (
"114 0 LINE",
"587 0 LINE",
"587 127 LINE",
"114 127 LINE"
);
},
{
closed = 1;
nodes = (
"248 756 LINE",
"114 756 LINE",
"114 177 LINE",
"248 177 LINE"
);
}
);
userData = {
com.schriftgestaltung.Glyphs.lastChange = "2021-09-24 04:50:51 +0000";
};
width = 609;
}
);
leftMetricsKey = H;
unicode = 004C;
},
{
glyphname = M;
lastChange = "2021-09-29 20:32:42 +0000";
layers = (
{
guideLines = (
{
angle = 90;
position = "{911, 263}";
},
{
angle = 90;
position = "{95, 481}";
}
);
layerId = master01;
paths = (
{
closed = 1;
nodes = (
"206 -1 LINE",
"245 675 LINE",
"200 630 LINE",
"299 630 LINE",
"239 674 LINE",
"398 43 LINE",
"600 43 LINE",
"744 674 LINE",
"689 630 LINE",
"787 630 LINE",
"749 675 LINE",
"788 0 LINE",
"913 0 LINE",
"872 756 LINE",
"662 756 LINE",
"504 133 LINE",
"560 177 LINE",
"453 177 LINE",
"510 134 LINE",
"344 756 LINE",
"134 756 LINE",
"92 -1 LINE"
);
}
);
userData = {
com.schriftgestaltung.Glyphs.lastChange = "2021-09-27 06:35:49 +0000";
};
width = 1005;
},
{
background = {
paths = (
{
closed = 1;
nodes = (
"206 -1 LINE",
"245 675 LINE",
"200 630 LINE",
"299 630 LINE",
"239 674 LINE",
"398 43 LINE",
"600 43 LINE",
"744 674 LINE",
"689 630 LINE",
"787 630 LINE",
"749 675 LINE",
"788 0 LINE",
"913 0 LINE",
"872 756 LINE",
"662 756 LINE",
"504 133 LINE",
"560 177 LINE",
"453 177 LINE",
"510 134 LINE",
"344 756 LINE",
"134 756 LINE",
"92 -1 LINE"
);
}
);
};
guideLines = (
{
angle = 90;
position = "{911, 263}";
},
{
angle = 90;
position = "{95, 481}";
}
);
layerId = "D1DD5D9A-50CC-400A-8230-704C313030E6";
paths = (
{
closed = 1;
nodes = (
"788 0 LINE",
"913 0 LINE",
"882 580 LINE",
"755 580 LINE"
);
},
{
closed = 1;
nodes = (
"92 -1 LINE",
"206 -1 LINE",
"239 580 LINE",
"124 580 LINE"
);
},
{
closed = 1;
nodes = (
"127 630 LINE",
"250 630 LINE",
"398 43 LINE",
"600 43 LINE",
"734 630 LINE",
"879 630 LINE",
"872 756 LINE",
"662 756 LINE",
"515 177 LINE",
"499 177 LINE",
"344 756 LINE",
"134 756 LINE"
);
}
);
userData = {
com.schriftgestaltung.Glyphs.lastChange = "2021-09-27 06:35:49 +0000";
};
width = 1005;
},
{
associatedMasterId = "D1DD5D9A-50CC-400A-8230-704C313030E6";
background = {
paths = (
{
closed = 1;
nodes = (
"206 -1 LINE",
"245 675 LINE",
"200 630 LINE",
"299 630 LINE",
"239 674 LINE",
"398 43 LINE",
"600 43 LINE",
"744 674 LINE",
"689 630 LINE",
"787 630 LINE",
"749 675 LINE",
"788 0 LINE",
"913 0 LINE",
"872 756 LINE",
"662 756 LINE",
"504 133 LINE",
"560 177 LINE",
"453 177 LINE",
"510 134 LINE",
"344 756 LINE",
"134 756 LINE",
"92 -1 LINE"
);
}
);
};
guideLines = (
{
angle = 90;
position = "{911, 263}";
},
{
angle = 90;
position = "{95, 481}";
}
);
layerId = "B4485461-5727-4FFF-B40C-14C0F2299234";
name = "Sep 28 21, 23:30";
paths = (
{
closed = 1;
nodes = (
"92 -1 LINE",
"206 -1 LINE",
"233 456 LINE SMOOTH",
"238 545 OFFCURVE",
"204 595 OFFCURVE",
"125 590 CURVE"
);
},
{
closed = 1;
nodes = (
"876 756 LINE",
"662 756 LINE",
"515 177 LINE",
"499 177 LINE",
"344 756 LINE",
"134 756 LINE",
"129 630 LINE",
"250 630 LINE",
"398 43 LINE",
"600 43 LINE",
"734 630 LINE",
"876 630 LINE"
);
},
{
closed = 1;
nodes = (
"801 595 OFFCURVE",
"759 545 OFFCURVE",
"764 456 CURVE SMOOTH",
"788 -1 LINE",
"913 -1 LINE",
"880 590 LINE"
);
}
);
userData = {
com.schriftgestaltung.Glyphs.lastChange = "2021-09-27 06:35:49 +0000";
};
width = 1005;
}
);
unicode = 004D;
},
{
color = 9;
glyphname = N;
lastChange = "2021-09-29 20:34:12 +0000";
layers = (
{
anchors = (
{
name = bottom;
position = "{408, 0}";
},
{
name = top;
position = "{422, 756}";
}
);
layerId = master01;
paths = (
{
closed = 1;
nodes = (
"234 0 LINE",
"236 678 LINE",
"217 674 LINE",
"528 0 LINE",
"729 0 LINE",
"729 756 LINE",
"608 756 LINE",
"608 79 LINE",
"627 83 LINE",
"317 756 LINE",
"114 756 LINE",
"114 0 LINE"
);
}
);
userData = {
com.schriftgestaltung.Glyphs.lastChange = "2021-09-24 01:33:27 +0000";
};
width = 843;
},
{
anchors = (
{
name = bottom;
position = "{412, 0}";
},
{
name = top;
position = "{436, 756}";
}
);
layerId = "D1DD5D9A-50CC-400A-8230-704C313030E6";
paths = (
{
closed = 1;
nodes = (
"114 0 LINE",
"234 0 LINE",
"236 583 LINE",
"114 583 LINE"
);
},
{
closed = 1;
nodes = (
"607 124 LINE",
"327 756 LINE",
"114 756 LINE",
"114 633 LINE",
"246 633 LINE",
"527 0 LINE",
"738 0 LINE",
"738 124 LINE"
);
},
{
closed = 1;
nodes = (
"738 756 LINE",
"617 756 LINE",
"617 174 LINE",
"738 174 LINE"
);
}
);
userData = {
com.schriftgestaltung.Glyphs.lastChange = "2021-09-24 01:33:27 +0000";
};
width = 852;
}
);
leftMetricsKey = H;
rightMetricsKey = H;
unicode = 004E;
},
{
color = 6;
glyphname = O;
lastChange = "2021-09-29 20:34:30 +0000";
layers = (
{
anchors = (
{
name = top;
position = "{427, 756}";
}
);
layerId = master01;
paths = (
{
closed = 1;
nodes = (
"762 528 LINE",
"762 675 OFFCURVE",
"698 758 OFFCURVE",
"562 758 CURVE SMOOTH",
"293 758 LINE SMOOTH",
"157 758 OFFCURVE",
"92 675 OFFCURVE",
"92 528 CURVE SMOOTH",
"92 228 LINE SMOOTH",
"92 81 OFFCURVE",
"157 -2 OFFCURVE",
"293 -2 CURVE SMOOTH",
"561 -2 LINE SMOOTH",
"698 -2 OFFCURVE",
"762 81 OFFCURVE",
"762 228 CURVE SMOOTH"
);
},
{
closed = 1;
nodes = (
"341 127 LINE",
"257 127 OFFCURVE",
"222 164 OFFCURVE",
"222 249 CURVE SMOOTH",
"222 507 LINE SMOOTH",
"222 592 OFFCURVE",
"257 629 OFFCURVE",
"341 629 CURVE SMOOTH",
"513 629 LINE SMOOTH",
"597 629 OFFCURVE",
"632 592 OFFCURVE",
"632 507 CURVE SMOOTH",
"632 249 LINE SMOOTH",
"632 164 OFFCURVE",
"597 127 OFFCURVE",
"513 127 CURVE SMOOTH"
);
}
);
userData = {
com.schriftgestaltung.Glyphs.lastChange = "2021-09-27 05:29:31 +0000";
};
width = 854;
},
{
anchors = (
{
name = top;
position = "{427, 756}";
}
);
background = {
paths = (
{
closed = 1;
nodes = (
"762 528 LINE",
"762 675 OFFCURVE",
"698 758 OFFCURVE",
"562 758 CURVE SMOOTH",
"293 758 LINE SMOOTH",
"157 758 OFFCURVE",
"92 675 OFFCURVE",
"92 528 CURVE SMOOTH",
"92 228 LINE SMOOTH",
"92 81 OFFCURVE",
"157 -2 OFFCURVE",
"293 -2 CURVE SMOOTH",
"561 -2 LINE SMOOTH",
"698 -2 OFFCURVE",
"762 81 OFFCURVE",
"762 228 CURVE SMOOTH"
);
},
{
closed = 1;
nodes = (
"341 127 LINE",
"257 127 OFFCURVE",
"222 164 OFFCURVE",
"222 249 CURVE SMOOTH",
"222 507 LINE SMOOTH",
"222 592 OFFCURVE",
"257 629 OFFCURVE",
"341 629 CURVE SMOOTH",
"513 629 LINE SMOOTH",
"597 629 OFFCURVE",
"632 592 OFFCURVE",
"632 507 CURVE SMOOTH",
"632 249 LINE SMOOTH",
"632 164 OFFCURVE",
"597 127 OFFCURVE",
"513 127 CURVE SMOOTH"
);
}
);
};
layerId = "D1DD5D9A-50CC-400A-8230-704C313030E6";
paths = (
{
closed = 1;
nodes = (
"222 249 LINE SMOOTH",
"222 164 OFFCURVE",
"257 127 OFFCURVE",
"341 127 CURVE",
"513 127 LINE SMOOTH",
"597 127 OFFCURVE",
"632 164 OFFCURVE",
"632 249 CURVE SMOOTH",
"632 507 LINE SMOOTH",
"632 592 OFFCURVE",
"597 629 OFFCURVE",
"513 629 CURVE SMOOTH",
"98 629 LINE",
"93 687 OFFCURVE",
"157 758 OFFCURVE",
"283 758 CURVE",
"562 758 LINE SMOOTH",
"698 758 OFFCURVE",
"762 675 OFFCURVE",
"762 528 CURVE",
"762 228 LINE SMOOTH",
"762 81 OFFCURVE",
"698 -2 OFFCURVE",
"561 -2 CURVE SMOOTH",
"293 -2 LINE SMOOTH",
"157 -2 OFFCURVE",
"92 81 OFFCURVE",
"92 228 CURVE SMOOTH",
"92 579 LINE",
"221 579 LINE"
);
}
);
userData = {
com.schriftgestaltung.Glyphs.lastChange = "2021-09-27 05:29:31 +0000";
};
width = 854;
}
);
rightMetricsKey = "=|O";
unicode = 004F;
},
{
glyphname = P;
lastChange = "2021-09-29 20:34:38 +0000";
layers = (
{
layerId = master01;
paths = (
{
closed = 1;
nodes = (
"242 629 LINE",
"448 629 LINE SMOOTH",
"523 629 OFFCURVE",
"549 594 OFFCURVE",
"549 512 CURVE SMOOTH",
"549 423 OFFCURVE",
"519 381 OFFCURVE",
"448 381 CURVE SMOOTH",
"230 381 LINE",
"230 255 LINE",
"464 255 LINE SMOOTH",
"611 255 OFFCURVE",
"675 312 OFFCURVE",
"675 455 CURVE SMOOTH",
"675 583 LINE SMOOTH",
"675 703 OFFCURVE",
"614 756 OFFCURVE",
"464 756 CURVE SMOOTH",
"114 756 LINE",
"114 0 LINE",
"242 0 LINE"
);
}
);
userData = {
com.schriftgestaltung.Glyphs.lastChange = "2021-09-27 06:28:26 +0000";
};
width = 726;
},
{
background = {
paths = (
{
closed = 1;
nodes = (
"281 257 LINE",
"271 336 OFFCURVE",
"317 382 OFFCURVE",
"387 382 CURVE",
"457 382 LINE SMOOTH",
"512 382 OFFCURVE",
"548 406 OFFCURVE",
"548 484 CURVE",
"548 514 LINE",
"548 596 OFFCURVE",
"522 631 OFFCURVE",
"457 631 CURVE SMOOTH",
"241 631 LINE",
"241 0 LINE",
"114 0 LINE",
"114 756 LINE",
"463 756 LINE SMOOTH",
"613 756 OFFCURVE",
"675 703 OFFCURVE",
"675 583 CURVE SMOOTH",
"675 457 LINE SMOOTH",
"675 314 OFFCURVE",
"609 257 OFFCURVE",
"463 257 CURVE SMOOTH"
);
}
);
};
layerId = "D1DD5D9A-50CC-400A-8230-704C313030E6";
paths = (
{
closed = 1;
nodes = (
"291 257 LINE",
"291 382 LINE",
"457 382 LINE SMOOTH",
"512 382 OFFCURVE",
"548 406 OFFCURVE",
"548 484 CURVE",
"548 514 LINE",
"548 596 OFFCURVE",
"522 631 OFFCURVE",
"457 631 CURVE SMOOTH",
"241 631 LINE",
"241 0 LINE",
"114 0 LINE",
"114 756 LINE",
"463 756 LINE SMOOTH",
"613 756 OFFCURVE",
"675 703 OFFCURVE",
"675 583 CURVE SMOOTH",
"675 457 LINE SMOOTH",
"675 314 OFFCURVE",
"609 257 OFFCURVE",
"463 257 CURVE SMOOTH"
);
}
);
userData = {
com.schriftgestaltung.Glyphs.lastChange = "2021-09-27 06:28:26 +0000";
};
width = 725;
}
);
leftMetricsKey = H;
unicode = 0050;
},
{
color = 6;
glyphname = Q;
lastChange = "2021-09-28 22:15:52 +0000";
layers = (
{
components = (
{
name = O;
}
);
layerId = master01;
paths = (
{
closed = 1;
nodes = (
"420.475 94 LINE",
"568.68 -136.72 LINE",
"715.68 -136.72 LINE",
"568.68 94 LINE"
);
}
);
userData = {
com.schriftgestaltung.Glyphs.lastChange = "2021-09-24 06:04:12 +0000";
};
width = 854;
},
{
components = (
{
name = O;
}
);
layerId = "D1DD5D9A-50CC-400A-8230-704C313030E6";
paths = (
{
closed = 1;
nodes = (
"715.68 -136.72 LINE",
"568.68 -136.72 LINE",
"420.475 94 LINE",
"568.68 94 LINE"
);
}
);
userData = {
com.schriftgestaltung.Glyphs.lastChange = "2021-09-24 06:04:12 +0000";
};
width = 854;
}
);
leftMetricsKey = O;
rightMetricsKey = O;
unicode = 0051;
},
{
glyphname = R;
lastChange = "2021-09-29 20:34:52 +0000";
layers = (
{
layerId = master01;
paths = (
{
closed = 1;
nodes = (
"244 0 LINE",
"244 756 LINE",
"114 756 LINE",
"114 0 LINE"
);
},
{
closed = 1;
nodes = (
"564 320 LINE",
"648 320 OFFCURVE",
"699 378 OFFCURVE",
"699 488 CURVE SMOOTH",
"699 601 LINE SMOOTH",
"699 709 OFFCURVE",
"658 756 OFFCURVE",
"512 756 CURVE SMOOTH",
"199 756 LINE",
"199 629 LINE",
"484 629 LINE",
"559 629 OFFCURVE",
"573 592 OFFCURVE",
"573 541 CURVE SMOOTH",
"573 447 OFFCURVE",
"540 428 OFFCURVE",
"460 428 CURVE",
"232 428 LINE",
"232 301 LINE",
"408 301 LINE",
"573 0 LINE",
"573 0 OFFCURVE",
"728 -1 OFFCURVE",
"728 -1 CURVE",
"548 320 LINE"
);
}
);
userData = {
com.schriftgestaltung.Glyphs.lastChange = "2021-09-24 05:01:30 +0000";
};
width = 795;
},
{
background = {
components = (
{
name = B;
transform = "{1, 0, 0, 1, 12, 0}";
}
);
paths = (
{
closed = 1;
nodes = (
"1244 0 LINE",
"1244 756 LINE",
"1114 756 LINE",
"1114 0 LINE"
);
},
{
closed = 1;
nodes = (
"1531 297 LINE",
"1531 320 LINE",
"1564 320 LINE",
"1648 320 OFFCURVE",
"1703 378 OFFCURVE",
"1703 488 CURVE SMOOTH",
"1703 601 LINE SMOOTH",
"1703 709 OFFCURVE",
"1648 756 OFFCURVE",
"1512 756 CURVE SMOOTH",
"1284 756 LINE",
"1269 676 OFFCURVE",
"1316 631 OFFCURVE",
"1387 631 CURVE",
"1484 631 LINE",
"1559 631 OFFCURVE",
"1573 592 OFFCURVE",
"1573 541 CURVE SMOOTH",
"1573 447 OFFCURVE",
"1540 426 OFFCURVE",
"1460 426 CURVE",
"1232 426 LINE",
"1232 301 LINE",
"1408 301 LINE",
"1573 0 LINE",
"1573 0 OFFCURVE",
"1728 -1 OFFCURVE",
"1728 -1 CURVE",
"1561 297 LINE"
);
}
);
};
layerId = "D1DD5D9A-50CC-400A-8230-704C313030E6";
paths = (
{
closed = 1;
nodes = (
"244 0 LINE",
"244 756 LINE",
"114 756 LINE",
"114 0 LINE"
);
},
{
closed = 1;
nodes = (
"506 342 CURVE",
"506 365 LINE",
"564 365 LINE SMOOTH",
"677 365 OFFCURVE",
"703 467 OFFCURVE",
"703 533 CURVE SMOOTH",
"703 571 LINE SMOOTH",
"703 678 OFFCURVE",
"648 756 OFFCURVE",
"476 756 CURVE SMOOTH",
"294 756 LINE",
"294 631 LINE",
"484 631 LINE SMOOTH",
"559 631 OFFCURVE",
"573 592 OFFCURVE",
"573 541 CURVE SMOOTH",
"573 443 OFFCURVE",
"540 422 OFFCURVE",
"460 422 CURVE SMOOTH",
"232 422 LINE",
"232 301 LINE",
"438 301 LINE",
"603 0 LINE",
"758 -1 LINE",
"613 258 LINE SMOOTH",
"581 316 OFFCURVE",
"557 342 OFFCURVE"
);
}
);
userData = {
com.schriftgestaltung.Glyphs.lastChange = "2021-09-24 05:01:30 +0000";
};
width = 795;
}
);
leftMetricsKey = H;
unicode = 0052;
},
{
glyphname = S;
lastChange = "2021-09-29 20:51:55 +0000";
layers = (
{
guideLines = (
{
position = "{-850, 0}";
},
{
position = "{-923, 0}";
},
{
position = "{-944, 0}";
}
);
layerId = master01;
paths = (
{
closed = 1;
nodes = (
"68 533 LINE SMOOTH",
"68 404 OFFCURVE",
"144 366 OFFCURVE",
"206 355 CURVE SMOOTH",
"418 317 LINE SMOOTH",
"490 304 OFFCURVE",
"502 288 OFFCURVE",
"502 216 CURVE SMOOTH",
"502 142 OFFCURVE",
"486 127 OFFCURVE",
"414 127 CURVE SMOOTH",
"76 127 LINE",
"76 0 LINE",
"443 0 LINE SMOOTH",
"564 0 OFFCURVE",
"641 72 OFFCURVE",
"641 213 CURVE SMOOTH",
"641 264 LINE SMOOTH",
"641 390 OFFCURVE",
"564 428 OFFCURVE",
"501 439 CURVE SMOOTH",
"286 477 LINE SMOOTH",
"216 489 OFFCURVE",
"207 509 OFFCURVE",
"207 560 CURVE SMOOTH",
"207 614 OFFCURVE",
"223 629 OFFCURVE",
"283 629 CURVE SMOOTH",
"599 629 LINE",
"599 756 LINE",
"249 756 LINE SMOOTH",
"144 756 OFFCURVE",
"68 680 OFFCURVE",
"68 583 CURVE SMOOTH"
);
}
);
userData = {
com.schriftgestaltung.Glyphs.lastChange = "2021-09-24 06:08:50 +0000";
};
width = 714;
},
{
guideLines = (
{
position = "{-850, 0}";
},
{
position = "{-923, 0}";
},
{
position = "{-944, 0}";
}
);
layerId = "D1DD5D9A-50CC-400A-8230-704C313030E6";
paths = (
{
closed = 1;
nodes = (
"68 533 LINE SMOOTH",
"68 404 OFFCURVE",
"144 366 OFFCURVE",
"206 355 CURVE SMOOTH",
"418 317 LINE SMOOTH",
"490 304 OFFCURVE",
"502 288 OFFCURVE",
"502 216 CURVE SMOOTH",
"502 142 OFFCURVE",
"486 127 OFFCURVE",
"414 127 CURVE SMOOTH",
"76 127 LINE",
"76 0 LINE",
"443 0 LINE SMOOTH",
"564 0 OFFCURVE",
"641 72 OFFCURVE",
"641 213 CURVE SMOOTH",
"641 260 LINE SMOOTH",
"641 386 OFFCURVE",
"564 424 OFFCURVE",
"501 435 CURVE SMOOTH",
"286 473 LINE SMOOTH",
"216 485 OFFCURVE",
"207 505 OFFCURVE",
"207 560 CURVE SMOOTH",
"207 567 OFFCURVE",
"207 573 OFFCURVE",
"208 579 CURVE",
"68 579 LINE"
);
},
{
closed = 1;
nodes = (
"283 629 LINE",
"599 629 LINE",
"599 756 LINE",
"249 756 LINE SMOOTH",
"161 756 OFFCURVE",
"94 703 OFFCURVE",
"74 629 CURVE"
);
}
);
userData = {
com.schriftgestaltung.Glyphs.lastChange = "2021-09-24 06:08:50 +0000";
};
width = 714;
}
);
unicode = 0053;
},
{
glyphname = T;
lastChange = "2021-09-29 20:51:33 +0000";
layers = (
{
layerId = master01;
paths = (
{
closed = 1;
nodes = (
"260 0 LINE",
"392 0 LINE",
"392 756 LINE",
"260 756 LINE"
);
},
{
closed = 1;
nodes = (
"634 756 LINE",
"391 756 LINE",
"391 628 LINE",
"634 628 LINE"
);
},
{
closed = 1;
nodes = (
"261 756 LINE",
"19 756 LINE",
"19 628 LINE",
"261 628 LINE"
);
}
);
userData = {
com.schriftgestaltung.Glyphs.lastChange = "2021-09-24 05:08:08 +0000";
};
width = 653;
},
{
layerId = "D1DD5D9A-50CC-400A-8230-704C313030E6";
paths = (
{
closed = 1;
nodes = (
"260 0 LINE",
"392 0 LINE",
"392 578 LINE",
"260 578 LINE"
);
},
{
closed = 1;
nodes = (
"634 628 LINE",
"634 756 LINE",
"19 756 LINE",
"19 628 LINE"
);
}
);
userData = {
com.schriftgestaltung.Glyphs.lastChange = "2021-09-24 05:08:08 +0000";
};
width = 653;
}
);
unicode = 0054;
},
{
color = 4;
glyphname = U;
lastChange = "2021-09-29 20:37:34 +0000";
layers = (
{
anchors = (
{
name = bottom;
position = "{388, 0}";
},
{
name = ogonek;
position = "{698, 10}";
},
{
name = top;
position = "{388, 756}";
},
{
name = topright;
position = "{755, 756}";
}
);
layerId = master01;
paths = (
{
closed = 1;
nodes = (
"689 756 LINE",
"559 756 LINE",
"561 246 LINE SMOOTH",
"561 165 OFFCURVE",
"528 127 OFFCURVE",
"444 127 CURVE SMOOTH",
"333 127 LINE SMOOTH",
"248 127 OFFCURVE",
"215 165 OFFCURVE",
"215 246 CURVE SMOOTH",
"215 756 LINE",
"86 756 LINE",
"86 235 LINE SMOOTH",
"86 71 OFFCURVE",
"161 -4 OFFCURVE",
"341 -4 CURVE SMOOTH",
"350 -4 OFFCURVE",
"415 -4 OFFCURVE",
"427 -4 CURVE SMOOTH",
"611 -4 OFFCURVE",
"689 71 OFFCURVE",
"689 235 CURVE SMOOTH"
);
}
);
userData = {
com.schriftgestaltung.Glyphs.lastChange = "2021-09-27 05:59:37 +0000";
};
width = 775;
},
{
anchors = (
{
name = bottom;
position = "{388, 0}";
},
{
name = ogonek;
position = "{698, 10}";
},
{
name = top;
position = "{388, 756}";
},
{
name = topright;
position = "{755, 756}";
}
);
background = {
paths = (
{
closed = 1;
nodes = (
"649 46 OFFCURVE",
"689 117 OFFCURVE",
"689 235 CURVE SMOOTH",
"689 756 LINE",
"559 756 LINE",
"561 246 LINE SMOOTH",
"561 233 OFFCURVE",
"560 221 OFFCURVE",
"558 210 CURVE",
"558 14 LINE"
);
},
{
closed = 1;
nodes = (
"549 154 OFFCURVE",
"514 127 OFFCURVE",
"444 127 CURVE SMOOTH",
"333 127 LINE SMOOTH",
"248 127 OFFCURVE",
"215 165 OFFCURVE",
"215 246 CURVE SMOOTH",
"215 756 LINE",
"86 756 LINE",
"86 235 LINE SMOOTH",
"86 71 OFFCURVE",
"161 -4 OFFCURVE",
"341 -4 CURVE SMOOTH",
"350 -4 OFFCURVE",
"415 -4 OFFCURVE",
"427 -4 CURVE SMOOTH",
"479 -4 OFFCURVE",
"523 2 OFFCURVE",
"558 14 CURVE",
"558 210 LINE"
);
}
);
};
layerId = "D1DD5D9A-50CC-400A-8230-704C313030E6";
paths = (
{
closed = 1;
nodes = (
"216 756 LINE",
"86 756 LINE",
"86 235 LINE SMOOTH",
"86 117 OFFCURVE",
"126 46 OFFCURVE",
"214 14 CURVE"
);
},
{
closed = 1;
nodes = (
"264 3 LINE",
"289 -2 OFFCURVE",
"317 -4 OFFCURVE",
"348 -4 CURVE SMOOTH",
"360 -4 OFFCURVE",
"425 -4 OFFCURVE",
"434 -4 CURVE SMOOTH",
"614 -4 OFFCURVE",
"689 71 OFFCURVE",
"689 235 CURVE SMOOTH",
"689 756 LINE",
"560 756 LINE",
"560 246 LINE SMOOTH",
"560 165 OFFCURVE",
"527 127 OFFCURVE",
"442 127 CURVE SMOOTH",
"331 127 LINE SMOOTH",
"303 127 OFFCURVE",
"281 131 OFFCURVE",
"264 140 CURVE"
);
}
);
userData = {
com.schriftgestaltung.Glyphs.lastChange = "2021-09-27 05:59:37 +0000";
};
width = 775;
}
);
unicode = 0055;
},
{
color = 4;
glyphname = V;
lastChange = "2021-09-29 20:43:41 +0000";
layers = (
{
layerId = master01;
paths = (
{
closed = 1;
nodes = (
"269 0 LINE",
"480 0 LINE",
"722 756 LINE",
"584 756 LINE",
"378 83 LINE",
"428 119 LINE",
"316 119 LINE",
"380 83 LINE",
"170 756 LINE",
"27 756 LINE"
);
}
);
userData = {
com.schriftgestaltung.Glyphs.lastChange = "2021-09-27 06:34:58 +0000";
};
width = 749;
},
{
background = {
paths = (
{
closed = 1;
nodes = (
"269 0 LINE",
"480 0 LINE",
"722 756 LINE",
"584 756 LINE",
"378 83 LINE",
"428 119 LINE",
"316 119 LINE",
"380 83 LINE",
"170 756 LINE",
"27 756 LINE"
);
}
);
};
layerId = "D1DD5D9A-50CC-400A-8230-704C313030E6";
paths = (
{
closed = 1;
nodes = (
"369 119 LINE",
"170 756 LINE",
"27 756 LINE",
"269 0 LINE",
"480 0 LINE",
"518 119 LINE"
);
},
{
closed = 1;
nodes = (
"722 756 LINE",
"584 756 LINE",
"402 169 LINE",
"532 169 LINE"
);
}
);
userData = {
com.schriftgestaltung.Glyphs.lastChange = "2021-09-27 06:34:58 +0000";
};
width = 749;
}
);
unicode = 0056;
},
{
glyphname = W;
lastChange = "2021-09-29 20:44:35 +0000";
layers = (
{
guideLines = (
{
position = "{26, 546}";
},
{
position = "{26, 144}";
},
{
angle = 90;
position = "{974, 595}";
},
{
angle = 90;
position = "{49, 733}";
}
);
layerId = master01;
paths = (
{
closed = 1;
nodes = (
"862 757 LINE",
"758 81 LINE",
"795 126 LINE",
"696 126 LINE",
"757 82 LINE",
"614 733 LINE",
"423 733 LINE",
"284 82 LINE",
"341 126 LINE",
"240 126 LINE",
"279 81 LINE",
"175 756 LINE",
"46 756 LINE",
"160 0 LINE",
"378 0 LINE",
"513 643 LINE",
"457 599 LINE",
"564 599 LINE",
"504 642 LINE",
"645 0 LINE",
"863 0 LINE",
"979 757 LINE"
);
}
);
userData = {
com.schriftgestaltung.Glyphs.lastChange = "2021-09-27 06:35:43 +0000";
};
width = 1025;
},
{
background = {
paths = (
{
closed = 1;
nodes = (
"862 757 LINE",
"758 81 LINE",
"795 126 LINE",
"696 126 LINE",
"757 82 LINE",
"614 733 LINE",
"423 733 LINE",
"284 82 LINE",
"341 126 LINE",
"240 126 LINE",
"279 81 LINE",
"175 756 LINE",
"46 756 LINE",
"160 0 LINE",
"378 0 LINE",
"513 643 LINE",
"457 599 LINE",
"564 599 LINE",
"504 642 LINE",
"645 0 LINE",
"863 0 LINE",
"979 757 LINE"
);
}
);
};
guideLines = (
{
position = "{26, 546}";
},
{
position = "{26, 144}";
},
{
angle = 90;
position = "{974, 595}";
},
{
angle = 90;
position = "{49, 733}";
}
);
layerId = "D1DD5D9A-50CC-400A-8230-704C313030E6";
paths = (
{
closed = 1;
nodes = (
"293 126 LINE",
"272 126 LINE",
"175 756 LINE",
"46 756 LINE",
"160 0 LINE",
"378 0 LINE",
"494 549 LINE",
"384 549 LINE"
);
},
{
closed = 1;
nodes = (
"747 126 LINE",
"614 733 LINE",
"423 733 LINE",
"394 599 LINE",
"513 599 LINE",
"645 0 LINE",
"863 0 LINE",
"883 126 LINE"
);
},
{
closed = 1;
nodes = (
"979 757 LINE",
"862 757 LINE",
"773 176 LINE",
"890 176 LINE"
);
}
);
userData = {
com.schriftgestaltung.Glyphs.lastChange = "2021-09-27 06:35:43 +0000";
};
width = 1025;
}
);
unicode = 0057;
},
{
glyphname = X;
lastChange = "2021-09-29 20:51:02 +0000";
layers = (
{
guideLines = (
{
position = "{-1212, 0}";
},
{
position = "{-1273, 0}";
}
);
layerId = master01;
paths = (
{
closed = 1;
nodes = (
"161 0 LINE",
"330 306 LINE",
"364 306 LINE",
"523 0 LINE",
"680 0 LINE",
"450 426 LINE",
"455 329 LINE",
"678 756 LINE",
"532 756 LINE",
"363 434 LINE",
"332 434 LINE",
"174 756 LINE",
"18 756 LINE",
"230 329 LINE",
"244 426 LINE",
"14 0 LINE"
);
}
);
userData = {
com.schriftgestaltung.Glyphs.lastChange = "2021-09-24 05:35:51 +0000";
};
width = 694;
},
{
background = {
paths = (
{
closed = 1;
nodes = (
"161 0 LINE",
"330 306 LINE",
"364 306 LINE",
"523 0 LINE",
"680 0 LINE",
"450 426 LINE",
"455 329 LINE",
"678 756 LINE",
"532 756 LINE",
"363 434 LINE",
"332 434 LINE",
"174 756 LINE",
"18 756 LINE",
"230 329 LINE",
"244 426 LINE",
"14 0 LINE"
);
}
);
};
guideLines = (
{
position = "{-1212, 0}";
},
{
position = "{-1273, 0}";
}
);
layerId = "D1DD5D9A-50CC-400A-8230-704C313030E6";
paths = (
{
closed = 1;
nodes = (
"373 306 LINE",
"523 0 LINE",
"680 0 LINE",
"459 426 LINE",
"464 329 LINE",
"678 756 LINE",
"532 756 LINE",
"372 434 LINE"
);
},
{
closed = 1;
nodes = (
"323 434 LINE",
"174 756 LINE",
"18 756 LINE",
"221 329 LINE",
"235 426 LINE",
"14 0 LINE",
"161 0 LINE",
"321 306 LINE"
);
}
);
userData = {
com.schriftgestaltung.Glyphs.lastChange = "2021-09-24 05:35:51 +0000";
};
width = 694;
},
{
associatedMasterId = "D1DD5D9A-50CC-400A-8230-704C313030E6";
background = {
paths = (
{
closed = 1;
nodes = (
"161 0 LINE",
"330 306 LINE",
"364 306 LINE",
"523 0 LINE",
"680 0 LINE",
"478 374 LINE",
"678 756 LINE",
"532 756 LINE",
"363 434 LINE",
"332 434 LINE",
"174 756 LINE",
"18 756 LINE",
"212 366 LINE",
"14 0 LINE"
);
}
);
};
guideLines = (
{
position = "{-1212, 0}";
},
{
position = "{-1273, 0}";
}
);
layerId = "F783BB7F-B5F3-4EE5-B108-64AC8E2433B3";
name = "Sep 28 21, 23:30";
paths = (
{
closed = 1;
nodes = (
"478 374 LINE",
"678 756 LINE",
"532 756 LINE",
"363 434 LINE",
"183 434 LINE",
"212 366 LINE",
"14 0 LINE",
"161 0 LINE",
"330 306 LINE",
"514 306 LINE"
);
},
{
closed = 1;
nodes = (
"174 756 LINE",
"18 756 LINE",
"133 527 LINE SMOOTH",
"169 455 OFFCURVE",
"245 456 OFFCURVE",
"311 476 CURVE"
);
},
{
closed = 1;
nodes = (
"522 0 LINE",
"680 0 LINE",
"569 204 LINE SMOOTH",
"530 276 OFFCURVE",
"453 288 OFFCURVE",
"387 263 CURVE"
);
}
);
userData = {
com.schriftgestaltung.Glyphs.lastChange = "2021-09-24 05:35:51 +0000";
};
width = 694;
}
);
unicode = 0058;
},
{
glyphname = Y;
lastChange = "2021-09-29 20:45:26 +0000";
layers = (
{
guideLines = (
{
position = "{0, 273}";
}
);
layerId = master01;
paths = (
{
closed = 1;
nodes = (
"263 232 LINE",
"252 317 LINE",
"252 0 LINE",
"382 0 LINE",
"382 317 LINE",
"361 211 LINE",
"642 756 LINE",
"496 756 LINE",
"305 354 LINE",
"379 405 LINE",
"262 405 LINE",
"336 354 LINE",
"138 756 LINE",
"-18 756 LINE"
);
}
);
userData = {
com.schriftgestaltung.Glyphs.lastChange = "2021-09-14 06:12:07 +0000";
};
width = 633;
},
{
background = {
paths = (
{
closed = 1;
nodes = (
"263 232 LINE",
"252 317 LINE",
"252 0 LINE",
"382 0 LINE",
"382 317 LINE",
"361 211 LINE",
"642 756 LINE",
"496 756 LINE",
"305 354 LINE",
"379 405 LINE",
"262 405 LINE",
"336 354 LINE",
"138 756 LINE",
"-18 756 LINE"
);
}
);
};
guideLines = (
{
position = "{0, 273}";
}
);
layerId = "D1DD5D9A-50CC-400A-8230-704C313030E6";
paths = (
{
closed = 1;
nodes = (
"252 0 LINE",
"382 0 LINE",
"382 203 LINE",
"252 203 LINE"
);
},
{
closed = 1;
nodes = (
"387 253 LINE",
"642 756 LINE",
"496 756 LINE",
"334 405 LINE",
"307 405 LINE",
"138 756 LINE",
"-18 756 LINE",
"248 253 LINE"
);
}
);
userData = {
com.schriftgestaltung.Glyphs.lastChange = "2021-09-14 06:12:07 +0000";
};
width = 633;
}
);
unicode = 0059;
},
{
glyphname = Z;
lastChange = "2021-09-29 20:46:01 +0000";
layers = (
{
layerId = master01;
paths = (
{
closed = 1;
nodes = (
"625 130 LINE",
"213 130 LINE",
"213 158 LINE",
"625 556 LINE",
"625 754 LINE",
"103 754 LINE",
"103 624 LINE",
"490 624 LINE",
"490 593 LINE",
"77 203 LINE",
"77 0 LINE",
"625 0 LINE"
);
}
);
userData = {
com.schriftgestaltung.Glyphs.lastChange = "2021-09-24 05:46:05 +0000";
};
width = 697;
},
{
background = {
paths = (
{
closed = 1;
nodes = (
"625 130 LINE",
"213 130 LINE",
"213 158 LINE",
"625 556 LINE",
"625 754 LINE",
"103 754 LINE",
"103 624 LINE",
"490 624 LINE",
"490 593 LINE",
"77 203 LINE",
"77 0 LINE",
"625 0 LINE"
);
}
);
};
layerId = "D1DD5D9A-50CC-400A-8230-704C313030E6";
paths = (
{
closed = 1;
nodes = (
"77 203 LINE",
"77 0 LINE",
"625 0 LINE",
"625 130 LINE",
"213 130 LINE",
"213 158 LINE",
"625 556 LINE",
"625 573 LINE",
"469 573 LINE"
);
},
{
closed = 1;
nodes = (
"625 754 LINE",
"103 754 LINE",
"103 624 LINE",
"625 623 LINE"
);
}
);
userData = {
com.schriftgestaltung.Glyphs.lastChange = "2021-09-24 05:46:05 +0000";
};
width = 697;
}
);
unicode = 005A;
},
{
glyphname = a;
lastChange = "2021-09-28 22:03:16 +0000";
layers = (
{
anchors = (
{
name = bottom;
position = "{322, 0}";
},
{
name = ogonek;
position = "{580, 10}";
},
{
name = top;
position = "{342, 556}";
}
);
layerId = master01;
paths = (
{
closed = 1;
nodes = (
"442 284 LINE",
"564 284 LINE",
"564 396 LINE SMOOTH",
"564 500 OFFCURVE",
"508 563 OFFCURVE",
"404 563 CURVE SMOOTH",
"104 563 LINE",
"104 441 LINE",
"382 441 LINE SMOOTH",
"421 441 OFFCURVE",
"442 420 OFFCURVE",
"442 379 CURVE SMOOTH"
);
},
{
closed = 1;
nodes = (
"564 0 LINE",
"564 284 LINE",
"442 284 LINE",
"443 195 LINE",
"459 125 LINE",
"460 0 LINE"
);
},
{
closed = 1;
nodes = (
"202 336 LINE SMOOTH",
"118 336 OFFCURVE",
"72 290 OFFCURVE",
"72 206 CURVE SMOOTH",
"72 156 LINE SMOOTH",
"72 52 OFFCURVE",
"128 -4 OFFCURVE",
"232 -4 CURVE SMOOTH",
"287 -4 LINE SMOOTH",
"375 -4 OFFCURVE",
"424 44 OFFCURVE",
"442 113 CURVE",
"525 113 LINE",
"443 212 LINE",
"443 122 OFFCURVE",
"394 113 OFFCURVE",
"349 113 CURVE SMOOTH",
"247 113 LINE SMOOTH",
"208 113 OFFCURVE",
"187 134 OFFCURVE",
"187 171 CURVE SMOOTH",
"187 208 OFFCURVE",
"208 229 OFFCURVE",
"247 229 CURVE SMOOTH",
"465 229 LINE",
"465 336 LINE"
);
}
);
userData = {
com.schriftgestaltung.Glyphs.lastChange = "2021-09-27 05:55:15 +0000";
};
width = 644;
},
{
anchors = (
{
name = bottom;
position = "{322, 0}";
},
{
name = ogonek;
position = "{580, 10}";
},
{
name = top;
position = "{342, 556}";
}
);
background = {
paths = (
{
closed = 1;
nodes = (
"1142 284 LINE",
"1264 284 LINE",
"1264 396 LINE SMOOTH",
"1264 500 OFFCURVE",
"1208 563 OFFCURVE",
"1104 563 CURVE SMOOTH",
"804 563 LINE",
"804 441 LINE",
"1082 441 LINE SMOOTH",
"1121 441 OFFCURVE",
"1142 420 OFFCURVE",
"1142 379 CURVE SMOOTH"
);
},
{
closed = 1;
nodes = (
"1264 0 LINE",
"1264 284 LINE",
"1142 284 LINE",
"1143 195 LINE",
"1159 125 LINE",
"1160 0 LINE"
);
},
{
closed = 1;
nodes = (
"902 336 LINE SMOOTH",
"818 336 OFFCURVE",
"772 290 OFFCURVE",
"772 206 CURVE SMOOTH",
"772 156 LINE SMOOTH",
"772 52 OFFCURVE",
"828 -4 OFFCURVE",
"932 -4 CURVE SMOOTH",
"987 -4 LINE SMOOTH",
"1075 -4 OFFCURVE",
"1124 44 OFFCURVE",
"1142 113 CURVE",
"1225 113 LINE",
"1143 212 LINE",
"1143 122 OFFCURVE",
"1094 113 OFFCURVE",
"1049 113 CURVE SMOOTH",
"947 113 LINE SMOOTH",
"908 113 OFFCURVE",
"887 134 OFFCURVE",
"887 171 CURVE SMOOTH",
"887 208 OFFCURVE",
"908 229 OFFCURVE",
"947 229 CURVE SMOOTH",
"1165 229 LINE",
"1165 336 LINE"
);
},
{
closed = 0;
nodes = (
"72 126 LINE SMOOTH",
"72 42 OFFCURVE",
"118 -4 OFFCURVE",
"202 -4 CURVE SMOOTH"
);
}
);
};
layerId = "D1DD5D9A-50CC-400A-8230-704C313030E6";
paths = (
{
closed = 1;
nodes = (
"439 284 LINE",
"562 284 LINE",
"562 396 LINE SMOOTH",
"562 500 OFFCURVE",
"506 563 OFFCURVE",
"402 563 CURVE SMOOTH",
"104 563 LINE",
"104 443 LINE",
"379 443 LINE SMOOTH",
"418 443 OFFCURVE",
"439 422 OFFCURVE",
"439 381 CURVE SMOOTH"
);
},
{
closed = 1;
nodes = (
"562 0 LINE",
"562 284 LINE",
"439 284 LINE",
"439 0 LINE"
);
},
{
closed = 1;
nodes = (
"193 208 OFFCURVE",
"204 229 OFFCURVE",
"253 229 CURVE SMOOTH",
"465 229 LINE",
"465 336 LINE",
"200 336 LINE SMOOTH",
"116 336 OFFCURVE",
"70 290 OFFCURVE",
"70 206 CURVE SMOOTH",
"70 126 LINE SMOOTH",
"70 42 OFFCURVE",
"116 -4 OFFCURVE",
"202 -4 CURVE SMOOTH",
"257 -4 LINE SMOOTH",
"346 -4 OFFCURVE",
"402 44 OFFCURVE",
"402 113 CURVE",
"253 113 LINE SMOOTH",
"204 113 OFFCURVE",
"193 134 OFFCURVE",
"193 166 CURVE SMOOTH",
"193 176 LINE"
);
}
);
userData = {
com.schriftgestaltung.Glyphs.lastChange = "2021-09-27 05:55:15 +0000";
};
width = 644;
},
{
anchors = (
{
name = bottom;
position = "{322, 0}";
},
{
name = ogonek;
position = "{580, 10}";
},
{
name = top;
position = "{342, 556}";
}
);
associatedMasterId = "D1DD5D9A-50CC-400A-8230-704C313030E6";
background = {
paths = (
{
closed = 1;
nodes = (
"442 284 LINE",
"564 284 LINE",
"564 396 LINE SMOOTH",
"564 500 OFFCURVE",
"508 563 OFFCURVE",
"404 563 CURVE SMOOTH",
"104 563 LINE",
"104 441 LINE",
"382 441 LINE SMOOTH",
"421 441 OFFCURVE",
"442 420 OFFCURVE",
"442 379 CURVE SMOOTH"
);
},
{
closed = 1;
nodes = (
"564 0 LINE",
"564 284 LINE",
"442 284 LINE",
"443 195 LINE",
"459 125 LINE",
"460 0 LINE"
);
},
{
closed = 1;
nodes = (
"202 336 LINE SMOOTH",
"118 336 OFFCURVE",
"72 290 OFFCURVE",
"72 206 CURVE SMOOTH",
"72 156 LINE SMOOTH",
"72 52 OFFCURVE",
"128 -4 OFFCURVE",
"232 -4 CURVE SMOOTH",
"287 -4 LINE SMOOTH",
"375 -4 OFFCURVE",
"424 44 OFFCURVE",
"442 113 CURVE",
"525 113 LINE",
"443 212 LINE",
"443 122 OFFCURVE",
"394 113 OFFCURVE",
"349 113 CURVE SMOOTH",
"247 113 LINE SMOOTH",
"208 113 OFFCURVE",
"187 134 OFFCURVE",
"187 171 CURVE SMOOTH",
"187 208 OFFCURVE",
"208 229 OFFCURVE",
"247 229 CURVE SMOOTH",
"465 229 LINE",
"465 336 LINE"
);
}
);
};
layerId = "AADAED89-8AED-4216-810F-28454B4E99D0";
name = "Sep 28 21, 19:35";
paths = (
{
closed = 1;
nodes = (
"442 284 LINE",
"564 284 LINE",
"564 396 LINE SMOOTH",
"564 500 OFFCURVE",
"508 563 OFFCURVE",
"404 563 CURVE SMOOTH",
"104 563 LINE",
"104 441 LINE",
"382 441 LINE SMOOTH",
"421 441 OFFCURVE",
"442 420 OFFCURVE",
"442 379 CURVE SMOOTH"
);
},
{
closed = 1;
nodes = (
"564 0 LINE",
"564 284 LINE",
"442 284 LINE",
"443 195 LINE",
"443 0 LINE"
);
},
{
closed = 1;
nodes = (
"202 336 LINE SMOOTH",
"118 336 OFFCURVE",
"72 290 OFFCURVE",
"72 206 CURVE SMOOTH",
"72 156 LINE SMOOTH",
"72 52 OFFCURVE",
"128 -4 OFFCURVE",
"232 -4 CURVE SMOOTH",
"247 -4 LINE SMOOTH",
"335 -4 OFFCURVE",
"384 44 OFFCURVE",
"402 113 CURVE",
"247 113 LINE SMOOTH",
"208 113 OFFCURVE",
"187 134 OFFCURVE",
"187 171 CURVE SMOOTH",
"187 208 OFFCURVE",
"208 229 OFFCURVE",
"247 229 CURVE SMOOTH",
"465 229 LINE",
"465 336 LINE"
);
}
);
userData = {
com.schriftgestaltung.Glyphs.lastChange = "2021-09-27 05:55:15 +0000";
};
width = 644;
}
);
rightMetricsKey = n;
unicode = 0061;
},
{
color = 4;
glyphname = b;
lastChange = "2021-09-28 22:03:16 +0000";
layers = (
{
guideLines = (
{
position = "{-469, 0}";
}
);
layerId = master01;
paths = (
{
closed = 1;
nodes = (
"180 117 LINE",
"180 1 LINE",
"410 0 LINE SMOOTH",
"568 -1 OFFCURVE",
"604 79 OFFCURVE",
"604 245 CURVE SMOOTH",
"604 371 LINE SMOOTH",
"604 516 OFFCURVE",
"555 560 OFFCURVE",
"444 560 CURVE SMOOTH",
"383 560 LINE SMOOTH",
"303 560 OFFCURVE",
"242 521 OFFCURVE",
"228 429 CURVE",
"178 429 LINE",
"224 340 LINE",
"224 396 OFFCURVE",
"261 437 OFFCURVE",
"315 437 CURVE SMOOTH",
"403 437 LINE SMOOTH",
"468 437 OFFCURVE",
"484 413 OFFCURVE",
"484 354 CURVE SMOOTH",
"484 193 LINE SMOOTH",
"484 134 OFFCURVE",
"464 117 OFFCURVE",
"402 117 CURVE SMOOTH"
);
},
{
closed = 1;
nodes = (
"97 1 LINE",
"224 1 LINE",
"224 355 LINE",
"211 433 LINE",
"211 778 LINE",
"97 778 LINE"
);
}
);
userData = {
com.schriftgestaltung.Glyphs.lastChange = "2021-09-23 22:25:15 +0000";
};
width = 679;
},
{
guideLines = (
{
position = "{-473, 0}";
}
);
layerId = "D1DD5D9A-50CC-400A-8230-704C313030E6";
paths = (
{
closed = 1;
nodes = (
"97 1 LINE",
"220 1 LINE",
"220 778 LINE",
"97 778 LINE"
);
},
{
closed = 1;
nodes = (
"399 440 LINE SMOOTH",
"464 440 OFFCURVE",
"480 416 OFFCURVE",
"480 357 CURVE SMOOTH",
"480 196 LINE SMOOTH",
"480 137 OFFCURVE",
"460 120 OFFCURVE",
"398 120 CURVE SMOOTH",
"176 120 LINE",
"176 1 LINE",
"412 0 LINE SMOOTH",
"570 -1 OFFCURVE",
"606 79 OFFCURVE",
"606 245 CURVE SMOOTH",
"606 371 LINE SMOOTH",
"606 516 OFFCURVE",
"556 560 OFFCURVE",
"446 560 CURVE SMOOTH",
"370 560 LINE",
"319 560 OFFCURVE",
"260 505 OFFCURVE",
"260 440 CURVE",
"390 440 LINE"
);
}
);
userData = {
com.schriftgestaltung.Glyphs.lastChange = "2021-09-23 22:25:15 +0000";
};
width = 681;
}
);
leftMetricsKey = l;
unicode = 0062;
},
{
color = 6;
glyphname = c;
lastChange = "2021-09-29 20:53:47 +0000";
layers = (
{
layerId = master01;
paths = (
{
closed = 1;
nodes = (
"528 119 LINE",
"528 -3 LINE",
"271 -3 LINE SMOOTH",
"144 -3 OFFCURVE",
"68 86 OFFCURVE",
"68 226 CURVE SMOOTH",
"68 333 LINE SMOOTH",
"68 475 OFFCURVE",
"158 559 OFFCURVE",
"300 559 CURVE SMOOTH",
"529 559 LINE",
"529 435 LINE",
"304 435 LINE SMOOTH",
"230 435 OFFCURVE",
"197 405 OFFCURVE",
"197 340 CURVE SMOOTH",
"197 221 LINE SMOOTH",
"197 149 OFFCURVE",
"230 119 OFFCURVE",
"304 119 CURVE SMOOTH"
);
}
);
userData = {
com.schriftgestaltung.Glyphs.lastChange = "2021-09-23 21:41:30 +0000";
};
width = 587;
},
{
layerId = "D1DD5D9A-50CC-400A-8230-704C313030E6";
paths = (
{
closed = 1;
nodes = (
"89 439 LINE",
"123 516 OFFCURVE",
"198 559 OFFCURVE",
"300 559 CURVE SMOOTH",
"529 559 LINE",
"529 439 LINE"
);
},
{
closed = 1;
nodes = (
"197 217 LINE",
"197 145 OFFCURVE",
"230 115 OFFCURVE",
"304 115 CURVE SMOOTH",
"528 115 LINE",
"528 -3 LINE",
"271 -3 LINE SMOOTH",
"144 -3 OFFCURVE",
"68 86 OFFCURVE",
"68 226 CURVE SMOOTH",
"68 333 LINE SMOOTH",
"68 353 OFFCURVE",
"70 372 OFFCURVE",
"73 389 CURVE",
"197 389 LINE"
);
}
);
userData = {
com.schriftgestaltung.Glyphs.lastChange = "2021-09-23 21:41:30 +0000";
};
width = 587;
}
);
leftMetricsKey = o;
unicode = 0063;
},
{
color = 4;
glyphname = d;
lastChange = "2021-09-28 22:03:16 +0000";
layers = (
{
guideLines = (
{
position = "{-2621, 0}";
},
{
position = "{27, 1513}";
}
);
layerId = master01;
paths = (
{
closed = 1;
nodes = (
"465 778 LINE",
"465 172 LINE",
"470 125 LINE",
"485 0 LINE",
"594 0 LINE",
"594 778 LINE"
);
},
{
closed = 1;
nodes = (
"196 358 LINE",
"196 414 OFFCURVE",
"229 440 OFFCURVE",
"285 440 CURVE SMOOTH",
"465 439 LINE",
"505 557 LINE",
"257 557 LINE",
"137 557 OFFCURVE",
"74 481 OFFCURVE",
"74 344 CURVE",
"74 212 LINE",
"74 70 OFFCURVE",
"137 -6 OFFCURVE",
"239 -6 CURVE",
"330 -7 LINE",
"415 -7 OFFCURVE",
"444 48 OFFCURVE",
"452 110 CURVE",
"534 110 LINE",
"465 221 LINE",
"465 131 OFFCURVE",
"426 118 OFFCURVE",
"359 119 CURVE SMOOTH",
"286 120 LINE SMOOTH",
"230 121 OFFCURVE",
"196 146 OFFCURVE",
"196 202 CURVE"
);
}
);
userData = {
com.schriftgestaltung.Glyphs.lastChange = "2021-09-23 22:32:18 +0000";
};
width = 691;
},
{
background = {
paths = (
{
closed = 0;
nodes = (
"327 -4 LINE SMOOTH",
"396 -4 OFFCURVE",
"452 50 OFFCURVE",
"452 119 CURVE",
"313 119 LINE SMOOTH"
);
}
);
};
guideLines = (
{
position = "{-2621, 0}";
},
{
position = "{27, 1513}";
}
);
layerId = "D1DD5D9A-50CC-400A-8230-704C313030E6";
paths = (
{
closed = 1;
nodes = (
"466 778 LINE",
"466 0 LINE",
"589 0 LINE",
"589 778 LINE"
);
},
{
closed = 1;
nodes = (
"196 355 LINE",
"196 411 OFFCURVE",
"229 437 OFFCURVE",
"285 437 CURVE SMOOTH",
"465 436 LINE",
"505 557 LINE",
"257 557 LINE",
"137 557 OFFCURVE",
"73 481 OFFCURVE",
"73 344 CURVE",
"73 212 LINE",
"73 70 OFFCURVE",
"137 -6 OFFCURVE",
"239 -6 CURVE",
"277 -7 LINE",
"372 -7 OFFCURVE",
"426 43 OFFCURVE",
"426 113 CURVE",
"286 113 LINE",
"230 113 OFFCURVE",
"196 139 OFFCURVE",
"196 195 CURVE"
);
}
);
userData = {
com.schriftgestaltung.Glyphs.lastChange = "2021-09-23 22:32:18 +0000";
};
width = 686;
}
);
rightMetricsKey = l;
unicode = 0064;
},
{
color = 6;
glyphname = e;
lastChange = "2021-09-29 20:42:37 +0000";
layers = (
{
anchors = (
{
name = bottom;
position = "{331, 0}";
},
{
name = ogonek;
position = "{595, 10}";
},
{
name = top;
position = "{334, 556}";
}
);
layerId = master01;
paths = (
{
closed = 1;
nodes = (
"550 -3 LINE",
"550 116 LINE",
"302 116 LINE SMOOTH",
"223 116 OFFCURVE",
"190 146 OFFCURVE",
"190 222 CURVE",
"196 341 LINE",
"196 413 OFFCURVE",
"229 449 OFFCURVE",
"298 449 CURVE SMOOTH",
"371 449 LINE SMOOTH",
"444 449 OFFCURVE",
"477 413 OFFCURVE",
"477 341 CURVE SMOOTH",
"477 306 LINE",
"600 221 LINE",
"600 337 LINE SMOOTH",
"600 503 OFFCURVE",
"517 566 OFFCURVE",
"385 566 CURVE SMOOTH",
"297 566 LINE SMOOTH",
"158 566 OFFCURVE",
"68 474 OFFCURVE",
"68 333 CURVE SMOOTH",
"68 226 LINE SMOOTH",
"68 86 OFFCURVE",
"144 -3 OFFCURVE",
"269 -3 CURVE SMOOTH"
);
},
{
closed = 1;
nodes = (
"600 221 LINE",
"600 320 LINE",
"88 315 LINE",
"88 221 LINE"
);
}
);
userData = {
com.schriftgestaltung.Glyphs.lastChange = "2021-09-27 05:58:46 +0000";
};
width = 661;
},
{
anchors = (
{
name = bottom;
position = "{331, 0}";
},
{
name = ogonek;
position = "{595, 10}";
},
{
name = top;
position = "{334, 556}";
}
);
background = {
paths = (
{
closed = 0;
nodes = (
"394 221 LINE SMOOTH",
"332 221 OFFCURVE",
"271 259 OFFCURVE",
"271 317 CURVE",
"271 317 LINE",
"408 317 LINE SMOOTH"
);
},
{
closed = 0;
nodes = (
"68 223 LINE SMOOTH",
"68 82 OFFCURVE",
"158 -10 OFFCURVE",
"297 -10 CURVE SMOOTH"
);
}
);
};
layerId = "D1DD5D9A-50CC-400A-8230-704C313030E6";
paths = (
{
closed = 1;
nodes = (
"550 -3 LINE",
"550 117 LINE",
"302 117 LINE SMOOTH",
"223 117 OFFCURVE",
"196 150 OFFCURVE",
"196 223 CURVE",
"196 338 LINE",
"196 410 OFFCURVE",
"229 446 OFFCURVE",
"298 446 CURVE SMOOTH",
"371 446 LINE SMOOTH",
"444 446 OFFCURVE",
"477 410 OFFCURVE",
"477 338 CURVE SMOOTH",
"477 306 LINE",
"600 221 LINE",
"600 337 LINE SMOOTH",
"600 503 OFFCURVE",
"517 566 OFFCURVE",
"385 566 CURVE SMOOTH",
"297 566 LINE SMOOTH",
"158 566 OFFCURVE",
"68 474 OFFCURVE",
"68 333 CURVE SMOOTH",
"68 226 LINE SMOOTH",
"68 86 OFFCURVE",
"144 -3 OFFCURVE",
"269 -3 CURVE SMOOTH"
);
},
{
closed = 1;
nodes = (
"600 211 LINE",
"600 321 LINE",
"246 321 LINE",
"246 211 LINE"
);
}
);
userData = {
com.schriftgestaltung.Glyphs.lastChange = "2021-09-27 05:58:46 +0000";
};
width = 661;
}
);
leftMetricsKey = o;
unicode = 0065;
},
{
glyphname = f;
lastChange = "2021-09-29 20:42:22 +0000";
layers = (
{
layerId = master01;
paths = (
{
closed = 1;
nodes = (
"125 0 LINE",
"248 0 LINE",
"248 596 LINE SMOOTH",
"248 635 OFFCURVE",
"269 656 OFFCURVE",
"311 656 CURVE SMOOTH",
"441 656 LINE",
"441 778 LINE",
"285 778 LINE SMOOTH",
"181 778 OFFCURVE",
"125 722 OFFCURVE",
"125 618 CURVE SMOOTH"
);
},
{
closed = 1;
nodes = (
"44 433 LINE",
"423 433 LINE",
"423 554 LINE",
"44 554 LINE"
);
}
);
userData = {
com.schriftgestaltung.Glyphs.lastChange = "2021-09-23 22:05:26 +0000";
};
width = 449;
},
{
layerId = "D1DD5D9A-50CC-400A-8230-704C313030E6";
paths = (
{
closed = 1;
nodes = (
"125 0 LINE",
"248 0 LINE",
"248 383 LINE",
"125 383 LINE"
);
},
{
closed = 1;
nodes = (
"44 433 LINE",
"423 433 LINE",
"423 554 LINE",
"44 554 LINE"
);
},
{
closed = 1;
nodes = (
"248 596 LINE SMOOTH",
"248 635 OFFCURVE",
"269 656 OFFCURVE",
"311 656 CURVE SMOOTH",
"441 656 LINE",
"441 778 LINE",
"285 778 LINE SMOOTH",
"181 778 OFFCURVE",
"125 722 OFFCURVE",
"125 618 CURVE SMOOTH",
"125 451 LINE",
"248 451 LINE"
);
}
);
userData = {
com.schriftgestaltung.Glyphs.lastChange = "2021-09-23 22:05:26 +0000";
};
width = 449;
}
);
unicode = 0066;
},
{
glyphname = g;
lastChange = "2021-09-29 20:42:12 +0000";
layers = (
{
layerId = master01;
paths = (
{
closed = 1;
nodes = (
"300 157 LINE",
"392 157 LINE SMOOTH",
"506 157 OFFCURVE",
"568 215 OFFCURVE",
"568 337 CURVE SMOOTH",
"568 629 LINE",
"459 629 LINE",
"461 402 LINE",
"484 487 LINE",
"443 487 LINE",
"443 545 OFFCURVE",
"400 566 OFFCURVE",
"330 566 CURVE SMOOTH",
"241 566 LINE SMOOTH",
"112 566 OFFCURVE",
"63 517 OFFCURVE",
"63 388 CURVE SMOOTH",
"63 350 LINE SMOOTH",
"63 226 OFFCURVE",
"128 185 OFFCURVE",
"300 183 CURVE"
);
},
{
closed = 1;
nodes = (
"432 -21 LINE SMOOTH",
"458 -21 OFFCURVE",
"472 -34 OFFCURVE",
"472 -65 CURVE SMOOTH",
"472 -93 OFFCURVE",
"458 -106 OFFCURVE",
"432 -106 CURVE SMOOTH",
"94 -106 LINE",
"94 -212 LINE",
"462 -212 LINE SMOOTH",
"538 -212 OFFCURVE",
"571 -179 OFFCURVE",
"571 -101 CURVE SMOOTH",
"571 -20 LINE SMOOTH",
"571 50 OFFCURVE",
"538 80 OFFCURVE",
"462 80 CURVE SMOOTH",
"245 81 LINE SMOOTH",
"217 81 OFFCURVE",
"205 92 OFFCURVE",
"205 117 CURVE SMOOTH",
"205 140 OFFCURVE",
"217 157 OFFCURVE",
"244 157 CURVE SMOOTH",
"328 157 LINE",
"320 209 LINE",
"211 211 LINE",
"211 179 LINE",
"189 179 LINE",
"119 179 OFFCURVE",
"87 132 OFFCURVE",
"87 70 CURVE SMOOTH",
"87 8 OFFCURVE",
"119 -21 OFFCURVE",
"189 -21 CURVE SMOOTH"
);
},
{
closed = 1;
nodes = (
"187 394 LINE SMOOTH",
"187 433 OFFCURVE",
"207 454 OFFCURVE",
"246 454 CURVE SMOOTH",
"380 454 LINE SMOOTH",
"423 454 OFFCURVE",
"444 433 OFFCURVE",
"444 394 CURVE SMOOTH",
"444 329 LINE SMOOTH",
"444 290 OFFCURVE",
"423 269 OFFCURVE",
"380 269 CURVE SMOOTH",
"246 269 LINE SMOOTH",
"207 269 OFFCURVE",
"187 290 OFFCURVE",
"187 329 CURVE SMOOTH"
);
}
);
userData = {
com.schriftgestaltung.Glyphs.lastChange = "2021-09-24 01:51:58 +0000";
};
width = 630;
},
{
background = {
paths = (
{
closed = 1;
nodes = (
"300 157 LINE",
"392 157 LINE SMOOTH",
"506 157 OFFCURVE",
"568 215 OFFCURVE",
"568 337 CURVE SMOOTH",
"568 629 LINE",
"459 629 LINE",
"461 402 LINE",
"484 487 LINE",
"443 487 LINE",
"443 545 OFFCURVE",
"400 566 OFFCURVE",
"330 566 CURVE SMOOTH",
"241 566 LINE SMOOTH",
"112 566 OFFCURVE",
"63 517 OFFCURVE",
"63 388 CURVE SMOOTH",
"63 350 LINE SMOOTH",
"63 226 OFFCURVE",
"128 185 OFFCURVE",
"300 183 CURVE"
);
},
{
closed = 1;
nodes = (
"432 -21 LINE SMOOTH",
"458 -21 OFFCURVE",
"472 -34 OFFCURVE",
"472 -65 CURVE SMOOTH",
"472 -93 OFFCURVE",
"458 -106 OFFCURVE",
"432 -106 CURVE SMOOTH",
"94 -106 LINE",
"94 -212 LINE",
"462 -212 LINE SMOOTH",
"538 -212 OFFCURVE",
"571 -179 OFFCURVE",
"571 -101 CURVE SMOOTH",
"571 -20 LINE SMOOTH",
"571 50 OFFCURVE",
"538 80 OFFCURVE",
"462 80 CURVE SMOOTH",
"245 81 LINE SMOOTH",
"217 81 OFFCURVE",
"205 92 OFFCURVE",
"205 117 CURVE SMOOTH",
"205 140 OFFCURVE",
"217 157 OFFCURVE",
"244 157 CURVE SMOOTH",
"328 157 LINE",
"320 209 LINE",
"211 211 LINE",
"211 179 LINE",
"189 179 LINE",
"119 179 OFFCURVE",
"87 132 OFFCURVE",
"87 70 CURVE SMOOTH",
"87 8 OFFCURVE",
"119 -21 OFFCURVE",
"189 -21 CURVE SMOOTH"
);
},
{
closed = 1;
nodes = (
"187 394 LINE SMOOTH",
"187 433 OFFCURVE",
"207 454 OFFCURVE",
"246 454 CURVE SMOOTH",
"380 454 LINE SMOOTH",
"423 454 OFFCURVE",
"444 433 OFFCURVE",
"444 394 CURVE SMOOTH",
"444 329 LINE SMOOTH",
"444 290 OFFCURVE",
"423 269 OFFCURVE",
"380 269 CURVE SMOOTH",
"246 269 LINE SMOOTH",
"207 269 OFFCURVE",
"187 290 OFFCURVE",
"187 329 CURVE SMOOTH"
);
}
);
};
layerId = "D1DD5D9A-50CC-400A-8230-704C313030E6";
paths = (
{
closed = 1;
nodes = (
"412 458 LINE",
"412 527 OFFCURVE",
"381 566 OFFCURVE",
"291 566 CURVE SMOOTH",
"241 566 LINE SMOOTH",
"112 566 OFFCURVE",
"63 517 OFFCURVE",
"63 388 CURVE SMOOTH",
"63 354 LINE SMOOTH",
"63 248 OFFCURVE",
"112 161 OFFCURVE",
"241 161 CURVE",
"392 161 LINE SMOOTH",
"506 161 OFFCURVE",
"568 220 OFFCURVE",
"568 341 CURVE SMOOTH",
"568 629 LINE",
"454 629 LINE",
"454 329 LINE SMOOTH",
"454 290 OFFCURVE",
"433 269 OFFCURVE",
"390 269 CURVE SMOOTH",
"236 269 LINE SMOOTH",
"197 269 OFFCURVE",
"177 290 OFFCURVE",
"177 329 CURVE SMOOTH",
"177 398 LINE SMOOTH",
"177 437 OFFCURVE",
"197 458 OFFCURVE",
"236 458 CURVE SMOOTH"
);
},
{
closed = 1;
nodes = (
"81 8 OFFCURVE",
"113 -21 OFFCURVE",
"183 -21 CURVE SMOOTH",
"432 -21 LINE SMOOTH",
"458 -21 OFFCURVE",
"472 -34 OFFCURVE",
"472 -65 CURVE SMOOTH",
"472 -97 OFFCURVE",
"458 -110 OFFCURVE",
"432 -110 CURVE SMOOTH",
"94 -110 LINE",
"94 -212 LINE",
"462 -212 LINE SMOOTH",
"538 -212 OFFCURVE",
"571 -179 OFFCURVE",
"571 -101 CURVE SMOOTH",
"571 -20 LINE SMOOTH",
"571 50 OFFCURVE",
"538 80 OFFCURVE",
"462 80 CURVE SMOOTH",
"239 81 LINE SMOOTH",
"211 81 OFFCURVE",
"199 92 OFFCURVE",
"199 117 CURVE",
"199 118 LINE",
"81 118 LINE",
"81 60 LINE"
);
}
);
userData = {
com.schriftgestaltung.Glyphs.lastChange = "2021-09-24 01:51:58 +0000";
};
width = 630;
}
);
unicode = 0067;
},
{
color = 9;
glyphname = h;
lastChange = "2021-09-28 22:11:45 +0000";
layers = (
{
layerId = master01;
paths = (
{
closed = 1;
nodes = (
"97 0 LINE",
"223 0 LINE",
"223 362 LINE",
"210 432 LINE",
"209 778 LINE",
"97 778 LINE"
);
},
{
closed = 1;
nodes = (
"448 436 OFFCURVE",
"482 402 OFFCURVE",
"482 323 CURVE SMOOTH",
"482 0 LINE",
"605 0 LINE",
"605 380 LINE SMOOTH",
"605 498 OFFCURVE",
"547 559 OFFCURVE",
"426 559 CURVE SMOOTH",
"384 559 LINE SMOOTH",
"286 559 OFFCURVE",
"250 507 OFFCURVE",
"230 432 CURVE",
"207 432 LINE",
"223 333 LINE",
"223 423 OFFCURVE",
"297 436 OFFCURVE",
"378 436 CURVE SMOOTH"
);
}
);
userData = {
com.schriftgestaltung.Glyphs.lastChange = "2021-09-23 22:47:05 +0000";
};
width = 685;
},
{
anchors = (
{
name = bottom;
position = "{373, 0}";
},
{
name = top;
position = "{396, 556}";
},
{
name = top_;
position = "{384, 560}";
}
);
layerId = "D1DD5D9A-50CC-400A-8230-704C313030E6";
paths = (
{
closed = 1;
nodes = (
"367 439 LINE",
"437 439 OFFCURVE",
"471 405 OFFCURVE",
"471 326 CURVE SMOOTH",
"471 0 LINE",
"594 0 LINE",
"594 380 LINE SMOOTH",
"594 498 OFFCURVE",
"536 559 OFFCURVE",
"415 559 CURVE SMOOTH",
"401 559 LINE",
"311 559 OFFCURVE",
"255 508 OFFCURVE",
"255 439 CURVE"
);
},
{
closed = 1;
nodes = (
"215 756 LINE",
"91 756 LINE",
"91 0 LINE",
"215 0 LINE"
);
}
);
userData = {
com.schriftgestaltung.Glyphs.lastChange = "2021-09-23 22:47:05 +0000";
};
width = 674;
}
);
leftMetricsKey = l;
rightMetricsKey = n;
unicode = 0068;
},
{
glyphname = i;
lastChange = "2021-09-28 22:03:16 +0000";
layers = (
{
layerId = master01;
paths = (
{
closed = 1;
nodes = (
"91 0 LINE",
"217 0 LINE",
"217 556 LINE",
"91 556 LINE"
);
},
{
closed = 1;
nodes = (
"90 652 LINE",
"218 652 LINE",
"218 778 LINE",
"90 778 LINE"
);
}
);
userData = {
com.schriftgestaltung.Glyphs.lastChange = "2021-09-28 04:58:06 +0000";
};
width = 308;
},
{
layerId = "D1DD5D9A-50CC-400A-8230-704C313030E6";
paths = (
{
closed = 1;
nodes = (
"91 0 LINE",
"215 0 LINE",
"215 556 LINE",
"91 556 LINE"
);
},
{
closed = 1;
nodes = (
"90 652 LINE",
"216 652 LINE",
"216 778 LINE",
"90 778 LINE"
);
}
);
userData = {
com.schriftgestaltung.Glyphs.lastChange = "2021-09-28 04:58:06 +0000";
};
width = 306;
}
);
unicode = 0069;
},
{
glyphname = j;
lastChange = "2021-09-28 22:03:16 +0000";
layers = (
{
layerId = master01;
paths = (
{
closed = 1;
nodes = (
"110 652 LINE",
"238 652 LINE",
"238 778 LINE",
"110 778 LINE"
);
},
{
closed = 1;
nodes = (
"238 556 LINE",
"115 556 LINE",
"115 -29 LINE SMOOTH",
"115 -68 OFFCURVE",
"94 -89 OFFCURVE",
"52 -89 CURVE SMOOTH",
"-40 -89 LINE",
"-40 -213 LINE",
"78 -213 LINE SMOOTH",
"182 -213 OFFCURVE",
"238 -156 OFFCURVE",
"238 -59 CURVE SMOOTH"
);
}
);
userData = {
com.schriftgestaltung.Glyphs.lastChange = "2021-09-23 22:19:29 +0000";
};
width = 328;
},
{
layerId = "D1DD5D9A-50CC-400A-8230-704C313030E6";
paths = (
{
closed = 1;
nodes = (
"110 652 LINE",
"238 652 LINE",
"238 778 LINE",
"110 778 LINE"
);
},
{
closed = 1;
nodes = (
"238 556 LINE",
"115 556 LINE",
"115 -29 LINE SMOOTH",
"115 -68 OFFCURVE",
"94 -89 OFFCURVE",
"52 -89 CURVE SMOOTH",
"-40 -89 LINE",
"-40 -213 LINE",
"78 -213 LINE SMOOTH",
"182 -213 OFFCURVE",
"238 -156 OFFCURVE",
"238 -59 CURVE SMOOTH"
);
}
);
userData = {
com.schriftgestaltung.Glyphs.lastChange = "2021-09-23 22:19:29 +0000";
};
width = 328;
}
);
unicode = 006A;
},
{
glyphname = k;
lastChange = "2021-09-29 20:41:59 +0000";
layers = (
{
layerId = master01;
paths = (
{
closed = 1;
nodes = (
"222 0 LINE",
"222 240 LINE",
"310 240 LINE",
"480 0 LINE",
"623 0 LINE",
"373 350 LINE",
"372 279 LINE",
"594 556 LINE",
"449 556 LINE",
"301 364 LINE",
"222 364 LINE",
"222 778 LINE",
"97 778 LINE",
"97 0 LINE"
);
}
);
userData = {
com.schriftgestaltung.Glyphs.lastChange = "2021-09-24 02:17:29 +0000";
};
width = 634;
},
{
layerId = "D1DD5D9A-50CC-400A-8230-704C313030E6";
paths = (
{
closed = 1;
nodes = (
"330 240 LINE",
"480 0 LINE",
"623 0 LINE",
"393 350 LINE",
"392 279 LINE",
"594 556 LINE",
"449 556 LINE",
"321 364 LINE",
"272 364 LINE",
"272 240 LINE"
);
},
{
closed = 1;
nodes = (
"222 778 LINE",
"97 778 LINE",
"97 0 LINE",
"222 0 LINE"
);
}
);
userData = {
com.schriftgestaltung.Glyphs.lastChange = "2021-09-24 02:17:29 +0000";
};
width = 634;
}
);
leftMetricsKey = l;
unicode = 006B;
},
{
glyphname = l;
lastChange = "2021-09-28 22:03:16 +0000";
layers = (
{
layerId = master01;
paths = (
{
closed = 1;
nodes = (
"97 0 LINE",
"223 0 LINE",
"223 778 LINE",
"97 778 LINE"
);
}
);
userData = {
com.schriftgestaltung.Glyphs.lastChange = "2021-09-23 22:08:53 +0000";
};
width = 320;
},
{
layerId = "D1DD5D9A-50CC-400A-8230-704C313030E6";
paths = (
{
closed = 1;
nodes = (
"97 0 LINE",
"221 0 LINE",
"221 778 LINE",
"97 778 LINE"
);
}
);
userData = {
com.schriftgestaltung.Glyphs.lastChange = "2021-09-23 22:08:53 +0000";
};
width = 318;
}
);
rightMetricsKey = "=|l";
unicode = 006C;
},
{
color = 9;
glyphname = m;
lastChange = "2021-09-28 22:03:16 +0000";
layers = (
{
layerId = master01;
paths = (
{
closed = 1;
nodes = (
"90 0 LINE",
"216 0 LINE",
"216 329 LINE",
"200 432 LINE",
"200 556 LINE",
"90 556 LINE"
);
},
{
closed = 1;
nodes = (
"419 436 OFFCURVE",
"451 403 OFFCURVE",
"451 329 CURVE SMOOTH",
"451 0 LINE",
"574 0 LINE",
"574 380 LINE SMOOTH",
"574 498 OFFCURVE",
"540 559 OFFCURVE",
"419 559 CURVE SMOOTH",
"377 559 LINE SMOOTH",
"276 559 OFFCURVE",
"236 507 OFFCURVE",
"216 432 CURVE",
"200 432 LINE",
"216 329 LINE",
"216 419 OFFCURVE",
"263 436 OFFCURVE",
"347 436 CURVE SMOOTH"
);
},
{
closed = 1;
nodes = (
"777 436 OFFCURVE",
"808 403 OFFCURVE",
"808 329 CURVE",
"808 0 LINE",
"931 0 LINE",
"931 380 LINE SMOOTH",
"931 498 OFFCURVE",
"897 559 OFFCURVE",
"776 559 CURVE SMOOTH",
"736 559 LINE SMOOTH",
"635 559 OFFCURVE",
"595 507 OFFCURVE",
"575 432 CURVE",
"550 432 LINE",
"574 329 LINE",
"574 419 OFFCURVE",
"622 436 OFFCURVE",
"706 436 CURVE SMOOTH"
);
}
);
userData = {
com.schriftgestaltung.Glyphs.lastChange = "2021-09-23 21:36:23 +0000";
};
width = 1011;
},
{
background = {
components = (
{
name = n;
transform = "{1, 0, 0, 1, 1, 0}";
}
);
paths = (
{
closed = 1;
nodes = (
"1217 0 LINE",
"1217 329 LINE SMOOTH",
"1217 419 OFFCURVE",
"1264 436 OFFCURVE",
"1348 436 CURVE SMOOTH",
"1420 436 OFFCURVE",
"1452 403 OFFCURVE",
"1452 329 CURVE SMOOTH",
"1452 0 LINE",
"1575 0 LINE",
"1575 329 LINE SMOOTH",
"1575 419 OFFCURVE",
"1623 436 OFFCURVE",
"1707 436 CURVE SMOOTH",
"1778 436 OFFCURVE",
"1809 403 OFFCURVE",
"1809 329 CURVE SMOOTH",
"1809 0 LINE",
"1932 0 LINE",
"1932 380 LINE SMOOTH",
"1932 498 OFFCURVE",
"1898 559 OFFCURVE",
"1777 559 CURVE SMOOTH",
"1737 559 LINE SMOOTH",
"1636 559 OFFCURVE",
"1596 507 OFFCURVE",
"1576 432 CURVE",
"1572 432 LINE",
"1562 516 OFFCURVE",
"1522 559 OFFCURVE",
"1420 559 CURVE SMOOTH",
"1378 559 LINE SMOOTH",
"1277 559 OFFCURVE",
"1237 507 OFFCURVE",
"1217 432 CURVE",
"1201 432 LINE",
"1201 556 LINE",
"1091 556 LINE",
"1091 0 LINE"
);
}
);
};
layerId = "D1DD5D9A-50CC-400A-8230-704C313030E6";
paths = (
{
closed = 1;
nodes = (
"217 556 LINE",
"91 556 LINE",
"91 0 LINE",
"217 0 LINE"
);
},
{
closed = 1;
nodes = (
"348 439 LINE SMOOTH",
"420 439 OFFCURVE",
"452 403 OFFCURVE",
"452 329 CURVE SMOOTH",
"452 0 LINE",
"575 0 LINE",
"575 380 LINE SMOOTH",
"575 486 OFFCURVE",
"551 559 OFFCURVE",
"410 559 CURVE SMOOTH",
"305 559 OFFCURVE",
"256 509 OFFCURVE",
"257 439 CURVE"
);
},
{
closed = 1;
nodes = (
"705 439 LINE SMOOTH",
"777 439 OFFCURVE",
"809 403 OFFCURVE",
"809 329 CURVE SMOOTH",
"809 0 LINE",
"932 0 LINE",
"932 380 LINE SMOOTH",
"932 486 OFFCURVE",
"908 559 OFFCURVE",
"767 559 CURVE SMOOTH",
"662 559 OFFCURVE",
"613 509 OFFCURVE",
"614 439 CURVE"
);
}
);
userData = {
com.schriftgestaltung.Glyphs.lastChange = "2021-09-23 21:36:23 +0000";
};
width = 1012;
}
);
leftMetricsKey = n;
rightMetricsKey = n;
unicode = 006D;
},
{
color = 9;
glyphname = n;
lastChange = "2021-09-28 22:03:16 +0000";
layers = (
{
anchors = (
{
name = bottom;
position = "{373, 0}";
},
{
name = top;
position = "{396, 556}";
},
{
name = top_;
position = "{384, 560}";
}
);
layerId = master01;
paths = (
{
closed = 1;
nodes = (
"90 0 LINE",
"215 0 LINE",
"215 333 LINE",
"199 432 LINE",
"199 556 LINE",
"90 556 LINE"
);
},
{
closed = 1;
nodes = (
"437 436 OFFCURVE",
"471 402 OFFCURVE",
"471 323 CURVE SMOOTH",
"471 0 LINE",
"594 0 LINE",
"594 380 LINE SMOOTH",
"594 498 OFFCURVE",
"536 559 OFFCURVE",
"415 559 CURVE SMOOTH",
"373 559 LINE SMOOTH",
"272 559 OFFCURVE",
"236 507 OFFCURVE",
"216 432 CURVE",
"199 432 LINE",
"215 333 LINE",
"215 423 OFFCURVE",
"283 436 OFFCURVE",
"367 436 CURVE SMOOTH"
);
}
);
userData = {
com.schriftgestaltung.Glyphs.lastChange = "2021-09-27 04:28:34 +0000";
};
width = 674;
},
{
anchors = (
{
name = bottom;
position = "{373, 0}";
},
{
name = top;
position = "{396, 556}";
},
{
name = top_;
position = "{384, 560}";
}
);
background = {
paths = (
{
closed = 1;
nodes = (
"90 0 LINE",
"215 0 LINE",
"215 333 LINE",
"199 432 LINE",
"199 556 LINE",
"90 556 LINE"
);
},
{
closed = 1;
nodes = (
"437 436 OFFCURVE",
"471 402 OFFCURVE",
"471 323 CURVE SMOOTH",
"471 0 LINE",
"594 0 LINE",
"594 380 LINE SMOOTH",
"594 498 OFFCURVE",
"536 559 OFFCURVE",
"415 559 CURVE SMOOTH",
"373 559 LINE SMOOTH",
"272 559 OFFCURVE",
"236 507 OFFCURVE",
"216 432 CURVE",
"199 432 LINE",
"215 333 LINE",
"215 423 OFFCURVE",
"283 436 OFFCURVE",
"367 436 CURVE SMOOTH"
);
}
);
};
layerId = "D1DD5D9A-50CC-400A-8230-704C313030E6";
paths = (
{
closed = 1;
nodes = (
"367 439 LINE",
"437 439 OFFCURVE",
"471 405 OFFCURVE",
"471 326 CURVE SMOOTH",
"471 0 LINE",
"594 0 LINE",
"594 380 LINE SMOOTH",
"594 498 OFFCURVE",
"536 559 OFFCURVE",
"415 559 CURVE SMOOTH",
"401 559 LINE",
"311 559 OFFCURVE",
"255 508 OFFCURVE",
"255 439 CURVE"
);
},
{
closed = 1;
nodes = (
"215 556 LINE",
"91 556 LINE",
"91 0 LINE",
"215 0 LINE"
);
}
);
userData = {
com.schriftgestaltung.Glyphs.lastChange = "2021-09-27 04:28:34 +0000";
};
width = 674;
}
);
unicode = 006E;
},
{
color = 6;
glyphname = o;
lastChange = "2021-09-29 20:12:11 +0000";
layers = (
{
anchors = (
{
name = bottom;
position = "{327, -13}";
},
{
name = center;
position = "{331, 278}";
},
{
name = ogonek;
position = "{580, -1}";
},
{
name = top;
position = "{344, 566}";
},
{
name = topright;
position = "{606, 556}";
}
);
layerId = master01;
paths = (
{
closed = 1;
nodes = (
"501 225 LINE SMOOTH",
"501 143 OFFCURVE",
"462 112 OFFCURVE",
"375 112 CURVE SMOOTH",
"323 112 LINE SMOOTH",
"228 112 OFFCURVE",
"187 143 OFFCURVE",
"187 225 CURVE SMOOTH",
"187 331 LINE SMOOTH",
"187 413 OFFCURVE",
"228 444 OFFCURVE",
"323 444 CURVE SMOOTH",
"375 444 LINE SMOOTH",
"462 444 OFFCURVE",
"501 413 OFFCURVE",
"501 331 CURVE SMOOTH"
);
},
{
closed = 1;
nodes = (
"68 230 LINE",
"68 82 OFFCURVE",
"149 -10 OFFCURVE",
"284 -10 CURVE SMOOTH",
"404 -10 LINE",
"539 -10 OFFCURVE",
"620 82 OFFCURVE",
"620 230 CURVE SMOOTH",
"620 326 LINE SMOOTH",
"620 474 OFFCURVE",
"539 566 OFFCURVE",
"404 566 CURVE SMOOTH",
"284 566 LINE",
"149 566 OFFCURVE",
"68 474 OFFCURVE",
"68 326 CURVE SMOOTH"
);
}
);
userData = {
com.schriftgestaltung.Glyphs.lastChange = "2021-09-27 05:12:57 +0000";
};
width = 688;
},
{
anchors = (
{
name = bottom;
position = "{337, -13}";
},
{
name = center;
position = "{341, 278}";
},
{
name = ogonek;
position = "{590, -1}";
},
{
name = top;
position = "{354, 566}";
},
{
name = topright;
position = "{616, 556}";
}
);
background = {
paths = (
{
closed = 1;
nodes = (
"185 222 LINE",
"185 163 OFFCURVE",
"216 121 OFFCURVE",
"298 121 CURVE SMOOTH",
"406 121 LINE SMOOTH",
"488 121 OFFCURVE",
"519 160 OFFCURVE",
"519 247 CURVE SMOOTH",
"519 299 LINE SMOOTH",
"519 394 OFFCURVE",
"488 435 OFFCURVE",
"406 435 CURVE SMOOTH",
"69 435 LINE",
"65 507 OFFCURVE",
"137 564 OFFCURVE",
"248 564 CURVE SMOOTH",
"401 564 LINE SMOOTH",
"549 564 OFFCURVE",
"641 483 OFFCURVE",
"641 348 CURVE",
"641 209 LINE SMOOTH",
"641 74 OFFCURVE",
"549 -7 OFFCURVE",
"401 -7 CURVE SMOOTH",
"305 -7 LINE SMOOTH",
"157 -7 OFFCURVE",
"65 74 OFFCURVE",
"66 209 CURVE",
"66 395 LINE",
"136 406 OFFCURVE",
"187 367 OFFCURVE",
"186 302 CURVE SMOOTH"
);
}
);
};
layerId = "D1DD5D9A-50CC-400A-8230-704C313030E6";
paths = (
{
closed = 1;
nodes = (
"469 110 OFFCURVE",
"511 141 OFFCURVE",
"511 223 CURVE SMOOTH",
"511 331 LINE SMOOTH",
"511 413 OFFCURVE",
"472 444 OFFCURVE",
"385 444 CURVE SMOOTH",
"333 444 LINE SMOOTH",
"238 444 OFFCURVE",
"197 413 OFFCURVE",
"197 331 CURVE SMOOTH",
"197 225 LINE",
"197 3 LINE",
"115 37 OFFCURVE",
"68 117 OFFCURVE",
"68 230 CURVE SMOOTH",
"68 326 LINE SMOOTH",
"68 474 OFFCURVE",
"149 566 OFFCURVE",
"284 566 CURVE",
"423 566 LINE SMOOTH",
"558 566 OFFCURVE",
"639 474 OFFCURVE",
"639 326 CURVE SMOOTH",
"639 230 LINE SMOOTH",
"639 82 OFFCURVE",
"558 -10 OFFCURVE",
"423 -9 CURVE",
"278 -9 LINE",
"278 110 LINE",
"410 110 LINE"
);
}
);
userData = {
com.schriftgestaltung.Glyphs.lastChange = "2021-09-27 05:12:57 +0000";
};
width = 707;
},
{
anchors = (
{
name = bottom;
position = "{337, -13}";
},
{
name = center;
position = "{341, 278}";
},
{
name = ogonek;
position = "{590, -1}";
},
{
name = top;
position = "{354, 566}";
},
{
name = topright;
position = "{616, 556}";
}
);
associatedMasterId = "D1DD5D9A-50CC-400A-8230-704C313030E6";
background = {
paths = (
{
closed = 1;
nodes = (
"511 225 LINE SMOOTH",
"511 143 OFFCURVE",
"472 112 OFFCURVE",
"385 112 CURVE SMOOTH",
"333 112 LINE SMOOTH",
"238 112 OFFCURVE",
"197 143 OFFCURVE",
"197 225 CURVE SMOOTH",
"197 331 LINE SMOOTH",
"197 413 OFFCURVE",
"238 444 OFFCURVE",
"333 444 CURVE SMOOTH",
"385 444 LINE SMOOTH",
"472 444 OFFCURVE",
"511 413 OFFCURVE",
"511 331 CURVE SMOOTH"
);
},
{
closed = 1;
nodes = (
"78 230 LINE",
"78 82 OFFCURVE",
"159 -10 OFFCURVE",
"294 -10 CURVE SMOOTH",
"414 -10 LINE",
"549 -10 OFFCURVE",
"630 82 OFFCURVE",
"630 230 CURVE SMOOTH",
"630 326 LINE SMOOTH",
"630 474 OFFCURVE",
"549 566 OFFCURVE",
"414 566 CURVE SMOOTH",
"294 566 LINE",
"159 566 OFFCURVE",
"78 474 OFFCURVE",
"78 326 CURVE SMOOTH"
);
}
);
};
layerId = "522E6577-4928-4A9C-8299-82029E1E3766";
name = "Sep 28 21, 23:52";
paths = (
{
closed = 1;
nodes = (
"469 110 OFFCURVE",
"511 141 OFFCURVE",
"511 223 CURVE SMOOTH",
"511 331 LINE SMOOTH",
"511 413 OFFCURVE",
"472 444 OFFCURVE",
"385 444 CURVE SMOOTH",
"333 444 LINE SMOOTH",
"238 444 OFFCURVE",
"197 413 OFFCURVE",
"197 331 CURVE SMOOTH",
"197 225 LINE",
"197 3 LINE",
"115 37 OFFCURVE",
"68 117 OFFCURVE",
"68 230 CURVE SMOOTH",
"68 326 LINE SMOOTH",
"68 474 OFFCURVE",
"149 566 OFFCURVE",
"284 566 CURVE",
"423 566 LINE SMOOTH",
"558 566 OFFCURVE",
"639 474 OFFCURVE",
"639 326 CURVE SMOOTH",
"639 230 LINE SMOOTH",
"639 82 OFFCURVE",
"558 -10 OFFCURVE",
"423 -9 CURVE",
"233 -9 LINE",
"233 60 OFFCURVE",
"287 110 OFFCURVE",
"369 110 CURVE SMOOTH",
"410 110 LINE"
);
}
);
userData = {
com.schriftgestaltung.Glyphs.lastChange = "2021-09-27 05:12:57 +0000";
};
width = 707;
},
{
anchors = (
{
name = bottom;
position = "{337, -13}";
},
{
name = center;
position = "{341, 278}";
},
{
name = ogonek;
position = "{590, -1}";
},
{
name = top;
position = "{354, 566}";
},
{
name = topright;
position = "{616, 556}";
}
);
associatedMasterId = "D1DD5D9A-50CC-400A-8230-704C313030E6";
background = {
components = (
{
name = n;
transform = "{1, 0, 0, 1, -180, 0}";
}
);
paths = (
{
closed = 1;
nodes = (
"1411 225 LINE SMOOTH",
"1411 143 OFFCURVE",
"1372 112 OFFCURVE",
"1285 112 CURVE SMOOTH",
"1233 112 LINE SMOOTH",
"1138 112 OFFCURVE",
"1097 143 OFFCURVE",
"1097 225 CURVE SMOOTH",
"1097 331 LINE SMOOTH",
"1097 413 OFFCURVE",
"1138 444 OFFCURVE",
"1233 444 CURVE SMOOTH",
"1285 444 LINE SMOOTH",
"1372 444 OFFCURVE",
"1411 413 OFFCURVE",
"1411 331 CURVE SMOOTH"
);
},
{
closed = 1;
nodes = (
"978 230 LINE",
"978 82 OFFCURVE",
"1059 -10 OFFCURVE",
"1194 -10 CURVE SMOOTH",
"1314 -10 LINE",
"1449 -10 OFFCURVE",
"1530 82 OFFCURVE",
"1530 230 CURVE SMOOTH",
"1530 326 LINE SMOOTH",
"1530 474 OFFCURVE",
"1449 566 OFFCURVE",
"1314 566 CURVE SMOOTH",
"1194 566 LINE",
"1059 566 OFFCURVE",
"978 474 OFFCURVE",
"978 326 CURVE SMOOTH"
);
}
);
};
layerId = "DF58385E-A658-4C32-8A88-F8B7F2E742EC";
name = "Sep 28 21, 23:54";
paths = (
{
closed = 1;
nodes = (
"185 163 OFFCURVE",
"216 121 OFFCURVE",
"298 121 CURVE SMOOTH",
"406 121 LINE SMOOTH",
"488 121 OFFCURVE",
"519 160 OFFCURVE",
"519 247 CURVE SMOOTH",
"519 299 LINE SMOOTH",
"519 394 OFFCURVE",
"488 435 OFFCURVE",
"406 435 CURVE SMOOTH",
"69 435 LINE",
"75 507 OFFCURVE",
"132 564 OFFCURVE",
"253 564 CURVE SMOOTH",
"401 564 LINE SMOOTH",
"549 564 OFFCURVE",
"641 483 OFFCURVE",
"641 348 CURVE",
"641 209 LINE SMOOTH",
"641 74 OFFCURVE",
"549 -7 OFFCURVE",
"401 -7 CURVE SMOOTH",
"305 -7 LINE SMOOTH",
"157 -7 OFFCURVE",
"65 74 OFFCURVE",
"66 209 CURVE",
"66 395 LINE",
"185 395 LINE",
"185 222 LINE"
);
}
);
userData = {
com.schriftgestaltung.Glyphs.lastChange = "2021-09-27 05:12:57 +0000";
};
width = 707;
}
);
rightMetricsKey = "=|o";
unicode = 006F;
},
{
color = 9;
glyphname = p;
lastChange = "2021-09-28 22:03:16 +0000";
layers = (
{
guideLines = (
{
position = "{83, 0}";
}
);
layerId = master01;
paths = (
{
closed = 1;
nodes = (
"90 -211 LINE",
"213 -211 LINE",
"213 117 LINE",
"215 357 LINE",
"201 432 LINE",
"199 556 LINE",
"90 556 LINE"
);
},
{
closed = 1;
nodes = (
"178 119 LINE",
"178 0 LINE",
"380 0 LINE SMOOTH",
"516 0 OFFCURVE",
"600 90 OFFCURVE",
"600 238 CURVE SMOOTH",
"600 380 LINE SMOOTH",
"600 498 OFFCURVE",
"542 559 OFFCURVE",
"415 559 CURVE SMOOTH",
"373 559 LINE SMOOTH",
"258 559 OFFCURVE",
"230 487 OFFCURVE",
"216 432 CURVE",
"201 432 LINE",
"215 333 LINE",
"215 416 OFFCURVE",
"255 432 OFFCURVE",
"324 432 CURVE",
"324 432 OFFCURVE",
"380 432 OFFCURVE",
"380 432 CURVE",
"450 432 OFFCURVE",
"477 403 OFFCURVE",
"477 341 CURVE SMOOTH",
"477 209 LINE SMOOTH",
"477 147 OFFCURVE",
"450 119 OFFCURVE",
"381 119 CURVE SMOOTH"
);
}
);
userData = {
com.schriftgestaltung.Glyphs.lastChange = "2021-09-23 22:41:44 +0000";
};
width = 675;
},
{
background = {
paths = (
{
closed = 0;
nodes = (
"223 436 LINE",
"223 505 OFFCURVE",
"279 560 OFFCURVE",
"349 560 CURVE"
);
}
);
};
guideLines = (
{
position = "{83, 0}";
}
);
layerId = "D1DD5D9A-50CC-400A-8230-704C313030E6";
paths = (
{
closed = 1;
nodes = (
"90 -211 LINE",
"213 -211 LINE",
"213 117 LINE",
"213 556 LINE",
"90 556 LINE"
);
},
{
closed = 1;
nodes = (
"253 439 OFFCURVE",
"380 439 OFFCURVE",
"380 439 CURVE",
"450 439 OFFCURVE",
"477 410 OFFCURVE",
"477 348 CURVE SMOOTH",
"477 210 LINE SMOOTH",
"477 148 OFFCURVE",
"450 120 OFFCURVE",
"381 120 CURVE SMOOTH",
"178 120 LINE",
"178 0 LINE",
"380 0 LINE SMOOTH",
"516 0 OFFCURVE",
"600 90 OFFCURVE",
"600 238 CURVE SMOOTH",
"600 380 LINE SMOOTH",
"600 498 OFFCURVE",
"542 559 OFFCURVE",
"415 559 CURVE SMOOTH",
"399 559 LINE SMOOTH",
"310 559 OFFCURVE",
"256 511 OFFCURVE",
"253 439 CURVE"
);
}
);
userData = {
com.schriftgestaltung.Glyphs.lastChange = "2021-09-23 22:41:44 +0000";
};
width = 675;
}
);
unicode = 0070;
},
{
color = 9;
glyphname = q;
lastChange = "2021-09-28 22:03:16 +0000";
layers = (
{
guideLines = (
{
position = "{-2907, 0}";
},
{
position = "{32, 354}";
}
);
layerId = master01;
paths = (
{
closed = 1;
nodes = (
"452 556 LINE",
"452 186 LINE",
"463 129 LINE",
"463 -210 LINE",
"582 -210 LINE",
"582 556 LINE"
);
},
{
closed = 1;
nodes = (
"197 412 OFFCURVE",
"228 437 OFFCURVE",
"292 437 CURVE",
"464 437 LINE",
"495 556 LINE",
"495 556 OFFCURVE",
"404 556 OFFCURVE",
"267 556 CURVE SMOOTH",
"126 556 OFFCURVE",
"74 481 OFFCURVE",
"74 374 CURVE SMOOTH",
"74 175 LINE SMOOTH",
"74 50 OFFCURVE",
"143 -6 OFFCURVE",
"257 -4 CURVE",
"299 -4 LINE",
"389 -4 OFFCURVE",
"424 48 OFFCURVE",
"447 123 CURVE",
"482 123 LINE",
"452 222 LINE",
"452 132 OFFCURVE",
"407 120 OFFCURVE",
"339 120 CURVE SMOOTH",
"292 120 LINE SMOOTH",
"228 120 OFFCURVE",
"197 139 OFFCURVE",
"197 200 CURVE SMOOTH",
"197 221 OFFCURVE",
"197 351 OFFCURVE",
"197 352 CURVE"
);
}
);
userData = {
com.schriftgestaltung.Glyphs.lastChange = "2021-09-23 22:46:30 +0000";
};
width = 672;
},
{
background = {
paths = (
{
closed = 0;
nodes = (
"287 -4 LINE SMOOTH",
"356 -4 OFFCURVE",
"412 51 OFFCURVE",
"412 120 CURVE",
"273 120 LINE SMOOTH"
);
}
);
};
guideLines = (
{
position = "{-2907, 0}";
},
{
position = "{32, 354}";
}
);
layerId = "D1DD5D9A-50CC-400A-8230-704C313030E6";
paths = (
{
closed = 1;
nodes = (
"459 556 LINE",
"459 -210 LINE",
"582 -210 LINE",
"582 556 LINE"
);
},
{
closed = 1;
nodes = (
"197 411 OFFCURVE",
"228 436 OFFCURVE",
"292 436 CURVE",
"464 436 LINE",
"495 556 LINE",
"495 556 OFFCURVE",
"404 556 OFFCURVE",
"267 556 CURVE SMOOTH",
"126 556 OFFCURVE",
"71 481 OFFCURVE",
"71 374 CURVE SMOOTH",
"71 175 LINE SMOOTH",
"71 50 OFFCURVE",
"143 -6 OFFCURVE",
"257 -4 CURVE",
"293 -4 LINE",
"363 -4 OFFCURVE",
"419 47 OFFCURVE",
"419 116 CURVE",
"289 116 LINE SMOOTH",
"225 116 OFFCURVE",
"197 135 OFFCURVE",
"197 196 CURVE SMOOTH",
"197 217 OFFCURVE",
"197 350 OFFCURVE",
"197 351 CURVE"
);
}
);
userData = {
com.schriftgestaltung.Glyphs.lastChange = "2021-09-23 22:46:30 +0000";
};
width = 672;
}
);
unicode = 0071;
},
{
glyphname = r;
lastChange = "2021-09-28 22:03:16 +0000";
layers = (
{
layerId = master01;
paths = (
{
closed = 1;
nodes = (
"90 0 LINE",
"216 0 LINE",
"216 362 LINE",
"199 432 LINE",
"199 556 LINE",
"90 556 LINE"
);
},
{
closed = 1;
nodes = (
"438 432 LINE",
"438 563 LINE",
"365 563 LINE SMOOTH",
"266 563 OFFCURVE",
"238 513 OFFCURVE",
"216 432 CURVE",
"135 432 LINE",
"216 330 LINE",
"216 402 OFFCURVE",
"249 432 OFFCURVE",
"324 432 CURVE SMOOTH"
);
}
);
userData = {
com.schriftgestaltung.Glyphs.lastChange = "2021-09-23 21:36:30 +0000";
};
width = 473;
},
{
background = {
components = (
{
name = n;
transform = "{1, 0, 0, 1, -2, 0}";
}
);
};
layerId = "D1DD5D9A-50CC-400A-8230-704C313030E6";
paths = (
{
closed = 1;
nodes = (
"91 0 LINE",
"214 0 LINE",
"214 556 LINE",
"91 556 LINE"
);
},
{
closed = 1;
nodes = (
"436 435 LINE",
"436 563 LINE",
"381 563 LINE SMOOTH",
"302 563 OFFCURVE",
"252 516 OFFCURVE",
"252 435 CURVE"
);
}
);
userData = {
com.schriftgestaltung.Glyphs.lastChange = "2021-09-23 21:36:30 +0000";
};
width = 471;
}
);
leftMetricsKey = n;
unicode = 0072;
},
{
glyphname = s;
lastChange = "2021-09-29 20:41:11 +0000";
layers = (
{
layerId = master01;
paths = (
{
closed = 1;
nodes = (
"59 392 LINE SMOOTH",
"59 280 OFFCURVE",
"115 257 OFFCURVE",
"189 244 CURVE SMOOTH",
"352 216 LINE SMOOTH",
"409 206 OFFCURVE",
"418 195 OFFCURVE",
"418 163 CURVE SMOOTH",
"418 131 OFFCURVE",
"406 120 OFFCURVE",
"349 120 CURVE SMOOTH",
"80 120 LINE",
"80 0 LINE",
"364 0 LINE SMOOTH",
"470 0 OFFCURVE",
"526 53 OFFCURVE",
"526 157 CURVE SMOOTH",
"526 194 LINE SMOOTH",
"526 288 OFFCURVE",
"470 314 OFFCURVE",
"404 324 CURVE SMOOTH",
"226 352 LINE SMOOTH",
"174 360 OFFCURVE",
"167 376 OFFCURVE",
"167 400 CURVE SMOOTH",
"167 425 OFFCURVE",
"179 436 OFFCURVE",
"224 436 CURVE SMOOTH",
"492 436 LINE",
"492 556 LINE",
"219 556 LINE SMOOTH",
"115 556 OFFCURVE",
"59 500 OFFCURVE",
"59 429 CURVE SMOOTH"
);
}
);
userData = {
com.schriftgestaltung.Glyphs.lastChange = "2021-09-23 23:17:49 +0000";
};
width = 587;
},
{
background = {
paths = (
{
closed = 1;
nodes = (
"59 392 LINE SMOOTH",
"59 280 OFFCURVE",
"115 257 OFFCURVE",
"189 244 CURVE SMOOTH",
"352 216 LINE SMOOTH",
"409 206 OFFCURVE",
"418 195 OFFCURVE",
"418 163 CURVE SMOOTH",
"418 131 OFFCURVE",
"406 120 OFFCURVE",
"349 120 CURVE SMOOTH",
"80 120 LINE",
"80 0 LINE",
"364 0 LINE SMOOTH",
"470 0 OFFCURVE",
"526 53 OFFCURVE",
"526 157 CURVE SMOOTH",
"526 194 LINE SMOOTH",
"526 288 OFFCURVE",
"470 314 OFFCURVE",
"404 324 CURVE SMOOTH",
"226 352 LINE SMOOTH",
"174 360 OFFCURVE",
"167 376 OFFCURVE",
"167 400 CURVE SMOOTH",
"167 425 OFFCURVE",
"179 436 OFFCURVE",
"224 436 CURVE SMOOTH",
"492 436 LINE",
"492 556 LINE",
"219 556 LINE SMOOTH",
"115 556 OFFCURVE",
"59 500 OFFCURVE",
"59 429 CURVE SMOOTH"
);
}
);
};
layerId = "D1DD5D9A-50CC-400A-8230-704C313030E6";
paths = (
{
closed = 1;
nodes = (
"61 279 OFFCURVE",
"117 257 OFFCURVE",
"189 244 CURVE SMOOTH",
"352 216 LINE SMOOTH",
"409 206 OFFCURVE",
"418 195 OFFCURVE",
"418 163 CURVE SMOOTH",
"418 131 OFFCURVE",
"406 120 OFFCURVE",
"349 120 CURVE SMOOTH",
"80 120 LINE",
"80 0 LINE",
"364 0 LINE SMOOTH",
"470 0 OFFCURVE",
"526 53 OFFCURVE",
"526 157 CURVE SMOOTH",
"526 194 LINE SMOOTH",
"526 288 OFFCURVE",
"470 314 OFFCURVE",
"404 324 CURVE SMOOTH",
"226 352 LINE SMOOTH",
"186 358 OFFCURVE",
"173 369 OFFCURVE",
"169 385 CURVE",
"59 385 LINE"
);
},
{
closed = 1;
nodes = (
"492 436 LINE",
"492 556 LINE",
"219 556 LINE SMOOTH",
"118 556 OFFCURVE",
"62 503 OFFCURVE",
"59 436 CURVE"
);
}
);
userData = {
com.schriftgestaltung.Glyphs.lastChange = "2021-09-23 23:17:49 +0000";
};
width = 587;
}
);
unicode = 0073;
},
{
glyphname = t;
lastChange = "2021-09-29 20:12:32 +0000";
layers = (
{
layerId = master01;
paths = (
{
closed = 1;
nodes = (
"40 436 LINE",
"417 436 LINE",
"417 556 LINE",
"40 556 LINE"
);
},
{
closed = 1;
nodes = (
"132 136 LINE SMOOTH",
"132 42 OFFCURVE",
"178 -4 OFFCURVE",
"271 -4 CURVE SMOOTH",
"406 -4 LINE",
"406 115 LINE",
"317 115 LINE SMOOTH",
"277 115 OFFCURVE",
"256 136 OFFCURVE",
"256 180 CURVE SMOOTH",
"256 674 LINE",
"132 674 LINE"
);
}
);
userData = {
com.schriftgestaltung.Glyphs.lastChange = "2021-09-23 23:21:16 +0000";
};
width = 463;
},
{
layerId = "D1DD5D9A-50CC-400A-8230-704C313030E6";
paths = (
{
closed = 1;
nodes = (
"40 436 LINE",
"417 436 LINE",
"417 556 LINE",
"40 556 LINE"
);
},
{
closed = 1;
nodes = (
"132 136 LINE SMOOTH",
"132 42 OFFCURVE",
"178 -4 OFFCURVE",
"271 -4 CURVE SMOOTH",
"406 -4 LINE",
"406 116 LINE",
"316 116 LINE SMOOTH",
"276 116 OFFCURVE",
"255 137 OFFCURVE",
"255 181 CURVE SMOOTH",
"255 387 LINE",
"132 387 LINE"
);
},
{
closed = 1;
nodes = (
"255 674 LINE",
"132 674 LINE",
"132 455 LINE",
"255 455 LINE"
);
}
);
userData = {
com.schriftgestaltung.Glyphs.lastChange = "2021-09-23 23:21:16 +0000";
};
width = 463;
}
);
unicode = 0074;
},
{
glyphname = u;
lastChange = "2021-09-28 22:03:16 +0000";
layers = (
{
anchors = (
{
name = bottom;
position = "{330, 0}";
},
{
name = ogonek;
position = "{593, 10}";
},
{
name = top;
position = "{325, 556}";
},
{
name = topright;
position = "{639, 556}";
}
);
layerId = master01;
paths = (
{
closed = 1;
nodes = (
"569 559 LINE",
"446 559 LINE",
"446 197 LINE",
"460 127 LINE",
"465 0 LINE",
"569 0 LINE"
);
},
{
closed = 1;
nodes = (
"203 559 LINE",
"80 559 LINE",
"80 179 LINE SMOOTH",
"80 65 OFFCURVE",
"135 0 OFFCURVE",
"237 0 CURVE SMOOTH",
"286 0 LINE SMOOTH",
"387 0 OFFCURVE",
"423 52 OFFCURVE",
"443 127 CURVE",
"460 127 LINE",
"446 238 LINE",
"446 157 OFFCURVE",
"391 127 OFFCURVE",
"312 127 CURVE SMOOTH",
"236 127 OFFCURVE",
"203 157 OFFCURVE",
"203 238 CURVE"
);
}
);
userData = {
com.schriftgestaltung.Glyphs.lastChange = "2021-09-27 05:59:14 +0000";
};
width = 659;
},
{
anchors = (
{
name = bottom;
position = "{330, 0}";
},
{
name = ogonek;
position = "{593, 10}";
},
{
name = top;
position = "{325, 556}";
},
{
name = topright;
position = "{639, 556}";
}
);
background = {
anchors = (
{
name = bottom;
position = "{277, 0}";
},
{
name = bottom_;
position = "{289, -4}";
},
{
name = top;
position = "{300, 556}";
}
);
paths = (
{
closed = 1;
nodes = (
"569 559 LINE",
"446 559 LINE",
"446 197 LINE",
"460 127 LINE",
"465 0 LINE",
"569 0 LINE"
);
},
{
closed = 1;
nodes = (
"203 559 LINE",
"80 559 LINE",
"80 179 LINE SMOOTH",
"80 65 OFFCURVE",
"135 0 OFFCURVE",
"237 0 CURVE SMOOTH",
"286 0 LINE SMOOTH",
"387 0 OFFCURVE",
"423 52 OFFCURVE",
"443 127 CURVE",
"460 127 LINE",
"446 238 LINE",
"446 157 OFFCURVE",
"391 127 OFFCURVE",
"312 127 CURVE SMOOTH",
"236 127 OFFCURVE",
"203 157 OFFCURVE",
"203 238 CURVE"
);
}
);
};
layerId = "D1DD5D9A-50CC-400A-8230-704C313030E6";
paths = (
{
closed = 1;
nodes = (
"569 559 LINE",
"446 559 LINE",
"446 0 LINE",
"569 0 LINE"
);
},
{
closed = 1;
nodes = (
"306 117 LINE",
"236 117 OFFCURVE",
"202 151 OFFCURVE",
"202 230 CURVE SMOOTH",
"202 556 LINE",
"79 556 LINE",
"79 176 LINE SMOOTH",
"79 58 OFFCURVE",
"137 -3 OFFCURVE",
"258 -3 CURVE SMOOTH",
"260 -3 LINE SMOOTH",
"350 -3 OFFCURVE",
"406 48 OFFCURVE",
"406 117 CURVE"
);
}
);
userData = {
com.schriftgestaltung.Glyphs.lastChange = "2021-09-27 05:59:14 +0000";
};
width = 659;
}
);
unicode = 0075;
},
{
color = 9;
glyphname = v;
lastChange = "2021-09-29 20:39:11 +0000";
layers = (
{
layerId = master01;
paths = (
{
closed = 1;
nodes = (
"221 0 LINE",
"413 0 LINE",
"601 556 LINE",
"470 556 LINE",
"336 119 LINE",
"309 119 LINE",
"170 556 LINE",
"36 556 LINE"
);
}
);
userData = {
com.schriftgestaltung.Glyphs.lastChange = "2021-09-23 23:25:26 +0000";
};
width = 637;
},
{
background = {
paths = (
{
closed = 1;
nodes = (
"221 0 LINE",
"413 0 LINE",
"601 556 LINE",
"470 556 LINE",
"336 119 LINE",
"309 119 LINE",
"170 556 LINE",
"36 556 LINE"
);
}
);
};
layerId = "D1DD5D9A-50CC-400A-8230-704C313030E6";
paths = (
{
closed = 1;
nodes = (
"309 119 LINE",
"170 556 LINE",
"36 556 LINE",
"221 0 LINE",
"413 0 LINE",
"453 119 LINE"
);
},
{
closed = 1;
nodes = (
"601 556 LINE",
"470 556 LINE",
"351 169 LINE",
"469 169 LINE"
);
}
);
userData = {
com.schriftgestaltung.Glyphs.lastChange = "2021-09-23 23:25:26 +0000";
};
width = 637;
}
);
unicode = 0076;
},
{
color = 9;
glyphname = w;
lastChange = "2021-09-29 20:39:20 +0000";
layers = (
{
layerId = master01;
paths = (
{
closed = 1;
nodes = (
"176 0 LINE",
"360 0 LINE",
"450 432 LINE",
"471 432 LINE",
"561 0 LINE",
"740 0 LINE",
"884 556 LINE",
"763 556 LINE",
"662 110 LINE",
"708 124 LINE",
"592 124 LINE",
"647 110 LINE",
"547 556 LINE",
"374 556 LINE",
"276 110 LINE",
"331 124 LINE",
"215 124 LINE",
"262 110 LINE",
"159 556 LINE",
"36 556 LINE"
);
}
);
userData = {
com.schriftgestaltung.Glyphs.lastChange = "2021-09-23 23:25:13 +0000";
};
width = 920;
},
{
background = {
paths = (
{
closed = 1;
nodes = (
"276 110 LINE",
"331 124 LINE",
"215 124 LINE",
"262 110 LINE",
"159 556 LINE",
"36 556 LINE",
"176 0 LINE",
"360 0 LINE",
"441 387 LINE",
"337 387 LINE"
);
},
{
closed = 1;
nodes = (
"450 432 LINE",
"471 432 LINE",
"561 0 LINE",
"740 0 LINE",
"884 556 LINE",
"763 556 LINE",
"662 110 LINE",
"708 124 LINE",
"592 124 LINE",
"647 110 LINE",
"547 556 LINE",
"374 556 LINE",
"344 419 LINE",
"447 419 LINE"
);
}
);
};
layerId = "D1DD5D9A-50CC-400A-8230-704C313030E6";
paths = (
{
closed = 1;
nodes = (
"176 0 LINE",
"360 0 LINE",
"440 382 LINE",
"336 382 LINE",
"279 124 LINE",
"259 124 LINE",
"159 556 LINE",
"36 556 LINE"
);
},
{
closed = 1;
nodes = (
"644 124 LINE",
"547 556 LINE",
"374 556 LINE",
"347 432 LINE",
"471 432 LINE",
"561 0 LINE",
"740 0 LINE",
"773 124 LINE"
);
},
{
closed = 1;
nodes = (
"884 556 LINE",
"763 556 LINE",
"677 174 LINE",
"785 174 LINE"
);
}
);
userData = {
com.schriftgestaltung.Glyphs.lastChange = "2021-09-23 23:25:13 +0000";
};
width = 920;
}
);
leftMetricsKey = v;
rightMetricsKey = v;
unicode = 0077;
},
{
glyphname = x;
lastChange = "2021-09-29 20:50:07 +0000";
layers = (
{
layerId = master01;
paths = (
{
closed = 1;
nodes = (
"155 0 LINE",
"273 227 LINE",
"290 227 LINE",
"417 0 LINE",
"558 0 LINE",
"367 319 LINE",
"365 248 LINE",
"546 556 LINE",
"420 556 LINE",
"290 340 LINE",
"273 340 LINE",
"154 556 LINE",
"16 556 LINE",
"197 248 LINE",
"195 319 LINE",
"11 0 LINE"
);
}
);
userData = {
com.schriftgestaltung.Glyphs.lastChange = "2021-09-24 01:16:01 +0000";
};
width = 569;
},
{
background = {
paths = (
{
closed = 1;
nodes = (
"155 0 LINE",
"273 227 LINE",
"290 227 LINE",
"417 0 LINE",
"558 0 LINE",
"367 319 LINE",
"365 248 LINE",
"546 556 LINE",
"420 556 LINE",
"290 340 LINE",
"273 340 LINE",
"154 556 LINE",
"16 556 LINE",
"197 248 LINE",
"195 319 LINE",
"11 0 LINE"
);
}
);
};
layerId = "D1DD5D9A-50CC-400A-8230-704C313030E6";
paths = (
{
closed = 1;
nodes = (
"417 0 LINE",
"558 0 LINE",
"452 177 LINE",
"319 177 LINE"
);
},
{
closed = 1;
nodes = (
"154 556 LINE",
"16 556 LINE",
"114 390 LINE",
"245 390 LINE"
);
},
{
closed = 1;
nodes = (
"155 0 LINE",
"273 227 LINE",
"422 227 LINE",
"387 285 LINE",
"546 556 LINE",
"420 556 LINE",
"290 340 LINE",
"144 340 LINE",
"175 285 LINE",
"11 0 LINE"
);
}
);
userData = {
com.schriftgestaltung.Glyphs.lastChange = "2021-09-24 01:16:01 +0000";
};
width = 569;
},
{
associatedMasterId = "D1DD5D9A-50CC-400A-8230-704C313030E6";
layerId = "0E608DFF-A859-44EF-9CC2-71BA4B4B4763";
name = "Sep 29 21, 22:15";
paths = (
{
closed = 1;
nodes = (
"313 227 LINE",
"430 0 LINE",
"571 0 LINE",
"390 319 LINE",
"388 248 LINE",
"559 556 LINE",
"433 556 LINE",
"313 340 LINE"
);
},
{
closed = 1;
nodes = (
"263 340 LINE",
"154 556 LINE",
"16 556 LINE",
"187 248 LINE",
"185 319 LINE",
"11 0 LINE",
"155 0 LINE",
"263 227 LINE"
);
}
);
userData = {
com.schriftgestaltung.Glyphs.lastChange = "2021-09-24 01:16:01 +0000";
};
width = 582;
},
{
associatedMasterId = "D1DD5D9A-50CC-400A-8230-704C313030E6";
background = {
paths = (
{
closed = 1;
nodes = (
"155 0 LINE",
"273 227 LINE",
"290 227 LINE",
"417 0 LINE",
"558 0 LINE",
"367 319 LINE",
"365 248 LINE",
"546 556 LINE",
"420 556 LINE",
"290 340 LINE",
"273 340 LINE",
"154 556 LINE",
"16 556 LINE",
"197 248 LINE",
"195 319 LINE",
"11 0 LINE"
);
}
);
};
layerId = "C3C12E21-3D16-4C7D-99B1-C228E2E41394";
name = "Sep 29 21, 22:47";
paths = (
{
closed = 1;
nodes = (
"417 0 LINE",
"558 0 LINE",
"452 177 LINE",
"319 177 LINE"
);
},
{
closed = 1;
nodes = (
"154 556 LINE",
"16 556 LINE",
"114 390 LINE",
"245 390 LINE"
);
},
{
closed = 1;
nodes = (
"155 0 LINE",
"273 227 LINE",
"422 227 LINE",
"387 285 LINE",
"546 556 LINE",
"420 556 LINE",
"290 340 LINE",
"144 340 LINE",
"175 285 LINE",
"11 0 LINE"
);
}
);
userData = {
com.schriftgestaltung.Glyphs.lastChange = "2021-09-24 01:16:01 +0000";
};
width = 569;
},
{
associatedMasterId = "D1DD5D9A-50CC-400A-8230-704C313030E6";
background = {
paths = (
{
closed = 1;
nodes = (
"155 0 LINE",
"273 227 LINE",
"290 227 LINE",
"417 0 LINE",
"558 0 LINE",
"367 319 LINE",
"365 248 LINE",
"546 556 LINE",
"420 556 LINE",
"290 340 LINE",
"273 340 LINE",
"154 556 LINE",
"16 556 LINE",
"197 248 LINE",
"195 319 LINE",
"11 0 LINE"
);
}
);
};
layerId = "B8347D9C-40A6-4F25-A634-6975B299C1AD";
name = "Sep 29 21, 22:47";
paths = (
{
closed = 1;
nodes = (
"417 0 LINE",
"558 0 LINE",
"452 177 LINE",
"319 177 LINE"
);
},
{
closed = 1;
nodes = (
"154 556 LINE",
"16 556 LINE",
"114 390 LINE",
"245 390 LINE"
);
},
{
closed = 1;
nodes = (
"11 0 LINE",
"155 0 LINE",
"247 177 LINE",
"113 177 LINE"
);
},
{
closed = 1;
nodes = (
"546 556 LINE",
"420 556 LINE",
"320 390 LINE",
"449 390 LINE"
);
},
{
closed = 1;
nodes = (
"422 227 LINE",
"419 340 LINE",
"144 340 LINE",
"144 227 LINE"
);
}
);
userData = {
com.schriftgestaltung.Glyphs.lastChange = "2021-09-24 01:16:01 +0000";
};
width = 569;
},
{
associatedMasterId = "D1DD5D9A-50CC-400A-8230-704C313030E6";
background = {
paths = (
{
closed = 1;
nodes = (
"155 0 LINE",
"273 227 LINE",
"290 227 LINE",
"417 0 LINE",
"558 0 LINE",
"367 319 LINE",
"365 248 LINE",
"546 556 LINE",
"420 556 LINE",
"290 340 LINE",
"273 340 LINE",
"154 556 LINE",
"16 556 LINE",
"197 248 LINE",
"195 319 LINE",
"11 0 LINE"
);
}
);
};
layerId = "229C3326-3FE7-45D9-AD59-DEBC2FB238FA";
name = "Sep 29 21, 22:47";
paths = (
{
closed = 1;
nodes = (
"417 0 LINE",
"558 0 LINE",
"417 236 LINE",
"284 236 LINE"
);
},
{
closed = 1;
nodes = (
"154 556 LINE",
"16 556 LINE",
"114 390 LINE",
"245 390 LINE"
);
},
{
closed = 1;
nodes = (
"144 340 LINE",
"175 285 LINE",
"11 0 LINE",
"155 0 LINE",
"273 227 LINE",
"422 227 LINE",
"387 285 LINE",
"419 340 LINE"
);
},
{
closed = 1;
nodes = (
"546 556 LINE",
"420 556 LINE",
"320 390 LINE",
"449 390 LINE"
);
}
);
userData = {
com.schriftgestaltung.Glyphs.lastChange = "2021-09-24 01:16:01 +0000";
};
width = 569;
},
{
associatedMasterId = "D1DD5D9A-50CC-400A-8230-704C313030E6";
background = {
paths = (
{
closed = 1;
nodes = (
"155 0 LINE",
"273 227 LINE",
"290 227 LINE",
"417 0 LINE",
"558 0 LINE",
"367 319 LINE",
"365 248 LINE",
"546 556 LINE",
"420 556 LINE",
"290 340 LINE",
"273 340 LINE",
"154 556 LINE",
"16 556 LINE",
"197 248 LINE",
"195 319 LINE",
"11 0 LINE"
);
}
);
};
layerId = "BAED8938-79F9-4AF2-AAB0-EBEA2DBC7711";
name = "Sep 29 21, 22:49";
paths = (
{
closed = 1;
nodes = (
"417 0 LINE",
"558 0 LINE",
"452 177 LINE",
"319 177 LINE"
);
},
{
closed = 1;
nodes = (
"154 556 LINE",
"16 556 LINE",
"114 390 LINE",
"245 390 LINE"
);
},
{
closed = 1;
nodes = (
"155 0 LINE",
"273 227 LINE",
"422 227 LINE",
"387 285 LINE",
"546 556 LINE",
"420 556 LINE",
"290 340 LINE",
"144 340 LINE",
"175 285 LINE",
"11 0 LINE"
);
}
);
userData = {
com.schriftgestaltung.Glyphs.lastChange = "2021-09-24 01:16:01 +0000";
};
width = 569;
}
);
unicode = 0078;
},
{
glyphname = y;
lastChange = "2021-09-29 20:39:53 +0000";
layers = (
{
layerId = master01;
paths = (
{
closed = 1;
nodes = (
"228 0 LINE",
"342 0 LINE",
"342 134 LINE",
"306 134 LINE",
"167 556 LINE",
"36 556 LINE"
);
},
{
closed = 1;
nodes = (
"596 556 LINE",
"463 556 LINE",
"291 -39 LINE SMOOTH",
"279 -79 OFFCURVE",
"255 -97 OFFCURVE",
"216 -97 CURVE",
"111 -97 LINE",
"111 -210 LINE",
"216 -210 LINE SMOOTH",
"320 -210 OFFCURVE",
"369 -165 OFFCURVE",
"411 -28 CURVE SMOOTH"
);
}
);
userData = {
com.schriftgestaltung.Glyphs.lastChange = "2021-09-24 01:15:34 +0000";
};
width = 632;
},
{
layerId = "D1DD5D9A-50CC-400A-8230-704C313030E6";
paths = (
{
closed = 1;
nodes = (
"275 -83 OFFCURVE",
"252 -97 OFFCURVE",
"216 -97 CURVE SMOOTH",
"111 -97 LINE",
"111 -210 LINE",
"216 -210 LINE SMOOTH",
"314 -210 OFFCURVE",
"364 -171 OFFCURVE",
"404 -50 CURVE",
"288 -50 LINE"
);
},
{
closed = 1;
nodes = (
"420 0 LINE",
"596 556 LINE",
"463 556 LINE",
"341 134 LINE",
"306 134 LINE",
"167 556 LINE",
"36 556 LINE",
"228 0 LINE"
);
}
);
userData = {
com.schriftgestaltung.Glyphs.lastChange = "2021-09-24 01:15:34 +0000";
};
width = 632;
}
);
leftMetricsKey = v;
rightMetricsKey = v;
unicode = 0079;
},
{
glyphname = z;
lastChange = "2021-09-29 20:40:23 +0000";
layers = (
{
layerId = master01;
paths = (
{
closed = 1;
nodes = (
"485 105 LINE",
"178 105 LINE",
"178 116 LINE",
"477 437 LINE",
"477 556 LINE",
"33 556 LINE",
"33 451 LINE",
"333 451 LINE",
"333 440 LINE",
"31 119 LINE",
"31 0 LINE",
"485 0 LINE"
);
}
);
userData = {
com.schriftgestaltung.Glyphs.lastChange = "2021-09-14 06:24:52 +0000";
};
width = 514;
},
{
background = {
paths = (
{
closed = 1;
nodes = (
"485 105 LINE",
"178 105 LINE",
"178 116 LINE",
"477 437 LINE",
"477 451 LINE",
"477 556 LINE",
"33 556 LINE",
"33 451 LINE",
"333 451 LINE",
"333 440 LINE",
"31 119 LINE",
"31 0 LINE",
"485 0 LINE"
);
}
);
};
layerId = "D1DD5D9A-50CC-400A-8230-704C313030E6";
paths = (
{
closed = 1;
nodes = (
"31 119 LINE",
"31 0 LINE",
"485 0 LINE",
"485 105 LINE",
"178 105 LINE",
"178 116 LINE",
"443 401 LINE",
"296 401 LINE"
);
},
{
closed = 1;
nodes = (
"477 451 LINE",
"477 556 LINE",
"33 556 LINE",
"33 451 LINE"
);
}
);
userData = {
com.schriftgestaltung.Glyphs.lastChange = "2021-09-14 06:24:52 +0000";
};
width = 514;
}
);
unicode = 007A;
},
{
color = 9;
glyphname = zero;
lastChange = "2021-09-29 21:38:10 +0000";
layers = (
{
layerId = master01;
paths = (
{
closed = 1;
nodes = (
"662 528 LINE",
"662 675 OFFCURVE",
"598 758 OFFCURVE",
"462 758 CURVE SMOOTH",
"259 758 LINE SMOOTH",
"123 758 OFFCURVE",
"58 675 OFFCURVE",
"58 528 CURVE SMOOTH",
"58 228 LINE SMOOTH",
"58 81 OFFCURVE",
"123 -2 OFFCURVE",
"259 -2 CURVE SMOOTH",
"461 -2 LINE SMOOTH",
"598 -2 OFFCURVE",
"662 81 OFFCURVE",
"662 228 CURVE SMOOTH"
);
},
{
closed = 1;
nodes = (
"307 122 LINE",
"213 122 OFFCURVE",
"178 159 OFFCURVE",
"178 249 CURVE SMOOTH",
"178 507 LINE SMOOTH",
"178 597 OFFCURVE",
"213 634 OFFCURVE",
"307 634 CURVE SMOOTH",
"423 634 LINE SMOOTH",
"507 634 OFFCURVE",
"542 597 OFFCURVE",
"542 507 CURVE SMOOTH",
"542 249 LINE SMOOTH",
"542 159 OFFCURVE",
"507 122 OFFCURVE",
"423 122 CURVE SMOOTH"
);
},
{
closed = 1;
nodes = (
"139 160 LINE",
"230 92 LINE",
"583 576 LINE",
"492 643 LINE"
);
}
);
userData = {
com.schriftgestaltung.Glyphs.lastChange = "2021-09-27 01:18:20 +0000";
};
width = 720;
},
{
background = {
paths = (
{
closed = 1;
nodes = (
"662 528 LINE",
"662 675 OFFCURVE",
"598 758 OFFCURVE",
"462 758 CURVE SMOOTH",
"259 758 LINE SMOOTH",
"123 758 OFFCURVE",
"58 675 OFFCURVE",
"58 528 CURVE SMOOTH",
"58 228 LINE SMOOTH",
"58 81 OFFCURVE",
"123 -2 OFFCURVE",
"259 -2 CURVE SMOOTH",
"461 -2 LINE SMOOTH",
"598 -2 OFFCURVE",
"662 81 OFFCURVE",
"662 228 CURVE SMOOTH"
);
},
{
closed = 1;
nodes = (
"307 122 LINE",
"213 122 OFFCURVE",
"178 159 OFFCURVE",
"178 249 CURVE SMOOTH",
"178 507 LINE SMOOTH",
"178 597 OFFCURVE",
"213 634 OFFCURVE",
"307 634 CURVE SMOOTH",
"423 634 LINE SMOOTH",
"507 634 OFFCURVE",
"542 597 OFFCURVE",
"542 507 CURVE SMOOTH",
"542 249 LINE SMOOTH",
"542 159 OFFCURVE",
"507 122 OFFCURVE",
"423 122 CURVE SMOOTH"
);
},
{
closed = 1;
nodes = (
"139 160 LINE",
"230 92 LINE",
"583 576 LINE",
"492 643 LINE"
);
}
);
};
guideLines = (
{
angle = 233.8068;
position = "{330, 421}";
},
{
position = "{463, 172}";
}
);
layerId = "D1DD5D9A-50CC-400A-8230-704C313030E6";
paths = (
{
closed = 1;
nodes = (
"434 122 OFFCURVE",
"428 122 OFFCURVE",
"423 122 CURVE",
"252 122 LINE",
"542 534 LINE",
"542 172 LINE",
"658 172 LINE",
"661 189 OFFCURVE",
"662 208 OFFCURVE",
"662 228 CURVE SMOOTH",
"662 528 LINE SMOOTH",
"662 632 OFFCURVE",
"630 705 OFFCURVE",
"562 738 CURVE SMOOTH",
"535 751 OFFCURVE",
"501 758 OFFCURVE",
"462 758 CURVE SMOOTH",
"259 758 LINE SMOOTH",
"160 758 OFFCURVE",
"99 714 OFFCURVE",
"73 634 CURVE",
"296 634 LINE SMOOTH",
"299 634 OFFCURVE",
"303 634 OFFCURVE",
"307 634 CURVE",
"485 634 LINE",
"178 199 LINE",
"178 583 LINE",
"62 583 LINE",
"59 566 OFFCURVE",
"58 547 OFFCURVE",
"58 528 CURVE SMOOTH",
"58 228 LINE SMOOTH",
"58 81 OFFCURVE",
"123 -2 OFFCURVE",
"259 -2 CURVE SMOOTH",
"461 -2 LINE SMOOTH",
"560 -2 OFFCURVE",
"621 42 OFFCURVE",
"647 122 CURVE",
"439 122 LINE SMOOTH"
);
}
);
userData = {
com.schriftgestaltung.Glyphs.lastChange = "2021-09-27 01:18:20 +0000";
};
width = 720;
}
);
unicode = 0030;
},
{
color = 6;
glyphname = one;
lastChange = "2021-09-29 21:49:59 +0000";
layers = (
{
layerId = master01;
paths = (
{
closed = 1;
nodes = (
"314 755 LINE",
"314 -1 LINE",
"444 -1 LINE",
"444 755 LINE"
);
},
{
closed = 1;
nodes = (
"314 755 LINE",
"125 755 LINE",
"125 632 LINE",
"314 632 LINE"
);
},
{
closed = 1;
nodes = (
"82 -2 LINE",
"648 -1 LINE",
"648 125 LINE",
"82 124 LINE"
);
}
);
userData = {
com.schriftgestaltung.Glyphs.lastChange = "2021-09-27 01:28:12 +0000";
};
width = 720;
},
{
background = {
paths = (
{
closed = 1;
nodes = (
"354 755 LINE",
"354 -1 LINE",
"484 -1 LINE",
"484 755 LINE"
);
},
{
closed = 1;
nodes = (
"354 755 LINE",
"331 714 OFFCURVE",
"219 644 OFFCURVE",
"115 644 CURVE",
"115 521 LINE",
"214 521 OFFCURVE",
"325 557 OFFCURVE",
"354 595 CURVE"
);
},
{
closed = 1;
nodes = (
"122 -2 LINE",
"688 -1 LINE",
"688 127 LINE",
"122 126 LINE"
);
}
);
};
layerId = "D1DD5D9A-50CC-400A-8230-704C313030E6";
paths = (
{
closed = 1;
nodes = (
"354 -1 LINE",
"484 -1 LINE",
"484 582 LINE",
"354 582 LINE"
);
},
{
closed = 1;
nodes = (
"354 755 LINE",
"165 755 LINE",
"165 632 LINE",
"354 632 LINE"
);
},
{
closed = 1;
nodes = (
"122 -2 LINE",
"688 -1 LINE",
"688 127 LINE",
"122 126 LINE"
);
},
{
closed = 1;
nodes = (
"484 755 LINE",
"354 755 LINE",
"354 632 LINE",
"484 632 LINE"
);
}
);
userData = {
com.schriftgestaltung.Glyphs.lastChange = "2021-09-27 01:28:12 +0000";
};
width = 720;
}
);
unicode = 0031;
},
{
color = 9;
glyphname = two;
lastChange = "2021-09-29 21:49:47 +0000";
layers = (
{
background = {
components = (
{
name = S;
transform = "{-1, 0, 0, 1, 720, 0}";
}
);
};
layerId = master01;
paths = (
{
closed = 1;
nodes = (
"70 1 LINE",
"204 1 LINE",
"204 97 LINE",
"204 146 LINE",
"600 480 LINE SMOOTH",
"632 507 OFFCURVE",
"639 536 OFFCURVE",
"639 578 CURVE SMOOTH",
"639 603 LINE SMOOTH",
"639 702 OFFCURVE",
"576 759 OFFCURVE",
"455 759 CURVE SMOOTH",
"261 759 LINE SMOOTH",
"137 759 OFFCURVE",
"75 702 OFFCURVE",
"75 603 CURVE SMOOTH",
"75 508 LINE",
"200 508 LINE",
"200 571 LINE SMOOTH",
"200 617 OFFCURVE",
"233 634 OFFCURVE",
"279 634 CURVE SMOOTH",
"433 634 LINE SMOOTH",
"469 634 OFFCURVE",
"514 626 OFFCURVE",
"514 589 CURVE SMOOTH",
"514 558 OFFCURVE",
"505 550 OFFCURVE",
"485 533 CURVE SMOOTH",
"70 184 LINE"
);
},
{
closed = 1;
nodes = (
"137 0 LINE",
"637 0 LINE",
"637 126 LINE",
"167 126 LINE"
);
}
);
userData = {
com.schriftgestaltung.Glyphs.lastChange = "2021-09-27 01:26:30 +0000";
};
width = 720;
},
{
background = {
paths = (
{
closed = 1;
nodes = (
"147 1 LINE",
"147 0 LINE",
"647 0 LINE",
"647 130 LINE",
"223 130 LINE",
"293 234 OFFCURVE",
"651 354 OFFCURVE",
"651 528 CURVE SMOOTH",
"651 603 LINE SMOOTH",
"651 702 OFFCURVE",
"588 759 OFFCURVE",
"465 759 CURVE SMOOTH",
"271 759 LINE SMOOTH",
"147 759 OFFCURVE",
"85 702 OFFCURVE",
"85 603 CURVE SMOOTH",
"85 508 LINE",
"210 508 LINE",
"210 571 LINE SMOOTH",
"210 617 OFFCURVE",
"243 634 OFFCURVE",
"289 634 CURVE SMOOTH",
"443 634 LINE SMOOTH",
"507 634 OFFCURVE",
"527 613 OFFCURVE",
"527 560 CURVE SMOOTH",
"527 411 OFFCURVE",
"86 286 OFFCURVE",
"80 129 CURVE SMOOTH",
"80 128 OFFCURVE",
"80 127 OFFCURVE",
"80 126 CURVE SMOOTH",
"80 1 LINE"
);
}
);
};
guideLines = (
{
position = "{349, 180}";
}
);
layerId = "D1DD5D9A-50CC-400A-8230-704C313030E6";
paths = (
{
closed = 1;
nodes = (
"147 1 LINE",
"147 0 LINE",
"647 0 LINE",
"647 130 LINE",
"80 130 LINE",
"80 1 LINE"
);
},
{
closed = 1;
nodes = (
"251 180 LINE",
"604 480 LINE SMOOTH",
"636 507 OFFCURVE",
"649 536 OFFCURVE",
"649 578 CURVE SMOOTH",
"649 603 LINE SMOOTH",
"649 702 OFFCURVE",
"586 759 OFFCURVE",
"465 759 CURVE SMOOTH",
"271 759 LINE SMOOTH",
"147 759 OFFCURVE",
"85 702 OFFCURVE",
"85 603 CURVE SMOOTH",
"85 508 LINE",
"210 508 LINE",
"210 571 LINE SMOOTH",
"210 617 OFFCURVE",
"243 634 OFFCURVE",
"289 634 CURVE SMOOTH",
"443 634 LINE SMOOTH",
"479 634 OFFCURVE",
"524 626 OFFCURVE",
"524 589 CURVE SMOOTH",
"524 558 OFFCURVE",
"515 550 OFFCURVE",
"495 533 CURVE SMOOTH",
"80 184 LINE",
"80 180 LINE"
);
}
);
userData = {
com.schriftgestaltung.Glyphs.lastChange = "2021-09-27 01:26:30 +0000";
};
width = 720;
}
);
unicode = 0032;
},
{
color = 9;
glyphname = three;
lastChange = "2021-09-29 21:48:51 +0000";
layers = (
{
background = {
components = (
{
name = nine;
transform = "{1, 0, 0, 1, -7, 0}";
}
);
};
layerId = master01;
paths = (
{
closed = 1;
nodes = (
"87 -1 LINE",
"428 0 LINE",
"572 0 OFFCURVE",
"641 88 OFFCURVE",
"641 196 CURVE",
"641 264 LINE",
"641 378 OFFCURVE",
"585 428 OFFCURVE",
"456 428 CURVE SMOOTH",
"377 428 LINE",
"614 604 LINE",
"614 755 LINE",
"84 755 LINE",
"84 629 LINE",
"453 629 LINE",
"453 613 LINE",
"186 413 LINE",
"186 329 LINE",
"424 329 LINE",
"501 329 OFFCURVE",
"513 303 OFFCURVE",
"513 233 CURVE SMOOTH",
"513 155 OFFCURVE",
"474 125 OFFCURVE",
"394 125 CURVE",
"87 125 LINE"
);
}
);
userData = {
com.schriftgestaltung.Glyphs.lastChange = "2021-09-27 01:24:17 +0000";
};
width = 720;
},
{
background = {
paths = (
{
closed = 1;
nodes = (
"191 413 LINE",
"191 329 LINE",
"359 329 LINE",
"456 329 OFFCURVE",
"498 299 OFFCURVE",
"498 234 CURVE SMOOTH",
"498 156 OFFCURVE",
"459 126 OFFCURVE",
"359 126 CURVE",
"72 126 LINE",
"72 -1 LINE",
"413 0 LINE",
"557 0 OFFCURVE",
"626 88 OFFCURVE",
"626 196 CURVE",
"626 264 LINE",
"626 378 OFFCURVE",
"570 428 OFFCURVE",
"441 428 CURVE SMOOTH",
"373 428 LINE",
"585 593 LINE",
"432 593 LINE"
);
},
{
closed = 1;
nodes = (
"599 628 LINE",
"599 755 LINE",
"69 755 LINE",
"69 628 LINE"
);
}
);
};
layerId = "D1DD5D9A-50CC-400A-8230-704C313030E6";
paths = (
{
closed = 1;
nodes = (
"191 413 LINE",
"191 329 LINE",
"409 329 LINE",
"486 329 OFFCURVE",
"498 299 OFFCURVE",
"498 234 CURVE SMOOTH",
"498 156 OFFCURVE",
"479 126 OFFCURVE",
"379 126 CURVE",
"72 126 LINE",
"72 -1 LINE",
"423 0 LINE",
"567 0 OFFCURVE",
"626 88 OFFCURVE",
"626 196 CURVE",
"626 264 LINE",
"626 378 OFFCURVE",
"570 428 OFFCURVE",
"441 428 CURVE SMOOTH",
"373 428 LINE",
"566 578 LINE",
"403 578 LINE"
);
},
{
closed = 1;
nodes = (
"599 628 LINE",
"599 755 LINE",
"69 755 LINE",
"69 628 LINE"
);
}
);
userData = {
com.schriftgestaltung.Glyphs.lastChange = "2021-09-27 01:24:17 +0000";
};
width = 720;
}
);
unicode = 0033;
},
{
glyphname = four;
lastChange = "2021-09-29 21:52:58 +0000";
layers = (
{
layerId = master01;
paths = (
{
closed = 1;
nodes = (
"347 762 LINE",
"43 309 LINE",
"43 169 LINE",
"444 169 LINE",
"444 6 LINE",
"569 6 LINE",
"569 169 LINE",
"668 169 LINE",
"668 289 LINE",
"569 289 LINE",
"569 762 LINE"
);
},
{
closed = 1;
nodes = (
"427 679 LINE",
"444 679 LINE",
"444 289 LINE",
"165 289 LINE"
);
}
);
userData = {
com.schriftgestaltung.Glyphs.lastChange = "2021-09-27 01:24:58 +0000";
};
width = 720;
},
{
background = {
paths = (
{
closed = 1;
nodes = (
"327 762 LINE",
"23 309 LINE",
"23 169 LINE",
"424 169 LINE",
"424 6 LINE",
"549 6 LINE",
"549 169 LINE",
"648 169 LINE",
"648 289 LINE",
"549 289 LINE",
"549 762 LINE"
);
},
{
closed = 1;
nodes = (
"407 679 LINE",
"424 679 LINE",
"424 289 LINE",
"145 289 LINE"
);
}
);
};
layerId = "D1DD5D9A-50CC-400A-8230-704C313030E6";
paths = (
{
closed = 1;
nodes = (
"424 679 LINE",
"424 289 LINE",
"145 289 LINE",
"374 629 LINE",
"240 629 LINE",
"23 309 LINE",
"23 169 LINE",
"424 169 LINE",
"424 6 LINE",
"549 6 LINE",
"549 169 LINE",
"648 169 LINE",
"648 289 LINE",
"549 289 LINE",
"549 762 LINE",
"327 762 LINE",
"271 679 LINE"
);
}
);
userData = {
com.schriftgestaltung.Glyphs.lastChange = "2021-09-27 01:24:58 +0000";
};
width = 720;
}
);
unicode = 0034;
},
{
color = 6;
glyphname = five;
lastChange = "2021-09-29 21:55:11 +0000";
layers = (
{
background = {
paths = (
{
closed = 1;
nodes = (
"418 347 LINE SMOOTH",
"493 347 OFFCURVE",
"504 330 OFFCURVE",
"504 262 CURVE SMOOTH",
"504 231 LINE SMOOTH",
"504 148 OFFCURVE",
"483 126 OFFCURVE",
"408 126 CURVE SMOOTH",
"87 126 LINE",
"87 0 LINE",
"383 0 LINE SMOOTH",
"578 0 OFFCURVE",
"631 59 OFFCURVE",
"631 229 CURVE SMOOTH",
"631 292 LINE SMOOTH",
"631 409 OFFCURVE",
"568 472 OFFCURVE",
"440 472 CURVE SMOOTH",
"377 472 LINE SMOOTH",
"295 472 OFFCURVE",
"252 426 OFFCURVE",
"262 347 CURVE"
);
}
);
};
guideLines = (
{
position = "{592, 629}";
}
);
layerId = master01;
paths = (
{
closed = 1;
nodes = (
"418 347 LINE SMOOTH",
"483 347 OFFCURVE",
"504 330 OFFCURVE",
"504 262 CURVE SMOOTH",
"504 231 LINE SMOOTH",
"504 148 OFFCURVE",
"483 126 OFFCURVE",
"408 126 CURVE SMOOTH",
"87 126 LINE",
"87 0 LINE",
"383 0 LINE SMOOTH",
"578 0 OFFCURVE",
"631 59 OFFCURVE",
"631 229 CURVE SMOOTH",
"631 292 LINE SMOOTH",
"631 409 OFFCURVE",
"568 472 OFFCURVE",
"440 472 CURVE SMOOTH",
"377 472 LINE SMOOTH",
"307 472 OFFCURVE",
"266 447 OFFCURVE",
"234 400 CURVE",
"219 400 LINE",
"219 674 LINE",
"184 630 LINE",
"587 630 LINE",
"587 756 LINE",
"91 756 LINE",
"91 346 LINE"
);
}
);
userData = {
com.schriftgestaltung.Glyphs.lastChange = "2021-09-27 00:16:37 +0000";
};
width = 720;
},
{
background = {
components = (
{
name = G;
transform = "{-1, 0, 0, -1, 811, 474}";
}
);
};
guideLines = (
{
position = "{592, 629}";
}
);
layerId = "D1DD5D9A-50CC-400A-8230-704C313030E6";
paths = (
{
closed = 1;
nodes = (
"418 347 LINE SMOOTH",
"493 347 OFFCURVE",
"504 330 OFFCURVE",
"504 262 CURVE SMOOTH",
"504 231 LINE SMOOTH",
"504 148 OFFCURVE",
"483 126 OFFCURVE",
"408 126 CURVE SMOOTH",
"87 126 LINE",
"87 0 LINE",
"383 0 LINE SMOOTH",
"578 0 OFFCURVE",
"631 59 OFFCURVE",
"631 229 CURVE SMOOTH",
"631 292 LINE SMOOTH",
"631 409 OFFCURVE",
"568 472 OFFCURVE",
"440 472 CURVE SMOOTH",
"377 472 LINE SMOOTH",
"295 472 OFFCURVE",
"252 426 OFFCURVE",
"262 347 CURVE"
);
},
{
closed = 1;
nodes = (
"219 346 LINE",
"219 674 LINE",
"184 630 LINE",
"587 630 LINE",
"587 756 LINE",
"87 756 LINE",
"87 346 LINE"
);
}
);
userData = {
com.schriftgestaltung.Glyphs.lastChange = "2021-09-27 00:16:37 +0000";
};
width = 720;
}
);
unicode = 0035;
},
{
color = 9;
glyphname = six;
lastChange = "2021-09-29 21:57:11 +0000";
layers = (
{
background = {
components = (
{
name = O;
transform = "{1, 0, 0, 1, -4, 0}";
}
);
};
layerId = master01;
paths = (
{
closed = 1;
nodes = (
"215 250 LINE SMOOTH",
"215 327 OFFCURVE",
"250 357 OFFCURVE",
"309 357 CURVE SMOOTH",
"451 357 LINE SMOOTH",
"503 357 OFFCURVE",
"530 326 OFFCURVE",
"530 279 CURVE SMOOTH",
"530 199 LINE",
"530 152 OFFCURVE",
"508 125 OFFCURVE",
"457 125 CURVE SMOOTH",
"295 125 LINE",
"238 125 OFFCURVE",
"215 152 OFFCURVE",
"215 199 CURVE"
);
},
{
closed = 1;
nodes = (
"87 227 LINE",
"87 49 OFFCURVE",
"165 0 OFFCURVE",
"378 0 CURVE SMOOTH",
"586 0 OFFCURVE",
"652 48 OFFCURVE",
"652 245 CURVE",
"652 414 OFFCURVE",
"586 482 OFFCURVE",
"437 482 CURVE SMOOTH",
"393 482 LINE SMOOTH",
"288 482 OFFCURVE",
"252 426 OFFCURVE",
"232 370 CURVE",
"215 370 LINE",
"215 502 LINE SMOOTH",
"215 589 OFFCURVE",
"253 629 OFFCURVE",
"338 629 CURVE SMOOTH",
"590 629 LINE",
"590 756 LINE",
"315 756 LINE",
"153 756 OFFCURVE",
"87 675 OFFCURVE",
"87 528 CURVE SMOOTH"
);
}
);
userData = {
com.schriftgestaltung.Glyphs.lastChange = "2021-09-26 22:43:02 +0000";
};
width = 720;
},
{
background = {
components = (
{
name = five;
transform = "{1, 0, 0, 1, 3, 0}";
}
);
};
layerId = "D1DD5D9A-50CC-400A-8230-704C313030E6";
paths = (
{
closed = 1;
nodes = (
"215 502 LINE",
"215 589 OFFCURVE",
"253 630 OFFCURVE",
"338 630 CURVE SMOOTH",
"590 630 LINE",
"590 756 LINE",
"315 756 LINE",
"153 756 OFFCURVE",
"87 675 OFFCURVE",
"87 528 CURVE SMOOTH",
"87 227 LINE",
"87 49 OFFCURVE",
"165 0 OFFCURVE",
"378 0 CURVE SMOOTH",
"586 0 OFFCURVE",
"652 48 OFFCURVE",
"652 245 CURVE",
"652 404 OFFCURVE",
"586 472 OFFCURVE",
"447 472 CURVE SMOOTH",
"381 472 LINE SMOOTH",
"299 472 OFFCURVE",
"255 426 OFFCURVE",
"264 347 CURVE",
"451 347 LINE SMOOTH",
"513 347 OFFCURVE",
"530 316 OFFCURVE",
"530 269 CURVE SMOOTH",
"530 199 LINE",
"530 152 OFFCURVE",
"518 125 OFFCURVE",
"457 125 CURVE SMOOTH",
"295 125 LINE",
"238 125 OFFCURVE",
"215 152 OFFCURVE",
"215 199 CURVE"
);
}
);
userData = {
com.schriftgestaltung.Glyphs.lastChange = "2021-09-26 22:43:02 +0000";
};
width = 720;
}
);
unicode = 0036;
},
{
color = 9;
glyphname = seven;
lastChange = "2021-09-29 22:56:19 +0000";
layers = (
{
layerId = master01;
paths = (
{
closed = 1;
nodes = (
"294 0 LINE",
"658 649 LINE",
"658 756 LINE",
"87 756 LINE",
"87 630 LINE",
"577 630 LINE",
"527 675 LINE",
"142 0 LINE"
);
}
);
userData = {
com.schriftgestaltung.Glyphs.lastChange = "2021-09-27 01:16:58 +0000";
};
width = 720;
},
{
background = {
paths = (
{
closed = 1;
nodes = (
"294 0 LINE",
"658 649 LINE",
"658 756 LINE",
"87 756 LINE",
"87 630 LINE",
"577 630 LINE",
"527 675 LINE",
"142 0 LINE"
);
}
);
};
layerId = "D1DD5D9A-50CC-400A-8230-704C313030E6";
paths = (
{
closed = 1;
nodes = (
"142 0 LINE",
"294 0 LINE",
"619 580 LINE",
"472 580 LINE"
);
},
{
closed = 1;
nodes = (
"638 630 LINE",
"638 756 LINE",
"87 756 LINE",
"87 630 LINE"
);
}
);
userData = {
com.schriftgestaltung.Glyphs.lastChange = "2021-09-27 01:16:58 +0000";
};
width = 720;
}
);
unicode = 0037;
},
{
color = 6;
glyphname = eight;
lastChange = "2021-09-29 23:16:27 +0000";
layers = (
{
layerId = master01;
paths = (
{
closed = 1;
nodes = (
"75 528 LINE",
"75 442 OFFCURVE",
"113 405 OFFCURVE",
"202 405 CURVE",
"175 451 LINE",
"175 339 LINE",
"202 377 LINE",
"103 377 OFFCURVE",
"62 330 OFFCURVE",
"62 235 CURVE SMOOTH",
"62 160 LINE SMOOTH",
"62 57 OFFCURVE",
"139 0 OFFCURVE",
"276 0 CURVE SMOOTH",
"449 0 LINE SMOOTH",
"582 0 OFFCURVE",
"657 57 OFFCURVE",
"657 160 CURVE SMOOTH",
"657 235 LINE SMOOTH",
"657 340 OFFCURVE",
"614 377 OFFCURVE",
"503 377 CURVE",
"542 339 LINE",
"542 443 LINE",
"513 404 LINE",
"599 404 OFFCURVE",
"640 442 OFFCURVE",
"640 528 CURVE SMOOTH",
"640 596 LINE SMOOTH",
"640 699 OFFCURVE",
"573 756 OFFCURVE",
"454 756 CURVE SMOOTH",
"261 756 LINE SMOOTH",
"142 756 OFFCURVE",
"75 699 OFFCURVE",
"75 596 CURVE SMOOTH"
);
},
{
closed = 1;
nodes = (
"434 631 LINE",
"485 631 OFFCURVE",
"508 614 OFFCURVE",
"508 568 CURVE",
"508 515 LINE SMOOTH",
"508 468 OFFCURVE",
"485 451 OFFCURVE",
"434 451 CURVE SMOOTH",
"281 451 LINE",
"230 451 OFFCURVE",
"207 468 OFFCURVE",
"207 515 CURVE",
"207 567 LINE SMOOTH",
"207 614 OFFCURVE",
"230 631 OFFCURVE",
"281 631 CURVE"
);
},
{
closed = 1;
nodes = (
"445 334 LINE SMOOTH",
"496 334 OFFCURVE",
"526 316 OFFCURVE",
"525 270 CURVE SMOOTH",
"524 189 LINE SMOOTH",
"523 142 OFFCURVE",
"501 125 OFFCURVE",
"450 125 CURVE SMOOTH",
"263 125 LINE SMOOTH",
"214 125 OFFCURVE",
"198 142 OFFCURVE",
"197 189 CURVE SMOOTH",
"196 270 LINE SMOOTH",
"195 317 OFFCURVE",
"219 334 OFFCURVE",
"270 334 CURVE"
);
}
);
userData = {
com.schriftgestaltung.Glyphs.lastChange = "2021-09-26 23:52:22 +0000";
};
width = 720;
},
{
background = {
paths = (
{
closed = 1;
nodes = (
"218 621 OFFCURVE",
"241 631 OFFCURVE",
"281 631 CURVE",
"434 631 LINE",
"485 631 OFFCURVE",
"508 614 OFFCURVE",
"508 568 CURVE",
"508 515 LINE SMOOTH",
"508 468 OFFCURVE",
"485 451 OFFCURVE",
"434 451 CURVE SMOOTH",
"281 451 LINE",
"230 451 OFFCURVE",
"207 468 OFFCURVE",
"207 515 CURVE",
"207 567 LINE SMOOTH",
"207 577 OFFCURVE",
"208 586 OFFCURVE",
"210 594 CURVE",
"75 594 LINE",
"75 528 LINE",
"75 442 OFFCURVE",
"113 405 OFFCURVE",
"202 405 CURVE",
"175 451 LINE",
"175 339 LINE",
"202 377 LINE",
"103 377 OFFCURVE",
"62 330 OFFCURVE",
"62 235 CURVE SMOOTH",
"62 160 LINE SMOOTH",
"62 57 OFFCURVE",
"139 0 OFFCURVE",
"276 0 CURVE SMOOTH",
"449 0 LINE SMOOTH",
"582 0 OFFCURVE",
"657 57 OFFCURVE",
"657 160 CURVE SMOOTH",
"657 235 LINE SMOOTH",
"657 340 OFFCURVE",
"614 377 OFFCURVE",
"503 377 CURVE",
"542 339 LINE",
"542 443 LINE",
"513 404 LINE",
"599 404 OFFCURVE",
"640 442 OFFCURVE",
"640 528 CURVE SMOOTH",
"640 596 LINE SMOOTH",
"640 699 OFFCURVE",
"573 756 OFFCURVE",
"454 756 CURVE SMOOTH",
"261 756 LINE SMOOTH",
"156 756 OFFCURVE",
"92 712 OFFCURVE",
"78 631 CURVE SMOOTH",
"76 620 OFFCURVE",
"75 608 OFFCURVE",
"75 596 CURVE SMOOTH",
"75 594 LINE",
"210 594 LINE"
);
},
{
closed = 1;
nodes = (
"445 334 LINE SMOOTH",
"496 334 OFFCURVE",
"526 316 OFFCURVE",
"525 270 CURVE SMOOTH",
"524 189 LINE SMOOTH",
"523 142 OFFCURVE",
"501 125 OFFCURVE",
"450 125 CURVE SMOOTH",
"263 125 LINE SMOOTH",
"214 125 OFFCURVE",
"198 142 OFFCURVE",
"197 189 CURVE SMOOTH",
"196 270 LINE SMOOTH",
"195 317 OFFCURVE",
"219 334 OFFCURVE",
"270 334 CURVE"
);
}
);
};
layerId = "D1DD5D9A-50CC-400A-8230-704C313030E6";
paths = (
{
closed = 1;
nodes = (
"657 235 LINE SMOOTH",
"657 340 OFFCURVE",
"614 377 OFFCURVE",
"503 377 CURVE",
"542 339 LINE",
"542 443 LINE",
"513 404 LINE",
"599 404 OFFCURVE",
"640 442 OFFCURVE",
"640 528 CURVE SMOOTH",
"640 596 LINE SMOOTH",
"640 699 OFFCURVE",
"573 756 OFFCURVE",
"454 756 CURVE SMOOTH",
"261 756 LINE SMOOTH",
"156 756 OFFCURVE",
"92 712 OFFCURVE",
"78 631 CURVE",
"434 631 LINE",
"485 631 OFFCURVE",
"508 614 OFFCURVE",
"508 568 CURVE",
"508 515 LINE SMOOTH",
"508 468 OFFCURVE",
"485 451 OFFCURVE",
"434 451 CURVE SMOOTH",
"281 451 LINE",
"230 451 OFFCURVE",
"207 468 OFFCURVE",
"207 515 CURVE",
"207 581 LINE",
"75 581 LINE",
"75 528 LINE",
"75 442 OFFCURVE",
"113 405 OFFCURVE",
"202 405 CURVE",
"175 451 LINE",
"175 339 LINE",
"202 377 LINE",
"103 377 OFFCURVE",
"62 330 OFFCURVE",
"62 235 CURVE SMOOTH",
"62 160 LINE SMOOTH",
"62 57 OFFCURVE",
"139 0 OFFCURVE",
"276 0 CURVE SMOOTH",
"449 0 LINE SMOOTH",
"566 0 OFFCURVE",
"639 44 OFFCURVE",
"654 125 CURVE",
"263 125 LINE",
"214 125 OFFCURVE",
"198 142 OFFCURVE",
"197 189 CURVE SMOOTH",
"196 270 LINE SMOOTH",
"195 317 OFFCURVE",
"219 334 OFFCURVE",
"270 334 CURVE",
"445 334 LINE SMOOTH",
"496 334 OFFCURVE",
"526 316 OFFCURVE",
"525 270 CURVE",
"525 175 LINE",
"657 175 LINE"
);
}
);
userData = {
com.schriftgestaltung.Glyphs.lastChange = "2021-09-26 23:52:22 +0000";
};
width = 720;
}
);
unicode = 0038;
},
{
color = 9;
glyphname = nine;
lastChange = "2021-09-29 22:04:57 +0000";
layers = (
{
background = {
components = (
{
name = O;
transform = "{1, 0, 0, 1, -132, 0}";
}
);
};
layerId = master01;
paths = (
{
closed = 1;
nodes = (
"505 472 LINE SMOOTH",
"505 407 OFFCURVE",
"471 380 OFFCURVE",
"412 380 CURVE SMOOTH",
"264 380 LINE SMOOTH",
"212 380 OFFCURVE",
"190 407 OFFCURVE",
"190 454 CURVE SMOOTH",
"189 557 LINE SMOOTH",
"189 604 OFFCURVE",
"212 631 OFFCURVE",
"263 631 CURVE SMOOTH",
"427 631 LINE SMOOTH",
"482 631 OFFCURVE",
"505 604 OFFCURVE",
"505 557 CURVE"
);
},
{
closed = 1;
nodes = (
"633 521 LINE",
"633 691 OFFCURVE",
"554 756 OFFCURVE",
"388 756 CURVE SMOOTH",
"251 756 LINE SMOOTH",
"141 756 OFFCURVE",
"68 697 OFFCURVE",
"68 596 CURVE SMOOTH",
"68 416 LINE SMOOTH",
"68 313 OFFCURVE",
"131 255 OFFCURVE",
"281 255 CURVE SMOOTH",
"327 255 LINE SMOOTH",
"432 255 OFFCURVE",
"468 307 OFFCURVE",
"488 363 CURVE",
"505 363 LINE",
"505 254 LINE SMOOTH",
"505 160 OFFCURVE",
"455 127 OFFCURVE",
"369 127 CURVE SMOOTH",
"114 127 LINE",
"114 0 LINE",
"423 0 LINE SMOOTH",
"565 0 OFFCURVE",
"633 88 OFFCURVE",
"633 230 CURVE SMOOTH"
);
}
);
userData = {
com.schriftgestaltung.Glyphs.lastChange = "2021-09-26 22:38:38 +0000";
};
width = 720;
},
{
background = {
paths = (
{
closed = 0;
nodes = (
"450 756 LINE SMOOTH",
"560 756 OFFCURVE",
"633 697 OFFCURVE",
"633 596 CURVE SMOOTH"
);
}
);
};
layerId = "D1DD5D9A-50CC-400A-8230-704C313030E6";
paths = (
{
closed = 1;
nodes = (
"264 380 LINE",
"212 380 OFFCURVE",
"190 407 OFFCURVE",
"190 444 CURVE SMOOTH",
"189 557 LINE SMOOTH",
"189 604 OFFCURVE",
"210 631 OFFCURVE",
"251 631 CURVE SMOOTH",
"437 631 LINE SMOOTH",
"482 631 OFFCURVE",
"505 604 OFFCURVE",
"505 557 CURVE",
"505 254 LINE",
"505 160 OFFCURVE",
"465 125 OFFCURVE",
"379 125 CURVE SMOOTH",
"114 125 LINE",
"114 0 LINE",
"423 0 LINE SMOOTH",
"565 0 OFFCURVE",
"633 88 OFFCURVE",
"633 230 CURVE SMOOTH",
"633 596 LINE",
"633 697 OFFCURVE",
"560 756 OFFCURVE",
"450 756 CURVE SMOOTH",
"251 756 LINE SMOOTH",
"141 756 OFFCURVE",
"68 697 OFFCURVE",
"68 596 CURVE SMOOTH",
"68 416 LINE SMOOTH",
"68 313 OFFCURVE",
"131 255 OFFCURVE",
"281 255 CURVE SMOOTH",
"337 255 LINE",
"423 255 OFFCURVE",
"465 301 OFFCURVE",
"456 380 CURVE"
);
}
);
userData = {
com.schriftgestaltung.Glyphs.lastChange = "2021-09-26 22:38:38 +0000";
};
width = 720;
}
);
unicode = 0039;
},
{
glyphname = colon;
lastChange = "2021-09-28 22:03:16 +0000";
layers = (
{
layerId = master01;
paths = (
{
closed = 1;
nodes = (
"195 0 LINE",
"195 145 LINE",
"50 145 LINE",
"50 0 LINE"
);
},
{
closed = 1;
nodes = (
"50 411 LINE",
"195 411 LINE",
"195 557 LINE",
"50 557 LINE"
);
}
);
userData = {
com.schriftgestaltung.Glyphs.lastChange = "2021-09-28 04:54:42 +0000";
};
width = 245;
},
{
layerId = "D1DD5D9A-50CC-400A-8230-704C313030E6";
paths = (
{
closed = 1;
nodes = (
"195 0 LINE",
"195 145 LINE",
"50 145 LINE",
"50 0 LINE"
);
},
{
closed = 1;
nodes = (
"50 411 LINE",
"195 411 LINE",
"195 557 LINE",
"50 557 LINE"
);
}
);
userData = {
com.schriftgestaltung.Glyphs.lastChange = "2021-09-28 04:54:42 +0000";
};
width = 245;
}
);
unicode = 003A;
},
{
glyphname = uni0308;
lastChange = "2021-09-28 22:03:16 +0000";
layers = (
{
anchors = (
{
name = _top;
position = "{0, 556}";
}
);
layerId = master01;
paths = (
{
closed = 1;
nodes = (
"-200 640 LINE",
"-80 640 LINE",
"-80 760 LINE",
"-200 760 LINE"
);
},
{
closed = 1;
nodes = (
"80 640 LINE",
"200 640 LINE",
"200 760 LINE",
"80 760 LINE"
);
}
);
userData = {
com.schriftgestaltung.Glyphs.lastChange = "2021-09-27 06:23:20 +0000";
};
width = 0;
},
{
anchors = (
{
name = _top;
position = "{0, 556}";
}
);
layerId = "D1DD5D9A-50CC-400A-8230-704C313030E6";
paths = (
{
closed = 1;
nodes = (
"-200 640 LINE",
"-80 640 LINE",
"-80 760 LINE",
"-200 760 LINE"
);
},
{
closed = 1;
nodes = (
"80 640 LINE",
"200 640 LINE",
"200 760 LINE",
"80 760 LINE"
);
}
);
userData = {
com.schriftgestaltung.Glyphs.lastChange = "2021-09-27 06:23:20 +0000";
};
width = 0;
}
);
unicode = 0308;
},
{
glyphname = acutecomb;
lastChange = "2021-09-29 21:24:39 +0000";
layers = (
{
anchors = (
{
name = _top;
position = "{0, 556}";
}
);
layerId = master01;
paths = (
{
closed = 1;
nodes = (
"-138 639 LINE",
"185 721 LINE",
"149 839 LINE",
"-165 735 LINE"
);
}
);
userData = {
com.schriftgestaltung.Glyphs.lastChange = "2021-09-27 06:22:15 +0000";
};
width = 0;
},
{
anchors = (
{
name = _top;
position = "{0, 556}";
}
);
layerId = "D1DD5D9A-50CC-400A-8230-704C313030E6";
paths = (
{
closed = 1;
nodes = (
"-129 614 LINE",
"185 751 LINE",
"119 881 LINE",
"-172 704 LINE"
);
}
);
userData = {
com.schriftgestaltung.Glyphs.lastChange = "2021-09-27 06:22:15 +0000";
};
width = 0;
}
);
unicode = 0301;
},
{
glyphname = tildecomb;
lastChange = "2021-09-29 21:24:06 +0000";
layers = (
{
anchors = (
{
name = _top;
position = "{316, 556}";
},
{
name = top;
position = "{316, 826}";
}
);
layerId = master01;
paths = (
{
closed = 1;
nodes = (
"191 641 LINE",
"191 688 LINE SMOOTH",
"191 711 OFFCURVE",
"202 725 OFFCURVE",
"230 725 CURVE SMOOTH",
"274 725 OFFCURVE",
"346 647 OFFCURVE",
"421 647 CURVE SMOOTH",
"497 647 OFFCURVE",
"530 672 OFFCURVE",
"530 754 CURVE SMOOTH",
"530 817 LINE",
"443 817 LINE",
"443 788 LINE SMOOTH",
"443 759 OFFCURVE",
"434 747 OFFCURVE",
"409 747 CURVE SMOOTH",
"363 747 OFFCURVE",
"292 825 OFFCURVE",
"217 825 CURVE SMOOTH",
"138 825 OFFCURVE",
"104 788 OFFCURVE",
"104 692 CURVE SMOOTH",
"104 641 LINE"
);
}
);
userData = {
com.schriftgestaltung.Glyphs.lastChange = "2021-09-27 05:08:20 +0000";
};
width = 587;
},
{
anchors = (
{
name = _top;
position = "{316, 556}";
},
{
name = top;
position = "{316, 826}";
}
);
layerId = "D1DD5D9A-50CC-400A-8230-704C313030E6";
paths = (
{
closed = 1;
nodes = (
"191 634 LINE",
"191 675 LINE SMOOTH",
"191 698 OFFCURVE",
"202 712 OFFCURVE",
"230 712 CURVE SMOOTH",
"274 712 OFFCURVE",
"346 640 OFFCURVE",
"411 640 CURVE SMOOTH",
"497 640 OFFCURVE",
"530 672 OFFCURVE",
"530 754 CURVE SMOOTH",
"530 817 LINE",
"443 817 LINE",
"443 794 LINE SMOOTH",
"443 765 OFFCURVE",
"434 753 OFFCURVE",
"409 753 CURVE SMOOTH",
"363 753 OFFCURVE",
"292 825 OFFCURVE",
"227 825 CURVE SMOOTH",
"138 825 OFFCURVE",
"104 788 OFFCURVE",
"104 692 CURVE SMOOTH",
"104 634 LINE"
);
}
);
userData = {
com.schriftgestaltung.Glyphs.lastChange = "2021-09-27 05:08:20 +0000";
};
width = 587;
}
);
unicode = 0303;
},
{
glyphname = idotless;
lastChange = "2021-09-28 22:03:16 +0000";
layers = (
{
anchors = (
{
name = bottom;
position = "{149, 0}";
},
{
name = ogonek;
position = "{268, 10}";
},
{
name = top;
position = "{154, 556}";
}
);
layerId = master01;
paths = (
{
closed = 1;
nodes = (
"91 0 LINE",
"217 0 LINE",
"217 556 LINE",
"91 556 LINE"
);
}
);
userData = {
com.schriftgestaltung.Glyphs.lastChange = "2021-09-27 06:10:10 +0000";
};
width = 298;
},
{
anchors = (
{
name = bottom;
position = "{149, 0}";
},
{
name = ogonek;
position = "{268, 10}";
},
{
name = top;
position = "{154, 556}";
}
);
layerId = "D1DD5D9A-50CC-400A-8230-704C313030E6";
paths = (
{
closed = 1;
nodes = (
"91 0 LINE",
"217 0 LINE",
"217 556 LINE",
"91 556 LINE"
);
}
);
userData = {
com.schriftgestaltung.Glyphs.lastChange = "2021-09-27 06:10:10 +0000";
};
width = 298;
}
);
unicode = 0131;
},
{
glyphname = iacute;
lastChange = "2021-09-28 22:27:34 +0000";
layers = (
{
components = (
{
name = idotless;
},
{
name = acutecomb;
transform = "{1, 0, 0, 1, 154, 0}";
}
);
layerId = master01;
userData = {
com.schriftgestaltung.Glyphs.lastChange = "2021-09-27 06:22:00 +0000";
};
width = 298;
},
{
anchors = (
{
name = _top;
position = "{152, 556}";
}
);
components = (
{
name = idotless;
}
);
layerId = "D1DD5D9A-50CC-400A-8230-704C313030E6";
paths = (
{
closed = 1;
nodes = (
"95 614 LINE",
"344 717 LINE",
"278 847 LINE",
"52 704 LINE"
);
}
);
userData = {
com.schriftgestaltung.Glyphs.lastChange = "2021-09-27 06:22:00 +0000";
};
width = 298;
}
);
unicode = 00ED;
},
{
glyphname = period;
lastChange = "2021-09-28 22:03:16 +0000";
layers = (
{
layerId = master01;
paths = (
{
closed = 1;
nodes = (
"193 0 LINE",
"193 149 LINE",
"44 149 LINE",
"44 0 LINE"
);
}
);
userData = {
com.schriftgestaltung.Glyphs.lastChange = "2021-09-28 05:22:33 +0000";
};
width = 237;
},
{
layerId = "D1DD5D9A-50CC-400A-8230-704C313030E6";
paths = (
{
closed = 1;
nodes = (
"193 0 LINE",
"193 149 LINE",
"44 149 LINE",
"44 0 LINE"
);
}
);
userData = {
com.schriftgestaltung.Glyphs.lastChange = "2021-09-28 05:22:33 +0000";
};
width = 237;
}
);
unicode = 002E;
},
{
glyphname = comma;
lastChange = "2021-09-28 22:03:16 +0000";
layers = (
{
layerId = master01;
paths = (
{
closed = 1;
nodes = (
"162 -114 LINE",
"225 129 LINE",
"77 129 LINE",
"47 -114 LINE"
);
}
);
userData = {
com.schriftgestaltung.Glyphs.lastChange = "2021-09-28 05:20:42 +0000";
};
width = 264;
},
{
layerId = "D1DD5D9A-50CC-400A-8230-704C313030E6";
paths = (
{
closed = 1;
nodes = (
"162 -114 LINE",
"225 129 LINE",
"77 129 LINE",
"47 -114 LINE"
);
}
);
userData = {
com.schriftgestaltung.Glyphs.lastChange = "2021-09-28 05:20:42 +0000";
};
width = 264;
}
);
unicode = 002C;
},
{
glyphname = exclam;
lastChange = "2021-09-28 22:03:16 +0000";
layers = (
{
guideLines = (
{
position = "{-211, 696}";
}
);
layerId = master01;
paths = (
{
closed = 1;
nodes = (
"259 -3 LINE",
"259 129 LINE",
"128 129 LINE",
"128 -3 LINE"
);
},
{
closed = 1;
nodes = (
"131 216 LINE",
"257 216 LINE",
"271 696 LINE",
"117 696 LINE"
);
}
);
userData = {
com.schriftgestaltung.Glyphs.lastChange = "2021-09-28 04:58:51 +0000";
};
width = 388;
},
{
guideLines = (
{
position = "{-211, 696}";
}
);
layerId = "D1DD5D9A-50CC-400A-8230-704C313030E6";
paths = (
{
closed = 1;
nodes = (
"259 -3 LINE",
"259 129 LINE",
"128 129 LINE",
"128 -3 LINE"
);
},
{
closed = 1;
nodes = (
"131 216 LINE",
"257 216 LINE",
"271 696 LINE",
"117 696 LINE"
);
}
);
userData = {
com.schriftgestaltung.Glyphs.lastChange = "2021-09-28 04:58:51 +0000";
};
width = 388;
}
);
unicode = 0021;
},
{
glyphname = exclamdown;
lastChange = "2021-09-28 22:03:16 +0000";
layers = (
{
guideLines = (
{
position = "{-251, -164}";
},
{
position = "{-185, 429}";
}
);
layerId = master01;
paths = (
{
closed = 1;
nodes = (
"128 401 LINE",
"259 401 LINE",
"259 533 LINE",
"128 533 LINE"
);
},
{
closed = 1;
nodes = (
"271 -166 LINE",
"257 314 LINE",
"131 314 LINE",
"117 -166 LINE"
);
}
);
userData = {
com.schriftgestaltung.Glyphs.lastChange = "2021-09-28 04:58:39 +0000";
};
width = 388;
},
{
guideLines = (
{
position = "{-251, -164}";
},
{
position = "{-185, 429}";
}
);
layerId = "D1DD5D9A-50CC-400A-8230-704C313030E6";
paths = (
{
closed = 1;
nodes = (
"128 401 LINE",
"259 401 LINE",
"259 533 LINE",
"128 533 LINE"
);
},
{
closed = 1;
nodes = (
"271 -166 LINE",
"257 314 LINE",
"131 314 LINE",
"117 -166 LINE"
);
}
);
userData = {
com.schriftgestaltung.Glyphs.lastChange = "2021-09-28 04:58:39 +0000";
};
width = 388;
}
);
unicode = 00A1;
},
{
glyphname = question;
lastChange = "2021-09-29 20:09:30 +0000";
layers = (
{
layerId = master01;
paths = (
{
closed = 1;
nodes = (
"145 452 OFFCURVE",
"109 423 OFFCURVE",
"109 356 CURVE SMOOTH",
"109 324 OFFCURVE",
"109 227 OFFCURVE",
"109 204 CURVE",
"231 204 LINE",
"231 244 OFFCURVE",
"231 271 OFFCURVE",
"231 296 CURVE SMOOTH",
"231 321 OFFCURVE",
"243 332 OFFCURVE",
"271 332 CURVE SMOOTH",
"421 333 LINE SMOOTH",
"497 334 OFFCURVE",
"530 373 OFFCURVE",
"530 443 CURVE SMOOTH",
"530 595 LINE SMOOTH",
"530 671 OFFCURVE",
"497 704 OFFCURVE",
"421 704 CURVE SMOOTH",
"107 704 LINE",
"107 579 LINE",
"371 579 LINE SMOOTH",
"398 579 OFFCURVE",
"410 561 OFFCURVE",
"410 541 CURVE SMOOTH",
"410 521 OFFCURVE",
"410 508 OFFCURVE",
"410 495 CURVE SMOOTH",
"410 465 OFFCURVE",
"398 452 OFFCURVE",
"371 452 CURVE SMOOTH",
"215 452 LINE SMOOTH"
);
},
{
closed = 1;
nodes = (
"236 0 LINE",
"236 129 LINE",
"107 129 LINE",
"107 0 LINE"
);
}
);
userData = {
com.schriftgestaltung.Glyphs.lastChange = "2021-09-28 05:04:18 +0000";
};
width = 570;
},
{
layerId = "D1DD5D9A-50CC-400A-8230-704C313030E6";
paths = (
{
closed = 1;
nodes = (
"205 452 OFFCURVE",
"169 423 OFFCURVE",
"169 356 CURVE SMOOTH",
"169 324 OFFCURVE",
"169 227 OFFCURVE",
"169 204 CURVE",
"291 204 LINE",
"291 244 OFFCURVE",
"291 271 OFFCURVE",
"291 296 CURVE SMOOTH",
"291 321 OFFCURVE",
"303 332 OFFCURVE",
"331 332 CURVE SMOOTH",
"421 333 LINE SMOOTH",
"497 334 OFFCURVE",
"530 373 OFFCURVE",
"530 443 CURVE SMOOTH",
"530 595 LINE SMOOTH",
"530 671 OFFCURVE",
"497 704 OFFCURVE",
"421 704 CURVE SMOOTH",
"107 704 LINE",
"107 579 LINE",
"371 579 LINE SMOOTH",
"398 579 OFFCURVE",
"410 561 OFFCURVE",
"410 541 CURVE SMOOTH",
"410 521 OFFCURVE",
"410 508 OFFCURVE",
"410 495 CURVE SMOOTH",
"410 465 OFFCURVE",
"398 452 OFFCURVE",
"371 452 CURVE SMOOTH",
"275 452 LINE SMOOTH"
);
},
{
closed = 1;
nodes = (
"296 0 LINE",
"296 129 LINE",
"167 129 LINE",
"167 0 LINE"
);
}
);
userData = {
com.schriftgestaltung.Glyphs.lastChange = "2021-09-28 05:04:18 +0000";
};
width = 570;
}
);
unicode = 003F;
},
{
glyphname = questiondown;
lastChange = "2021-09-29 20:10:03 +0000";
layers = (
{
guideLines = (
{
position = "{571, -175}";
}
);
layerId = master01;
paths = (
{
closed = 1;
nodes = (
"425 77 OFFCURVE",
"461 106 OFFCURVE",
"461 173 CURVE SMOOTH",
"461 205 OFFCURVE",
"461 302 OFFCURVE",
"461 325 CURVE",
"339 325 LINE",
"339 285 OFFCURVE",
"339 258 OFFCURVE",
"339 233 CURVE SMOOTH",
"339 208 OFFCURVE",
"327 197 OFFCURVE",
"299 197 CURVE SMOOTH",
"149 196 LINE SMOOTH",
"73 195 OFFCURVE",
"40 156 OFFCURVE",
"40 86 CURVE SMOOTH",
"40 -66 LINE SMOOTH",
"40 -142 OFFCURVE",
"53 -175 OFFCURVE",
"129 -175 CURVE SMOOTH",
"463 -175 LINE",
"463 -50 LINE",
"199 -50 LINE SMOOTH",
"172 -50 OFFCURVE",
"160 -32 OFFCURVE",
"160 -12 CURVE SMOOTH",
"160 8 OFFCURVE",
"160 26 OFFCURVE",
"160 34 CURVE SMOOTH",
"160 64 OFFCURVE",
"172 77 OFFCURVE",
"199 77 CURVE SMOOTH",
"355 77 LINE SMOOTH"
);
},
{
closed = 1;
nodes = (
"334 529 LINE",
"334 400 LINE",
"463 400 LINE",
"463 529 LINE"
);
}
);
userData = {
com.schriftgestaltung.Glyphs.lastChange = "2021-09-28 05:04:13 +0000";
};
width = 570;
},
{
guideLines = (
{
position = "{571, -175}";
}
);
layerId = "D1DD5D9A-50CC-400A-8230-704C313030E6";
paths = (
{
closed = 1;
nodes = (
"375 252 OFFCURVE",
"411 281 OFFCURVE",
"411 348 CURVE SMOOTH",
"411 380 OFFCURVE",
"411 477 OFFCURVE",
"411 500 CURVE",
"289 500 LINE",
"289 460 OFFCURVE",
"289 433 OFFCURVE",
"289 408 CURVE SMOOTH",
"289 383 OFFCURVE",
"277 372 OFFCURVE",
"249 372 CURVE SMOOTH",
"149 371 LINE SMOOTH",
"73 370 OFFCURVE",
"40 331 OFFCURVE",
"40 261 CURVE SMOOTH",
"40 109 LINE SMOOTH",
"40 33 OFFCURVE",
"53 0 OFFCURVE",
"129 0 CURVE SMOOTH",
"463 0 LINE",
"463 125 LINE",
"199 125 LINE SMOOTH",
"172 125 OFFCURVE",
"160 143 OFFCURVE",
"160 163 CURVE SMOOTH",
"160 183 OFFCURVE",
"160 201 OFFCURVE",
"160 209 CURVE SMOOTH",
"160 239 OFFCURVE",
"172 252 OFFCURVE",
"199 252 CURVE SMOOTH",
"305 252 LINE SMOOTH"
);
},
{
closed = 1;
nodes = (
"284 704 LINE",
"284 575 LINE",
"413 575 LINE",
"413 704 LINE"
);
}
);
userData = {
com.schriftgestaltung.Glyphs.lastChange = "2021-09-28 05:04:13 +0000";
};
width = 570;
}
);
unicode = 00BF;
},
{
glyphname = periodcentered;
lastChange = "2021-09-28 22:03:16 +0000";
layers = (
{
layerId = master01;
paths = (
{
closed = 1;
nodes = (
"213 280 LINE",
"213 449 LINE",
"44 449 LINE",
"44 280 LINE"
);
}
);
userData = {
com.schriftgestaltung.Glyphs.lastChange = "2021-09-28 05:24:49 +0000";
};
width = 257;
},
{
layerId = "D1DD5D9A-50CC-400A-8230-704C313030E6";
paths = (
{
closed = 1;
nodes = (
"213 280 LINE",
"213 449 LINE",
"44 449 LINE",
"44 280 LINE"
);
}
);
userData = {
com.schriftgestaltung.Glyphs.lastChange = "2021-09-28 05:24:49 +0000";
};
width = 257;
}
);
unicode = 00B7;
},
{
glyphname = bullet;
lastChange = "2021-09-28 22:03:16 +0000";
layers = (
{
layerId = master01;
paths = (
{
closed = 1;
nodes = (
"282 248 LINE",
"282 470 LINE",
"60 470 LINE",
"60 248 LINE"
);
}
);
userData = {
com.schriftgestaltung.Glyphs.lastChange = "2021-09-28 05:25:36 +0000";
};
width = 342;
},
{
layerId = "D1DD5D9A-50CC-400A-8230-704C313030E6";
paths = (
{
closed = 1;
nodes = (
"282 248 LINE",
"282 470 LINE",
"60 470 LINE",
"60 248 LINE"
);
}
);
userData = {
com.schriftgestaltung.Glyphs.lastChange = "2021-09-28 05:25:36 +0000";
};
width = 342;
}
);
unicode = 2022;
},
{
glyphname = asterisk;
lastChange = "2021-09-28 22:03:16 +0000";
layers = (
{
layerId = master01;
paths = (
{
closed = 1;
nodes = (
"110 412 LINE",
"173 467 LINE",
"181 463 LINE",
"161 384 LINE",
"287 384 LINE",
"267 464 LINE",
"274 468 LINE",
"328 408 LINE",
"392 517 LINE",
"315 541 LINE",
"315 549 LINE",
"393 569 LINE",
"331 678 LINE",
"274 621 LINE",
"267 624 LINE",
"285 705 LINE",
"159 705 LINE",
"181 628 LINE",
"173 625 LINE",
"115 682 LINE",
"52 572 LINE",
"129 549 LINE",
"129 541 LINE",
"50 524 LINE"
);
}
);
userData = {
com.schriftgestaltung.Glyphs.lastChange = "2021-09-28 05:26:12 +0000";
};
width = 443;
},
{
layerId = "D1DD5D9A-50CC-400A-8230-704C313030E6";
paths = (
{
closed = 1;
nodes = (
"110 412 LINE",
"173 467 LINE",
"181 463 LINE",
"161 384 LINE",
"287 384 LINE",
"267 464 LINE",
"274 468 LINE",
"328 408 LINE",
"392 517 LINE",
"315 541 LINE",
"315 549 LINE",
"393 569 LINE",
"331 678 LINE",
"274 621 LINE",
"267 624 LINE",
"285 705 LINE",
"159 705 LINE",
"181 628 LINE",
"173 625 LINE",
"115 682 LINE",
"52 572 LINE",
"129 549 LINE",
"129 541 LINE",
"50 524 LINE"
);
}
);
userData = {
com.schriftgestaltung.Glyphs.lastChange = "2021-09-28 05:26:12 +0000";
};
width = 443;
}
);
unicode = 002A;
},
{
glyphname = numbersign;
lastChange = "2021-09-29 21:34:09 +0000";
layers = (
{
layerId = master01;
paths = (
{
closed = 1;
nodes = (
"190 0 LINE",
"316 0 LINE",
"316 719 LINE",
"190 719 LINE"
);
},
{
closed = 1;
nodes = (
"470 0 LINE",
"596 0 LINE",
"596 719 LINE",
"470 719 LINE"
);
},
{
closed = 1;
nodes = (
"59 566 LINE",
"59 440 LINE",
"728 441 LINE",
"728 567 LINE"
);
},
{
closed = 1;
nodes = (
"59 285 LINE",
"59 159 LINE",
"728 160 LINE",
"729 286 LINE"
);
}
);
userData = {
com.schriftgestaltung.Glyphs.lastChange = "2021-09-28 04:47:59 +0000";
};
width = 788;
},
{
layerId = "D1DD5D9A-50CC-400A-8230-704C313030E6";
paths = (
{
closed = 1;
nodes = (
"190 0 LINE",
"316 0 LINE",
"316 391 LINE",
"190 391 LINE"
);
},
{
closed = 1;
nodes = (
"470 0 LINE",
"596 0 LINE",
"596 391 LINE",
"470 391 LINE"
);
},
{
closed = 1;
nodes = (
"59 566 LINE",
"59 440 LINE",
"728 441 LINE",
"728 567 LINE"
);
},
{
closed = 1;
nodes = (
"59 285 LINE",
"59 159 LINE",
"728 160 LINE",
"729 286 LINE"
);
},
{
closed = 1;
nodes = (
"316 719 LINE",
"190 719 LINE",
"190 457 LINE",
"316 457 LINE"
);
},
{
closed = 1;
nodes = (
"596 719 LINE",
"470 719 LINE",
"470 457 LINE",
"596 457 LINE"
);
}
);
userData = {
com.schriftgestaltung.Glyphs.lastChange = "2021-09-28 04:47:59 +0000";
};
width = 788;
}
);
unicode = 0023;
},
{
glyphname = slash;
lastChange = "2021-09-28 22:03:16 +0000";
layers = (
{
layerId = master01;
paths = (
{
closed = 1;
nodes = (
"41 -148 LINE",
"167 -148 LINE",
"399 756 LINE",
"273 756 LINE"
);
}
);
userData = {
com.schriftgestaltung.Glyphs.lastChange = "2021-09-28 05:27:24 +0000";
};
width = 476;
},
{
layerId = "D1DD5D9A-50CC-400A-8230-704C313030E6";
paths = (
{
closed = 1;
nodes = (
"41 -148 LINE",
"167 -148 LINE",
"399 756 LINE",
"273 756 LINE"
);
}
);
userData = {
com.schriftgestaltung.Glyphs.lastChange = "2021-09-28 05:27:24 +0000";
};
width = 476;
}
);
unicode = 002F;
},
{
glyphname = backslash;
lastChange = "2021-09-28 22:03:16 +0000";
layers = (
{
layerId = master01;
paths = (
{
closed = 1;
nodes = (
"77 756 LINE",
"309 -148 LINE",
"435 -148 LINE",
"203 756 LINE"
);
}
);
userData = {
com.schriftgestaltung.Glyphs.lastChange = "2021-09-28 05:27:31 +0000";
};
width = 476;
},
{
layerId = "D1DD5D9A-50CC-400A-8230-704C313030E6";
paths = (
{
closed = 1;
nodes = (
"77 756 LINE",
"309 -148 LINE",
"435 -148 LINE",
"203 756 LINE"
);
}
);
userData = {
com.schriftgestaltung.Glyphs.lastChange = "2021-09-28 05:27:31 +0000";
};
width = 476;
}
);
unicode = 005C;
},
{
glyphname = questiondown.ss01;
lastChange = "2021-09-29 20:09:52 +0000";
layers = (
{
guideLines = (
{
position = "{571, -175}";
}
);
layerId = master01;
paths = (
{
closed = 1;
nodes = (
"425 77 OFFCURVE",
"461 106 OFFCURVE",
"461 173 CURVE SMOOTH",
"461 205 OFFCURVE",
"461 302 OFFCURVE",
"461 325 CURVE",
"339 325 LINE",
"339 285 OFFCURVE",
"339 258 OFFCURVE",
"339 233 CURVE SMOOTH",
"339 208 OFFCURVE",
"327 197 OFFCURVE",
"299 197 CURVE SMOOTH",
"149 196 LINE SMOOTH",
"73 195 OFFCURVE",
"40 156 OFFCURVE",
"40 86 CURVE SMOOTH",
"40 -66 LINE SMOOTH",
"40 -142 OFFCURVE",
"53 -175 OFFCURVE",
"129 -175 CURVE SMOOTH",
"463 -175 LINE",
"463 -50 LINE",
"199 -50 LINE SMOOTH",
"172 -50 OFFCURVE",
"160 -32 OFFCURVE",
"160 -12 CURVE SMOOTH",
"160 8 OFFCURVE",
"160 26 OFFCURVE",
"160 34 CURVE SMOOTH",
"160 64 OFFCURVE",
"172 77 OFFCURVE",
"199 77 CURVE SMOOTH",
"355 77 LINE SMOOTH"
);
},
{
closed = 1;
nodes = (
"334 529 LINE",
"334 400 LINE",
"463 400 LINE",
"463 529 LINE"
);
}
);
userData = {
com.schriftgestaltung.Glyphs.lastChange = "2021-09-28 05:04:13 +0000";
};
width = 570;
},
{
guideLines = (
{
position = "{571, -175}";
}
);
layerId = "D1DD5D9A-50CC-400A-8230-704C313030E6";
paths = (
{
closed = 1;
nodes = (
"375 77 OFFCURVE",
"411 106 OFFCURVE",
"411 173 CURVE SMOOTH",
"411 205 OFFCURVE",
"411 302 OFFCURVE",
"411 325 CURVE",
"289 325 LINE",
"289 285 OFFCURVE",
"289 258 OFFCURVE",
"289 233 CURVE SMOOTH",
"289 208 OFFCURVE",
"277 197 OFFCURVE",
"249 197 CURVE SMOOTH",
"149 196 LINE SMOOTH",
"73 195 OFFCURVE",
"40 156 OFFCURVE",
"40 86 CURVE SMOOTH",
"40 -66 LINE SMOOTH",
"40 -142 OFFCURVE",
"53 -175 OFFCURVE",
"129 -175 CURVE SMOOTH",
"463 -175 LINE",
"463 -50 LINE",
"199 -50 LINE SMOOTH",
"172 -50 OFFCURVE",
"160 -32 OFFCURVE",
"160 -12 CURVE SMOOTH",
"160 8 OFFCURVE",
"160 26 OFFCURVE",
"160 34 CURVE SMOOTH",
"160 64 OFFCURVE",
"172 77 OFFCURVE",
"199 77 CURVE SMOOTH",
"305 77 LINE SMOOTH"
);
},
{
closed = 1;
nodes = (
"284 529 LINE",
"284 400 LINE",
"413 400 LINE",
"413 529 LINE"
);
}
);
userData = {
com.schriftgestaltung.Glyphs.lastChange = "2021-09-28 05:04:13 +0000";
};
width = 570;
}
);
},
{
glyphname = parenleft;
lastChange = "2021-09-28 22:03:16 +0000";
layers = (
{
layerId = master01;
paths = (
{
closed = 1;
nodes = (
"307 -36 LINE SMOOTH",
"261 -36 OFFCURVE",
"231 -11 OFFCURVE",
"231 48 CURVE SMOOTH",
"231 573 LINE SMOOTH",
"231 638 OFFCURVE",
"261 677 OFFCURVE",
"307 677 CURVE SMOOTH",
"350 677 LINE",
"350 788 LINE",
"309 788 LINE SMOOTH",
"172 788 OFFCURVE",
"100 705 OFFCURVE",
"100 558 CURVE SMOOTH",
"100 84 LINE",
"100 -70 OFFCURVE",
"151 -147 OFFCURVE",
"309 -147 CURVE SMOOTH",
"350 -147 LINE",
"350 -36 LINE"
);
}
);
userData = {
com.schriftgestaltung.Glyphs.lastChange = "2021-09-28 05:10:29 +0000";
};
width = 410;
},
{
layerId = "D1DD5D9A-50CC-400A-8230-704C313030E6";
paths = (
{
closed = 1;
nodes = (
"307 -36 LINE SMOOTH",
"261 -36 OFFCURVE",
"231 -11 OFFCURVE",
"231 48 CURVE SMOOTH",
"231 573 LINE SMOOTH",
"231 638 OFFCURVE",
"261 677 OFFCURVE",
"307 677 CURVE SMOOTH",
"350 677 LINE",
"350 788 LINE",
"309 788 LINE SMOOTH",
"172 788 OFFCURVE",
"100 705 OFFCURVE",
"100 558 CURVE SMOOTH",
"100 84 LINE",
"100 -70 OFFCURVE",
"151 -147 OFFCURVE",
"309 -147 CURVE SMOOTH",
"350 -147 LINE",
"350 -36 LINE"
);
}
);
userData = {
com.schriftgestaltung.Glyphs.lastChange = "2021-09-28 05:10:29 +0000";
};
width = 410;
}
);
unicode = 0028;
},
{
glyphname = parenright;
lastChange = "2021-09-28 22:03:16 +0000";
layers = (
{
guideLines = (
{
angle = 90;
position = "{236, 144}";
}
);
layerId = master01;
paths = (
{
closed = 1;
nodes = (
"60 -147 LINE",
"101 -147 LINE SMOOTH",
"259 -147 OFFCURVE",
"310 -70 OFFCURVE",
"310 84 CURVE",
"310 558 LINE SMOOTH",
"310 705 OFFCURVE",
"238 788 OFFCURVE",
"101 788 CURVE SMOOTH",
"60 788 LINE",
"60 677 LINE",
"103 677 LINE SMOOTH",
"149 677 OFFCURVE",
"179 638 OFFCURVE",
"179 593 CURVE SMOOTH",
"179 28 LINE SMOOTH",
"179 -11 OFFCURVE",
"149 -36 OFFCURVE",
"103 -36 CURVE SMOOTH",
"60 -36 LINE"
);
}
);
userData = {
com.schriftgestaltung.Glyphs.lastChange = "2021-09-28 05:10:32 +0000";
};
width = 410;
},
{
guideLines = (
{
angle = 90;
position = "{236, 144}";
}
);
layerId = "D1DD5D9A-50CC-400A-8230-704C313030E6";
paths = (
{
closed = 1;
nodes = (
"60 -147 LINE",
"101 -147 LINE SMOOTH",
"259 -147 OFFCURVE",
"310 -70 OFFCURVE",
"310 84 CURVE",
"310 558 LINE SMOOTH",
"310 705 OFFCURVE",
"238 788 OFFCURVE",
"101 788 CURVE SMOOTH",
"60 788 LINE",
"60 677 LINE",
"103 677 LINE SMOOTH",
"149 677 OFFCURVE",
"179 638 OFFCURVE",
"179 593 CURVE SMOOTH",
"179 28 LINE SMOOTH",
"179 -11 OFFCURVE",
"149 -36 OFFCURVE",
"103 -36 CURVE SMOOTH",
"60 -36 LINE"
);
}
);
userData = {
com.schriftgestaltung.Glyphs.lastChange = "2021-09-28 05:10:32 +0000";
};
width = 410;
}
);
unicode = 0029;
},
{
glyphname = braceleft;
lastChange = "2021-09-28 22:03:16 +0000";
layers = (
{
guideLines = (
{
angle = 90;
position = "{446, 219}";
},
{
angle = 180.295;
position = "{721, 277}";
}
);
layerId = master01;
paths = (
{
closed = 1;
nodes = (
"411 778 LINE",
"320 778 LINE SMOOTH",
"212 778 OFFCURVE",
"164 733 OFFCURVE",
"163 576 CURVE SMOOTH",
"162 381 LINE",
"90 366 LINE",
"90 252 LINE",
"162 236 LINE",
"162 47 LINE SMOOTH",
"162 -99 OFFCURVE",
"211 -145 OFFCURVE",
"319 -145 CURVE SMOOTH",
"384 -145 LINE",
"384 -30 LINE",
"348 -30 LINE SMOOTH",
"303 -30 OFFCURVE",
"285 -4 OFFCURVE",
"285 47 CURVE SMOOTH",
"286 215 LINE SMOOTH",
"286 238 OFFCURVE",
"266 291 OFFCURVE",
"220 291 CURVE SMOOTH",
"192 291 LINE",
"192 327 LINE",
"220 327 LINE SMOOTH",
"266 327 OFFCURVE",
"286 363 OFFCURVE",
"286 402 CURVE SMOOTH",
"287 553 LINE SMOOTH",
"288 632 OFFCURVE",
"312 663 OFFCURVE",
"368 663 CURVE SMOOTH",
"411 663 LINE"
);
}
);
userData = {
com.schriftgestaltung.Glyphs.lastChange = "2021-09-28 05:13:00 +0000";
};
width = 486;
},
{
guideLines = (
{
angle = 90;
position = "{446, 219}";
},
{
angle = 180.295;
position = "{721, 277}";
}
);
layerId = "D1DD5D9A-50CC-400A-8230-704C313030E6";
paths = (
{
closed = 1;
nodes = (
"411 778 LINE",
"320 778 LINE SMOOTH",
"212 778 OFFCURVE",
"164 733 OFFCURVE",
"163 576 CURVE SMOOTH",
"162 381 LINE",
"90 366 LINE",
"90 252 LINE",
"162 236 LINE",
"162 47 LINE SMOOTH",
"162 -99 OFFCURVE",
"211 -145 OFFCURVE",
"319 -145 CURVE SMOOTH",
"384 -145 LINE",
"384 -30 LINE",
"348 -30 LINE SMOOTH",
"303 -30 OFFCURVE",
"285 -4 OFFCURVE",
"285 47 CURVE SMOOTH",
"286 215 LINE SMOOTH",
"286 238 OFFCURVE",
"266 291 OFFCURVE",
"220 291 CURVE SMOOTH",
"192 291 LINE",
"192 327 LINE",
"220 327 LINE SMOOTH",
"266 327 OFFCURVE",
"286 363 OFFCURVE",
"286 402 CURVE SMOOTH",
"287 553 LINE SMOOTH",
"288 632 OFFCURVE",
"312 663 OFFCURVE",
"368 663 CURVE SMOOTH",
"411 663 LINE"
);
}
);
userData = {
com.schriftgestaltung.Glyphs.lastChange = "2021-09-28 05:13:00 +0000";
};
width = 486;
}
);
unicode = 007B;
},
{
glyphname = braceright;
lastChange = "2021-09-28 22:03:16 +0000";
layers = (
{
guideLines = (
{
angle = 90;
position = "{418, 190}";
},
{
position = "{453, 275}";
}
);
layerId = master01;
paths = (
{
closed = 1;
nodes = (
"118 663 LINE SMOOTH",
"174 663 OFFCURVE",
"198 632 OFFCURVE",
"199 553 CURVE SMOOTH",
"200 402 LINE SMOOTH",
"200 363 OFFCURVE",
"220 327 OFFCURVE",
"266 327 CURVE SMOOTH",
"294 327 LINE",
"294 291 LINE",
"266 291 LINE SMOOTH",
"220 291 OFFCURVE",
"200 238 OFFCURVE",
"200 215 CURVE SMOOTH",
"201 47 LINE SMOOTH",
"201 -4 OFFCURVE",
"183 -30 OFFCURVE",
"138 -30 CURVE SMOOTH",
"102 -30 LINE",
"102 -145 LINE",
"167 -145 LINE SMOOTH",
"275 -145 OFFCURVE",
"324 -99 OFFCURVE",
"324 47 CURVE SMOOTH",
"324 236 LINE",
"396 252 LINE",
"396 366 LINE",
"324 381 LINE",
"323 576 LINE SMOOTH",
"322 733 OFFCURVE",
"274 778 OFFCURVE",
"166 778 CURVE SMOOTH",
"75 778 LINE",
"75 663 LINE"
);
}
);
userData = {
com.schriftgestaltung.Glyphs.lastChange = "2021-09-28 05:13:08 +0000";
};
width = 486;
},
{
guideLines = (
{
angle = 90;
position = "{418, 190}";
},
{
position = "{453, 275}";
}
);
layerId = "D1DD5D9A-50CC-400A-8230-704C313030E6";
paths = (
{
closed = 1;
nodes = (
"118 663 LINE SMOOTH",
"174 663 OFFCURVE",
"198 632 OFFCURVE",
"199 553 CURVE SMOOTH",
"200 402 LINE SMOOTH",
"200 363 OFFCURVE",
"220 327 OFFCURVE",
"266 327 CURVE SMOOTH",
"294 327 LINE",
"294 291 LINE",
"266 291 LINE SMOOTH",
"220 291 OFFCURVE",
"200 238 OFFCURVE",
"200 215 CURVE SMOOTH",
"201 47 LINE SMOOTH",
"201 -4 OFFCURVE",
"183 -30 OFFCURVE",
"138 -30 CURVE SMOOTH",
"102 -30 LINE",
"102 -145 LINE",
"167 -145 LINE SMOOTH",
"275 -145 OFFCURVE",
"324 -99 OFFCURVE",
"324 47 CURVE SMOOTH",
"324 236 LINE",
"396 252 LINE",
"396 366 LINE",
"324 381 LINE",
"323 576 LINE SMOOTH",
"322 733 OFFCURVE",
"274 778 OFFCURVE",
"166 778 CURVE SMOOTH",
"75 778 LINE",
"75 663 LINE"
);
}
);
userData = {
com.schriftgestaltung.Glyphs.lastChange = "2021-09-28 05:13:08 +0000";
};
width = 486;
}
);
unicode = 007D;
},
{
glyphname = bracketleft;
lastChange = "2021-09-28 22:03:16 +0000";
layers = (
{
layerId = master01;
paths = (
{
closed = 1;
nodes = (
"106 776 LINE",
"106 -147 LINE",
"236 -147 LINE",
"236 776 LINE"
);
},
{
closed = 1;
nodes = (
"106 663 LINE",
"316 663 LINE",
"316 776 LINE",
"106 776 LINE"
);
},
{
closed = 1;
nodes = (
"106 -147 LINE",
"316 -147 LINE",
"316 -34 LINE",
"106 -34 LINE"
);
}
);
userData = {
com.schriftgestaltung.Glyphs.lastChange = "2021-09-28 05:11:53 +0000";
};
width = 399;
},
{
layerId = "D1DD5D9A-50CC-400A-8230-704C313030E6";
paths = (
{
closed = 1;
nodes = (
"106 776 LINE",
"106 -147 LINE",
"236 -147 LINE",
"236 776 LINE"
);
},
{
closed = 1;
nodes = (
"106 663 LINE",
"316 663 LINE",
"316 776 LINE",
"106 776 LINE"
);
},
{
closed = 1;
nodes = (
"106 -147 LINE",
"316 -147 LINE",
"316 -34 LINE",
"106 -34 LINE"
);
}
);
userData = {
com.schriftgestaltung.Glyphs.lastChange = "2021-09-28 05:11:53 +0000";
};
width = 399;
}
);
unicode = 005B;
},
{
glyphname = bracketright;
lastChange = "2021-09-28 22:03:16 +0000";
layers = (
{
guideLines = (
{
angle = 90;
position = "{289, 97}";
}
);
layerId = master01;
paths = (
{
closed = 1;
nodes = (
"163 -147 LINE",
"289 -147 LINE",
"289 775 LINE",
"163 775 LINE"
);
},
{
closed = 1;
nodes = (
"83 775 LINE",
"83 662 LINE",
"289 662 LINE",
"289 775 LINE"
);
},
{
closed = 1;
nodes = (
"83 -34 LINE",
"83 -147 LINE",
"289 -147 LINE",
"289 -34 LINE"
);
}
);
userData = {
com.schriftgestaltung.Glyphs.lastChange = "2021-09-28 05:12:05 +0000";
};
width = 395;
},
{
guideLines = (
{
angle = 90;
position = "{289, 97}";
}
);
layerId = "D1DD5D9A-50CC-400A-8230-704C313030E6";
paths = (
{
closed = 1;
nodes = (
"163 -147 LINE",
"289 -147 LINE",
"289 775 LINE",
"163 775 LINE"
);
},
{
closed = 1;
nodes = (
"83 775 LINE",
"83 662 LINE",
"289 662 LINE",
"289 775 LINE"
);
},
{
closed = 1;
nodes = (
"83 -34 LINE",
"83 -147 LINE",
"289 -147 LINE",
"289 -34 LINE"
);
}
);
userData = {
com.schriftgestaltung.Glyphs.lastChange = "2021-09-28 05:12:05 +0000";
};
width = 395;
}
);
unicode = 005D;
},
{
glyphname = hyphen;
lastChange = "2021-09-28 22:03:16 +0000";
layers = (
{
guideLines = (
{
angle = 90;
position = "{370, 49}";
}
);
layerId = master01;
paths = (
{
closed = 1;
nodes = (
"370 221 LINE",
"370 350 LINE",
"58 350 LINE",
"58 221 LINE"
);
},
{
closed = 1;
nodes = (
"187 221 LINE",
"187 350 LINE",
"58 350 LINE",
"58 221 LINE"
);
}
);
userData = {
com.schriftgestaltung.Glyphs.lastChange = "2021-09-28 05:28:23 +0000";
};
width = 428;
},
{
guideLines = (
{
angle = 90;
position = "{370, 49}";
}
);
layerId = "D1DD5D9A-50CC-400A-8230-704C313030E6";
paths = (
{
closed = 1;
nodes = (
"370 221 LINE",
"370 350 LINE",
"58 350 LINE",
"58 221 LINE"
);
},
{
closed = 1;
nodes = (
"187 221 LINE",
"187 350 LINE",
"58 350 LINE",
"58 221 LINE"
);
}
);
userData = {
com.schriftgestaltung.Glyphs.lastChange = "2021-09-28 05:28:23 +0000";
};
width = 428;
}
);
unicode = 002D;
},
{
glyphname = endash;
lastChange = "2021-09-28 22:03:16 +0000";
layers = (
{
layerId = master01;
paths = (
{
closed = 1;
nodes = (
"548 191 LINE",
"548 320 LINE",
"58 320 LINE",
"58 191 LINE"
);
}
);
userData = {
com.schriftgestaltung.Glyphs.lastChange = "2021-09-28 05:29:19 +0000";
};
width = 606;
},
{
layerId = "D1DD5D9A-50CC-400A-8230-704C313030E6";
paths = (
{
closed = 1;
nodes = (
"548 191 LINE",
"548 320 LINE",
"58 320 LINE",
"58 191 LINE"
);
}
);
userData = {
com.schriftgestaltung.Glyphs.lastChange = "2021-09-28 05:29:19 +0000";
};
width = 606;
}
);
unicode = 2013;
},
{
glyphname = emdash;
lastChange = "2021-09-28 22:03:16 +0000";
layers = (
{
layerId = master01;
paths = (
{
closed = 1;
nodes = (
"1059 191 LINE",
"1059 320 LINE",
"58 320 LINE",
"58 191 LINE"
);
}
);
userData = {
com.schriftgestaltung.Glyphs.lastChange = "2021-09-28 05:29:26 +0000";
};
width = 1117;
},
{
layerId = "D1DD5D9A-50CC-400A-8230-704C313030E6";
paths = (
{
closed = 1;
nodes = (
"1059 191 LINE",
"1059 320 LINE",
"58 320 LINE",
"58 191 LINE"
);
}
);
userData = {
com.schriftgestaltung.Glyphs.lastChange = "2021-09-28 05:29:26 +0000";
};
width = 1117;
}
);
unicode = 2014;
},
{
glyphname = underscore;
lastChange = "2021-09-28 22:03:16 +0000";
layers = (
{
layerId = master01;
paths = (
{
closed = 1;
nodes = (
"497 -166 LINE",
"497 -37 LINE",
"50 -37 LINE",
"50 -166 LINE"
);
}
);
userData = {
com.schriftgestaltung.Glyphs.lastChange = "2021-09-26 14:16:57 +0000";
};
width = 547;
},
{
layerId = "D1DD5D9A-50CC-400A-8230-704C313030E6";
paths = (
{
closed = 1;
nodes = (
"497 -166 LINE",
"497 -37 LINE",
"50 -37 LINE",
"50 -166 LINE"
);
}
);
userData = {
com.schriftgestaltung.Glyphs.lastChange = "2021-09-26 14:16:57 +0000";
};
width = 547;
}
);
unicode = 005F;
},
{
glyphname = quotedblbase;
lastChange = "2021-09-28 22:03:16 +0000";
layers = (
{
layerId = master01;
paths = (
{
closed = 1;
nodes = (
"369 -114 LINE",
"454 129 LINE",
"320 129 LINE",
"254 -114 LINE"
);
},
{
closed = 1;
nodes = (
"155 -114 LINE",
"226 129 LINE",
"88 129 LINE",
"40 -114 LINE"
);
}
);
userData = {
com.schriftgestaltung.Glyphs.lastChange = "2021-09-28 05:34:00 +0000";
};
width = 504;
},
{
layerId = "D1DD5D9A-50CC-400A-8230-704C313030E6";
paths = (
{
closed = 1;
nodes = (
"369 -114 LINE",
"454 129 LINE",
"320 129 LINE",
"254 -114 LINE"
);
},
{
closed = 1;
nodes = (
"155 -114 LINE",
"226 129 LINE",
"88 129 LINE",
"40 -114 LINE"
);
}
);
userData = {
com.schriftgestaltung.Glyphs.lastChange = "2021-09-28 05:34:00 +0000";
};
width = 504;
}
);
unicode = 201E;
},
{
glyphname = quotedblleft;
lastChange = "2021-09-28 22:03:16 +0000";
layers = (
{
layerId = master01;
paths = (
{
closed = 1;
nodes = (
"40 451 LINE",
"170 451 LINE",
"206 699 LINE",
"97 699 LINE"
);
},
{
closed = 1;
nodes = (
"240 451 LINE",
"370 451 LINE",
"406 699 LINE",
"297 699 LINE"
);
}
);
userData = {
com.schriftgestaltung.Glyphs.lastChange = "2021-09-27 19:26:04 +0000";
};
width = 456;
},
{
layerId = "D1DD5D9A-50CC-400A-8230-704C313030E6";
paths = (
{
closed = 1;
nodes = (
"40 451 LINE",
"170 451 LINE",
"206 699 LINE",
"97 699 LINE"
);
},
{
closed = 1;
nodes = (
"240 451 LINE",
"370 451 LINE",
"406 699 LINE",
"297 699 LINE"
);
}
);
userData = {
com.schriftgestaltung.Glyphs.lastChange = "2021-09-27 19:26:04 +0000";
};
width = 456;
}
);
unicode = 201C;
},
{
glyphname = quotedblright;
lastChange = "2021-09-28 22:03:16 +0000";
layers = (
{
layerId = master01;
paths = (
{
closed = 1;
nodes = (
"216 698 LINE",
"86 698 LINE",
"50 449 LINE",
"159 450 LINE"
);
},
{
closed = 1;
nodes = (
"416 698 LINE",
"286 698 LINE",
"250 449 LINE",
"359 450 LINE"
);
}
);
userData = {
com.schriftgestaltung.Glyphs.lastChange = "2021-09-27 19:26:36 +0000";
};
width = 456;
},
{
layerId = "D1DD5D9A-50CC-400A-8230-704C313030E6";
paths = (
{
closed = 1;
nodes = (
"216 698 LINE",
"86 698 LINE",
"50 449 LINE",
"159 450 LINE"
);
},
{
closed = 1;
nodes = (
"416 698 LINE",
"286 698 LINE",
"250 449 LINE",
"359 450 LINE"
);
}
);
userData = {
com.schriftgestaltung.Glyphs.lastChange = "2021-09-27 19:26:36 +0000";
};
width = 456;
}
);
unicode = 201D;
},
{
glyphname = quoteleft;
lastChange = "2021-09-28 22:03:16 +0000";
layers = (
{
layerId = master01;
paths = (
{
closed = 1;
nodes = (
"40 451 LINE",
"170 451 LINE",
"206 699 LINE",
"97 699 LINE"
);
}
);
userData = {
com.schriftgestaltung.Glyphs.lastChange = "2021-09-27 19:25:48 +0000";
};
width = 256;
},
{
layerId = "D1DD5D9A-50CC-400A-8230-704C313030E6";
paths = (
{
closed = 1;
nodes = (
"40 451 LINE",
"170 451 LINE",
"206 699 LINE",
"97 699 LINE"
);
}
);
userData = {
com.schriftgestaltung.Glyphs.lastChange = "2021-09-27 19:25:48 +0000";
};
width = 256;
}
);
unicode = 2018;
},
{
glyphname = quoteright;
lastChange = "2021-09-28 22:03:16 +0000";
layers = (
{
layerId = master01;
paths = (
{
closed = 1;
nodes = (
"216 698 LINE",
"86 698 LINE",
"50 449 LINE",
"159 450 LINE"
);
}
);
userData = {
com.schriftgestaltung.Glyphs.lastChange = "2021-09-27 19:25:37 +0000";
};
width = 256;
},
{
layerId = "D1DD5D9A-50CC-400A-8230-704C313030E6";
paths = (
{
closed = 1;
nodes = (
"216 698 LINE",
"86 698 LINE",
"50 449 LINE",
"159 450 LINE"
);
}
);
userData = {
com.schriftgestaltung.Glyphs.lastChange = "2021-09-27 19:25:37 +0000";
};
width = 256;
}
);
unicode = 2019;
},
{
glyphname = guillemetleft;
lastChange = "2021-09-28 22:03:16 +0000";
layers = (
{
layerId = master01;
paths = (
{
closed = 1;
nodes = (
"223 63 LINE",
"223 203 LINE",
"143 259 LINE",
"143 279 LINE",
"223 335 LINE",
"223 475 LINE",
"50 355 LINE",
"50 183 LINE"
);
},
{
closed = 1;
nodes = (
"427 63 LINE",
"427 203 LINE",
"347 259 LINE",
"347 279 LINE",
"427 335 LINE",
"427 475 LINE",
"254 355 LINE",
"254 183 LINE"
);
}
);
userData = {
com.schriftgestaltung.Glyphs.lastChange = "2021-09-26 14:11:36 +0000";
};
width = 477;
},
{
layerId = "D1DD5D9A-50CC-400A-8230-704C313030E6";
paths = (
{
closed = 1;
nodes = (
"223 63 LINE",
"223 203 LINE",
"143 259 LINE",
"143 279 LINE",
"223 335 LINE",
"223 475 LINE",
"50 355 LINE",
"50 183 LINE"
);
},
{
closed = 1;
nodes = (
"427 63 LINE",
"427 203 LINE",
"347 259 LINE",
"347 279 LINE",
"427 335 LINE",
"427 475 LINE",
"254 355 LINE",
"254 183 LINE"
);
}
);
userData = {
com.schriftgestaltung.Glyphs.lastChange = "2021-09-26 14:11:36 +0000";
};
width = 477;
}
);
unicode = 00AB;
},
{
glyphname = guillemetright;
lastChange = "2021-09-28 22:03:16 +0000";
layers = (
{
layerId = master01;
paths = (
{
closed = 1;
nodes = (
"427 355 LINE",
"254 475 LINE",
"254 335 LINE",
"334 279 LINE",
"334 259 LINE",
"254 203 LINE",
"254 63 LINE",
"427 183 LINE"
);
},
{
closed = 1;
nodes = (
"223 355 LINE",
"50 475 LINE",
"50 335 LINE",
"130 279 LINE",
"130 259 LINE",
"50 203 LINE",
"50 63 LINE",
"223 183 LINE"
);
}
);
userData = {
com.schriftgestaltung.Glyphs.lastChange = "2021-09-26 14:11:23 +0000";
};
width = 477;
},
{
layerId = "D1DD5D9A-50CC-400A-8230-704C313030E6";
paths = (
{
closed = 1;
nodes = (
"427 355 LINE",
"254 475 LINE",
"254 335 LINE",
"334 279 LINE",
"334 259 LINE",
"254 203 LINE",
"254 63 LINE",
"427 183 LINE"
);
},
{
closed = 1;
nodes = (
"223 355 LINE",
"50 475 LINE",
"50 335 LINE",
"130 279 LINE",
"130 259 LINE",
"50 203 LINE",
"50 63 LINE",
"223 183 LINE"
);
}
);
userData = {
com.schriftgestaltung.Glyphs.lastChange = "2021-09-26 14:11:23 +0000";
};
width = 477;
}
);
unicode = 00BB;
},
{
glyphname = guilsinglleft;
lastChange = "2021-09-28 22:03:16 +0000";
layers = (
{
guideLines = (
{
angle = 90;
position = "{8, 254}";
},
{
angle = 90;
position = "{275, 260}";
}
);
layerId = master01;
paths = (
{
closed = 1;
nodes = (
"253 63 LINE",
"253 203 LINE",
"143 259 LINE",
"143 279 LINE",
"253 335 LINE",
"253 475 LINE",
"50 355 LINE",
"50 183 LINE"
);
}
);
userData = {
com.schriftgestaltung.Glyphs.lastChange = "2021-09-26 15:03:39 +0000";
};
width = 303;
},
{
guideLines = (
{
angle = 90;
position = "{8, 254}";
},
{
angle = 90;
position = "{275, 260}";
}
);
layerId = "D1DD5D9A-50CC-400A-8230-704C313030E6";
paths = (
{
closed = 1;
nodes = (
"253 63 LINE",
"253 203 LINE",
"143 259 LINE",
"143 279 LINE",
"253 335 LINE",
"253 475 LINE",
"50 355 LINE",
"50 183 LINE"
);
}
);
userData = {
com.schriftgestaltung.Glyphs.lastChange = "2021-09-26 15:03:39 +0000";
};
width = 303;
}
);
unicode = 2039;
},
{
glyphname = guilsinglright;
lastChange = "2021-09-28 22:03:16 +0000";
layers = (
{
layerId = master01;
paths = (
{
closed = 1;
nodes = (
"253 355 LINE",
"50 475 LINE",
"50 335 LINE",
"160 279 LINE",
"160 259 LINE",
"50 203 LINE",
"50 63 LINE",
"253 183 LINE"
);
}
);
userData = {
com.schriftgestaltung.Glyphs.lastChange = "2021-09-26 14:12:39 +0000";
};
width = 303;
},
{
layerId = "D1DD5D9A-50CC-400A-8230-704C313030E6";
paths = (
{
closed = 1;
nodes = (
"253 355 LINE",
"50 475 LINE",
"50 335 LINE",
"160 279 LINE",
"160 259 LINE",
"50 203 LINE",
"50 63 LINE",
"253 183 LINE"
);
}
);
userData = {
com.schriftgestaltung.Glyphs.lastChange = "2021-09-26 14:12:39 +0000";
};
width = 303;
}
);
unicode = 203A;
},
{
glyphname = quotedbl;
lastChange = "2021-09-28 22:03:16 +0000";
layers = (
{
layerId = master01;
paths = (
{
closed = 1;
nodes = (
"166 452 LINE",
"175 699 LINE",
"45 699 LINE",
"54 453 LINE"
);
},
{
closed = 1;
nodes = (
"366 452 LINE",
"375 699 LINE",
"245 699 LINE",
"254 453 LINE"
);
}
);
userData = {
com.schriftgestaltung.Glyphs.lastChange = "2021-09-27 19:28:13 +0000";
};
width = 420;
},
{
layerId = "D1DD5D9A-50CC-400A-8230-704C313030E6";
paths = (
{
closed = 1;
nodes = (
"166 452 LINE",
"175 699 LINE",
"45 699 LINE",
"54 453 LINE"
);
},
{
closed = 1;
nodes = (
"366 452 LINE",
"375 699 LINE",
"245 699 LINE",
"254 453 LINE"
);
}
);
userData = {
com.schriftgestaltung.Glyphs.lastChange = "2021-09-27 19:28:13 +0000";
};
width = 420;
}
);
unicode = 0022;
},
{
glyphname = quotesingle;
lastChange = "2021-09-28 22:03:16 +0000";
layers = (
{
layerId = master01;
paths = (
{
closed = 1;
nodes = (
"167 452 LINE",
"176 699 LINE",
"46 699 LINE",
"55 453 LINE"
);
}
);
userData = {
com.schriftgestaltung.Glyphs.lastChange = "2021-09-27 19:28:08 +0000";
};
width = 220;
},
{
layerId = "D1DD5D9A-50CC-400A-8230-704C313030E6";
paths = (
{
closed = 1;
nodes = (
"167 452 LINE",
"176 699 LINE",
"46 699 LINE",
"55 453 LINE"
);
}
);
userData = {
com.schriftgestaltung.Glyphs.lastChange = "2021-09-27 19:28:08 +0000";
};
width = 220;
}
);
unicode = 0027;
},
{
glyphname = upArrow;
lastChange = "2021-09-28 22:03:16 +0000";
layers = (
{
layerId = master01;
paths = (
{
closed = 1;
nodes = (
"493 756 LINE",
"363 756 LINE",
"30 401 LINE",
"115 317 LINE",
"428 680 LINE",
"323 590 LINE",
"398 590 LINE",
"363 714 LINE",
"363 0 LINE",
"493 0 LINE",
"493 714 LINE",
"464 590 LINE",
"527 590 LINE",
"428 680 LINE",
"741 317 LINE",
"826 401 LINE"
);
}
);
userData = {
com.schriftgestaltung.Glyphs.lastChange = "2021-09-26 03:03:30 +0000";
};
width = 856;
},
{
layerId = "D1DD5D9A-50CC-400A-8230-704C313030E6";
paths = (
{
closed = 1;
nodes = (
"493 756 LINE",
"363 756 LINE",
"30 401 LINE",
"115 317 LINE",
"428 680 LINE",
"323 590 LINE",
"398 590 LINE",
"363 714 LINE",
"363 0 LINE",
"493 0 LINE",
"493 714 LINE",
"464 590 LINE",
"527 590 LINE",
"428 680 LINE",
"741 317 LINE",
"826 401 LINE"
);
}
);
userData = {
com.schriftgestaltung.Glyphs.lastChange = "2021-09-26 03:03:30 +0000";
};
width = 856;
}
);
unicode = 2191;
},
{
glyphname = rightArrow;
lastChange = "2021-09-28 22:03:16 +0000";
layers = (
{
layerId = master01;
paths = (
{
closed = 1;
nodes = (
"786 313 LINE",
"786 443 LINE",
"431 776 LINE",
"347 691 LINE",
"710 378 LINE",
"620 483 LINE",
"620 408 LINE",
"744 443 LINE",
"30 443 LINE",
"30 313 LINE",
"744 313 LINE",
"620 342 LINE",
"620 279 LINE",
"710 378 LINE",
"347 65 LINE",
"431 -20 LINE"
);
}
);
userData = {
com.schriftgestaltung.Glyphs.lastChange = "2021-09-26 03:03:11 +0000";
};
width = 816;
},
{
layerId = "D1DD5D9A-50CC-400A-8230-704C313030E6";
paths = (
{
closed = 1;
nodes = (
"786 313 LINE",
"786 443 LINE",
"431 776 LINE",
"347 691 LINE",
"710 378 LINE",
"620 483 LINE",
"620 408 LINE",
"744 443 LINE",
"30 443 LINE",
"30 313 LINE",
"744 313 LINE",
"620 342 LINE",
"620 279 LINE",
"710 378 LINE",
"347 65 LINE",
"431 -20 LINE"
);
}
);
userData = {
com.schriftgestaltung.Glyphs.lastChange = "2021-09-26 03:03:11 +0000";
};
width = 816;
}
);
unicode = 2192;
},
{
glyphname = downArrow;
lastChange = "2021-09-28 22:03:16 +0000";
layers = (
{
layerId = master01;
paths = (
{
closed = 1;
nodes = (
"363 0 LINE",
"493 0 LINE",
"826 355 LINE",
"741 439 LINE",
"428 76 LINE",
"533 166 LINE",
"458 166 LINE",
"493 42 LINE",
"493 756 LINE",
"363 756 LINE",
"363 42 LINE",
"392 166 LINE",
"329 166 LINE",
"428 76 LINE",
"115 439 LINE",
"30 355 LINE"
);
}
);
userData = {
com.schriftgestaltung.Glyphs.lastChange = "2021-09-26 03:03:44 +0000";
};
width = 856;
},
{
layerId = "D1DD5D9A-50CC-400A-8230-704C313030E6";
paths = (
{
closed = 1;
nodes = (
"363 0 LINE",
"493 0 LINE",
"826 355 LINE",
"741 439 LINE",
"428 76 LINE",
"533 166 LINE",
"458 166 LINE",
"493 42 LINE",
"493 756 LINE",
"363 756 LINE",
"363 42 LINE",
"392 166 LINE",
"329 166 LINE",
"428 76 LINE",
"115 439 LINE",
"30 355 LINE"
);
}
);
userData = {
com.schriftgestaltung.Glyphs.lastChange = "2021-09-26 03:03:44 +0000";
};
width = 856;
}
);
unicode = 2193;
},
{
glyphname = leftArrow;
lastChange = "2021-09-28 22:03:16 +0000";
layers = (
{
layerId = master01;
paths = (
{
closed = 1;
nodes = (
"30 443 LINE",
"30 313 LINE",
"385 -20 LINE",
"469 65 LINE",
"106 378 LINE",
"196 273 LINE",
"196 348 LINE",
"72 313 LINE",
"786 313 LINE",
"786 443 LINE",
"72 443 LINE",
"196 414 LINE",
"196 477 LINE",
"106 378 LINE",
"469 691 LINE",
"385 776 LINE"
);
}
);
userData = {
com.schriftgestaltung.Glyphs.lastChange = "2021-09-26 03:02:53 +0000";
};
width = 816;
},
{
layerId = "D1DD5D9A-50CC-400A-8230-704C313030E6";
paths = (
{
closed = 1;
nodes = (
"30 443 LINE",
"30 313 LINE",
"385 -20 LINE",
"469 65 LINE",
"106 378 LINE",
"196 273 LINE",
"196 348 LINE",
"72 313 LINE",
"786 313 LINE",
"786 443 LINE",
"72 443 LINE",
"196 414 LINE",
"196 477 LINE",
"106 378 LINE",
"469 691 LINE",
"385 776 LINE"
);
}
);
userData = {
com.schriftgestaltung.Glyphs.lastChange = "2021-09-26 03:02:53 +0000";
};
width = 816;
}
);
unicode = 2190;
},
{
glyphname = at;
lastChange = "2021-09-29 21:32:37 +0000";
layers = (
{
layerId = master01;
paths = (
{
closed = 1;
nodes = (
"382 419 OFFCURVE",
"401 444 OFFCURVE",
"457 444 CURVE",
"585 444 LINE",
"614 561 LINE",
"614 561 OFFCURVE",
"563 561 OFFCURVE",
"434 561 CURVE SMOOTH",
"304 561 OFFCURVE",
"262 486 OFFCURVE",
"262 379 CURVE SMOOTH",
"262 259 LINE SMOOTH",
"262 134 OFFCURVE",
"320 78 OFFCURVE",
"424 80 CURVE",
"454 80 LINE",
"550 80 OFFCURVE",
"558 132 OFFCURVE",
"577 207 CURVE",
"590 207 LINE",
"578 306 LINE",
"578 216 OFFCURVE",
"567 204 OFFCURVE",
"492 204 CURVE SMOOTH",
"457 204 LINE SMOOTH",
"401 204 OFFCURVE",
"382 223 OFFCURVE",
"382 284 CURVE SMOOTH",
"382 305 OFFCURVE",
"382 327 OFFCURVE",
"382 359 CURVE SMOOTH"
);
},
{
closed = 1;
nodes = (
"75 -37 OFFCURVE",
"138 -108 OFFCURVE",
"268 -108 CURVE SMOOTH",
"534 -108 LINE",
"534 15 LINE",
"313 15 LINE SMOOTH",
"236 15 OFFCURVE",
"199 37 OFFCURVE",
"199 141 CURVE SMOOTH",
"199 507 LINE SMOOTH",
"199 612 OFFCURVE",
"237 634 OFFCURVE",
"314 634 CURVE SMOOTH",
"675 634 LINE SMOOTH",
"752 634 OFFCURVE",
"789 612 OFFCURVE",
"789 507 CURVE SMOOTH",
"789 291 LINE SMOOTH",
"789 216 OFFCURVE",
"767 208 OFFCURVE",
"718 208 CURVE SMOOTH",
"696 208 LINE",
"696 562 LINE",
"578 561 LINE",
"578 284 LINE",
"590 206 LINE SMOOTH",
"604 116 OFFCURVE",
"635 81 OFFCURVE",
"699 81 CURVE SMOOTH",
"763 81 LINE SMOOTH",
"859 81 OFFCURVE",
"913 174 OFFCURVE",
"913 309 CURVE SMOOTH",
"913 526 LINE SMOOTH",
"913 645 OFFCURVE",
"850 756 OFFCURVE",
"720 756 CURVE SMOOTH",
"268 756 LINE SMOOTH",
"163 756 OFFCURVE",
"75 663 OFFCURVE",
"75 528 CURVE SMOOTH",
"75 122 LINE SMOOTH"
);
}
);
userData = {
com.schriftgestaltung.Glyphs.lastChange = "2021-09-28 04:46:49 +0000";
};
width = 977;
},
{
layerId = "D1DD5D9A-50CC-400A-8230-704C313030E6";
paths = (
{
closed = 1;
nodes = (
"75 -37 OFFCURVE",
"138 -108 OFFCURVE",
"268 -108 CURVE SMOOTH",
"534 -108 LINE",
"534 15 LINE",
"313 15 LINE SMOOTH",
"236 15 OFFCURVE",
"199 37 OFFCURVE",
"199 141 CURVE SMOOTH",
"199 507 LINE SMOOTH",
"199 612 OFFCURVE",
"237 634 OFFCURVE",
"314 634 CURVE SMOOTH",
"675 634 LINE SMOOTH",
"752 634 OFFCURVE",
"789 612 OFFCURVE",
"789 507 CURVE SMOOTH",
"789 291 LINE SMOOTH",
"789 216 OFFCURVE",
"767 208 OFFCURVE",
"718 208 CURVE SMOOTH",
"696 208 LINE",
"696 562 LINE",
"578 561 LINE",
"578 284 LINE",
"578 206 LINE SMOOTH",
"578 116 OFFCURVE",
"625 81 OFFCURVE",
"689 81 CURVE SMOOTH",
"763 81 LINE SMOOTH",
"859 81 OFFCURVE",
"913 174 OFFCURVE",
"913 309 CURVE SMOOTH",
"913 526 LINE SMOOTH",
"913 645 OFFCURVE",
"850 756 OFFCURVE",
"720 756 CURVE SMOOTH",
"268 756 LINE SMOOTH",
"163 756 OFFCURVE",
"75 663 OFFCURVE",
"75 528 CURVE SMOOTH",
"75 122 LINE SMOOTH"
);
},
{
closed = 1;
nodes = (
"457 204 LINE",
"401 204 OFFCURVE",
"382 223 OFFCURVE",
"382 284 CURVE SMOOTH",
"382 305 OFFCURVE",
"382 327 OFFCURVE",
"382 359 CURVE SMOOTH",
"382 419 OFFCURVE",
"401 444 OFFCURVE",
"457 444 CURVE",
"585 444 LINE",
"614 561 LINE",
"614 561 OFFCURVE",
"563 561 OFFCURVE",
"434 561 CURVE SMOOTH",
"304 561 OFFCURVE",
"262 486 OFFCURVE",
"262 379 CURVE SMOOTH",
"262 259 LINE SMOOTH",
"262 134 OFFCURVE",
"320 78 OFFCURVE",
"424 80 CURVE",
"454 80 LINE",
"525 80 OFFCURVE",
"552 141 OFFCURVE",
"527 204 CURVE"
);
}
);
userData = {
com.schriftgestaltung.Glyphs.lastChange = "2021-09-28 04:46:49 +0000";
};
width = 977;
}
);
unicode = 0040;
},
{
glyphname = ampersand;
lastChange = "2021-09-29 21:33:39 +0000";
layers = (
{
layerId = master01;
paths = (
{
closed = 1;
nodes = (
"255 616 OFFCURVE",
"287 629 OFFCURVE",
"318 629 CURVE SMOOTH",
"579 629 LINE",
"579 757 LINE",
"289 757 LINE SMOOTH",
"192 757 OFFCURVE",
"126 701 OFFCURVE",
"127 616 CURVE",
"127 547 LINE",
"127 495 OFFCURVE",
"148 459 OFFCURVE",
"195 448 CURVE",
"195 380 LINE",
"738 -9 LINE",
"738 137 LINE",
"270 478 LINE",
"255 489 OFFCURVE",
"255 503 OFFCURVE",
"255 522 CURVE",
"255 562 LINE"
);
},
{
closed = 1;
nodes = (
"202 421 LINE",
"140 421 OFFCURVE",
"70 392 OFFCURVE",
"70 304 CURVE SMOOTH",
"70 154 LINE SMOOTH",
"70 50 OFFCURVE",
"128 0 OFFCURVE",
"247 0 CURVE SMOOTH",
"451 0 LINE SMOOTH",
"593 0 OFFCURVE",
"640 81 OFFCURVE",
"636 198 CURVE",
"636 425 LINE",
"520 425 LINE",
"520 206 LINE",
"521 141 OFFCURVE",
"494 129 OFFCURVE",
"447 125 CURVE",
"261 125 LINE",
"219 125 OFFCURVE",
"198 144 OFFCURVE",
"198 187 CURVE",
"198 325 LINE",
"197 372 OFFCURVE",
"228 382 OFFCURVE",
"250 385 CURVE",
"287 385 LINE",
"287 421 LINE"
);
}
);
userData = {
com.schriftgestaltung.Glyphs.lastChange = "2021-09-28 04:44:30 +0000";
};
width = 758;
},
{
layerId = "D1DD5D9A-50CC-400A-8230-704C313030E6";
paths = (
{
closed = 1;
nodes = (
"198 325 LINE",
"198 334 OFFCURVE",
"199 342 OFFCURVE",
"201 348 CURVE SMOOTH",
"203 357 OFFCURVE",
"207 363 OFFCURVE",
"212 368 CURVE",
"510 154 LINE",
"499 133 OFFCURVE",
"477 128 OFFCURVE",
"447 125 CURVE",
"72 125 LINE",
"82 41 OFFCURVE",
"140 0 OFFCURVE",
"247 0 CURVE SMOOTH",
"451 0 LINE SMOOTH",
"537 0 OFFCURVE",
"588 30 OFFCURVE",
"614 80 CURVE",
"738 -9 LINE",
"738 137 LINE",
"636 211 LINE",
"636 425 LINE",
"520 425 LINE",
"520 296 LINE",
"270 478 LINE SMOOTH",
"255 489 OFFCURVE",
"255 503 OFFCURVE",
"255 522 CURVE SMOOTH",
"255 562 LINE SMOOTH",
"255 616 OFFCURVE",
"287 629 OFFCURVE",
"318 629 CURVE SMOOTH",
"579 629 LINE",
"579 757 LINE",
"289 757 LINE SMOOTH",
"192 757 OFFCURVE",
"127 701 OFFCURVE",
"127 616 CURVE SMOOTH",
"127 507 LINE SMOOTH",
"127 466 OFFCURVE",
"140 435 OFFCURVE",
"169 418 CURVE",
"117 409 OFFCURVE",
"70 376 OFFCURVE",
"70 304 CURVE SMOOTH",
"70 175 LINE",
"198 175 LINE"
);
}
);
userData = {
com.schriftgestaltung.Glyphs.lastChange = "2021-09-28 04:44:30 +0000";
};
width = 758;
}
);
unicode = 0026;
},
{
glyphname = Advertencia;
lastChange = "2021-09-29 21:27:42 +0000";
layers = (
{
layerId = master01;
paths = (
{
closed = 1;
nodes = (
"823 0 LINE",
"823 104 LINE",
"469 761 LINE",
"358 761 LINE",
"9 104 LINE",
"9 0 LINE"
);
},
{
closed = 1;
nodes = (
"363 226 LINE",
"469 226 LINE",
"469 110 LINE",
"363 110 LINE"
);
},
{
closed = 1;
nodes = (
"352 580 LINE",
"480 580 LINE",
"470 278 LINE",
"362 278 LINE"
);
}
);
userData = {
com.schriftgestaltung.Glyphs.lastChange = "2021-09-28 20:51:44 +0000";
};
width = 832;
},
{
background = {
paths = (
{
closed = 1;
nodes = (
"416 634 LINE",
"697 104 LINE",
"136 104 LINE",
"143 117 LINE",
"16 117 LINE",
"9 104 LINE",
"9 0 LINE",
"823 0 LINE",
"823 104 LINE",
"469 761 LINE",
"358 761 LINE",
"37 156 LINE",
"163 156 LINE"
);
}
);
};
layerId = "D1DD5D9A-50CC-400A-8230-704C313030E6";
paths = (
{
closed = 1;
nodes = (
"463 137 LINE",
"463 228 LINE",
"371 228 LINE",
"371 137 LINE"
);
},
{
closed = 1;
nodes = (
"463 257 LINE",
"463 491 LINE",
"371 491 LINE",
"371 257 LINE"
);
},
{
closed = 1;
nodes = (
"416 634 LINE",
"697 104 LINE",
"9 104 LINE",
"9 0 LINE",
"823 0 LINE",
"823 104 LINE",
"469 761 LINE",
"358 761 LINE",
"37 154 LINE",
"163 154 LINE"
);
}
);
userData = {
com.schriftgestaltung.Glyphs.lastChange = "2021-09-26 03:20:16 +0000";
};
width = 832;
}
);
},
{
glyphname = Banca;
lastChange = "2021-09-28 22:03:16 +0000";
layers = (
{
layerId = master01;
paths = (
{
closed = 1;
nodes = (
"84 227 LINE",
"748 227 LINE",
"748 341 LINE",
"84 341 LINE"
);
},
{
closed = 1;
nodes = (
"160 396 LINE",
"673 396 LINE",
"673 510 LINE",
"160 510 LINE"
);
},
{
closed = 1;
nodes = (
"160 565 LINE",
"673 565 LINE",
"673 679 LINE",
"160 679 LINE"
);
},
{
closed = 1;
nodes = (
"160 236 LINE",
"160 0 LINE",
"280 0 LINE",
"280 236 LINE"
);
},
{
closed = 1;
nodes = (
"553 236 LINE",
"553 0 LINE",
"673 0 LINE",
"673 236 LINE"
);
},
{
closed = 1;
nodes = (
"160 756 LINE",
"160 604 LINE",
"280 604 LINE",
"280 756 LINE"
);
},
{
closed = 1;
nodes = (
"553 756 LINE",
"553 604 LINE",
"673 604 LINE",
"673 756 LINE"
);
}
);
userData = {
com.schriftgestaltung.Glyphs.lastChange = "2021-09-28 20:52:01 +0000";
};
width = 832;
},
{
layerId = "D1DD5D9A-50CC-400A-8230-704C313030E6";
paths = (
{
closed = 1;
nodes = (
"59 240 LINE",
"979 240 LINE",
"979 360 LINE",
"59 360 LINE"
);
},
{
closed = 1;
nodes = (
"163 417 LINE",
"853 417 LINE",
"853 537 LINE",
"163 537 LINE"
);
},
{
closed = 1;
nodes = (
"163 594 LINE",
"853 594 LINE",
"853 714 LINE",
"163 714 LINE"
);
},
{
closed = 1;
nodes = (
"109 240 LINE",
"109 0 LINE",
"229 0 LINE",
"229 240 LINE"
);
},
{
closed = 1;
nodes = (
"809 240 LINE",
"809 0 LINE",
"929 0 LINE",
"929 240 LINE"
);
},
{
closed = 1;
nodes = (
"213 756 LINE",
"213 636 LINE",
"333 636 LINE",
"333 756 LINE"
);
},
{
closed = 1;
nodes = (
"683 753 LINE",
"683 633 LINE",
"803 633 LINE",
"803 753 LINE"
);
}
);
userData = {
com.schriftgestaltung.Glyphs.lastChange = "2021-09-26 03:21:02 +0000";
};
width = 1038;
}
);
},
{
glyphname = Basura;
lastChange = "2021-09-29 21:30:09 +0000";
layers = (
{
layerId = master01;
paths = (
{
closed = 1;
nodes = (
"178 67 LINE SMOOTH",
"178 24 OFFCURVE",
"208 0 OFFCURVE",
"263 0 CURVE SMOOTH",
"569 0 LINE SMOOTH",
"624 0 OFFCURVE",
"654 24 OFFCURVE",
"654 67 CURVE SMOOTH",
"654 516 LINE",
"534 516 LINE",
"534 79 LINE",
"298 79 LINE",
"298 516 LINE",
"178 516 LINE"
);
},
{
closed = 1;
nodes = (
"100 580 LINE",
"100 466 LINE",
"732 466 LINE",
"732 580 LINE"
);
},
{
closed = 1;
nodes = (
"356 76 LINE",
"476 76 LINE",
"476 516 LINE",
"356 516 LINE"
);
},
{
closed = 1;
nodes = (
"190 642 LINE",
"638 642 LINE",
"638 691 LINE SMOOTH",
"638 733 OFFCURVE",
"615 756 OFFCURVE",
"573 756 CURVE SMOOTH",
"255 756 LINE SMOOTH",
"213 756 OFFCURVE",
"190 733 OFFCURVE",
"190 691 CURVE SMOOTH"
);
}
);
userData = {
com.schriftgestaltung.Glyphs.lastChange = "2021-09-28 20:52:16 +0000";
};
width = 832;
},
{
layerId = "D1DD5D9A-50CC-400A-8230-704C313030E6";
paths = (
{
closed = 1;
nodes = (
"74 85 LINE SMOOTH",
"74 30 OFFCURVE",
"104 0 OFFCURVE",
"159 0 CURVE SMOOTH",
"528 0 LINE SMOOTH",
"583 0 OFFCURVE",
"613 30 OFFCURVE",
"613 85 CURVE SMOOTH",
"613 434 LINE",
"510 434 LINE",
"510 100 LINE",
"177 100 LINE",
"177 434 LINE",
"74 434 LINE"
);
},
{
closed = 1;
nodes = (
"20 584 LINE",
"20 484 LINE",
"667 484 LINE",
"667 584 LINE"
);
},
{
closed = 1;
nodes = (
"583 645 LINE SMOOTH",
"583 700 OFFCURVE",
"553 730 OFFCURVE",
"498 730 CURVE SMOOTH",
"189 730 LINE SMOOTH",
"134 730 OFFCURVE",
"104 700 OFFCURVE",
"104 645 CURVE SMOOTH",
"104 524 LINE",
"207 524 LINE",
"207 634 LINE",
"583 634 LINE"
);
},
{
closed = 1;
nodes = (
"258 153 LINE",
"315 153 LINE",
"315 434 LINE",
"258 434 LINE"
);
},
{
closed = 1;
nodes = (
"372 153 LINE",
"429 153 LINE",
"429 434 LINE",
"372 434 LINE"
);
}
);
userData = {
com.schriftgestaltung.Glyphs.lastChange = "2021-09-26 03:22:01 +0000";
};
width = 687;
}
);
},
{
glyphname = Disc;
lastChange = "2021-09-28 22:03:16 +0000";
layers = (
{
layerId = master01;
paths = (
{
closed = 1;
nodes = (
"710 160 LINE",
"650 340 LINE",
"454 339 LINE SMOOTH",
"424 339 OFFCURVE",
"408 355 OFFCURVE",
"408 385 CURVE SMOOTH",
"408 583 LINE",
"288 583 LINE",
"288 350 LINE SMOOTH",
"288 275 OFFCURVE",
"330 233 OFFCURVE",
"405 234 CURVE SMOOTH",
"570 236 LINE",
"630 56 LINE",
"792 56 LINE",
"792 160 LINE"
);
},
{
closed = 1;
nodes = (
"510 413 LINE",
"510 517 LINE",
"324 517 LINE",
"324 413 LINE"
);
},
{
closed = 1;
nodes = (
"287 630 LINE",
"413 630 LINE",
"413 756 LINE",
"287 756 LINE"
);
},
{
closed = 0;
nodes = (
"371 441 LINE"
);
},
{
closed = 1;
nodes = (
"528 181 LINE",
"498 138 OFFCURVE",
"447 113 OFFCURVE",
"384 113 CURVE",
"280 113 OFFCURVE",
"211 182 OFFCURVE",
"211 287 CURVE",
"211 321 OFFCURVE",
"218 351 OFFCURVE",
"232 377 CURVE",
"232 544 LINE",
"145 491 OFFCURVE",
"86 395 OFFCURVE",
"86 287 CURVE",
"86 122 OFFCURVE",
"220 -13 OFFCURVE",
"384 -13 CURVE",
"455 -13 OFFCURVE",
"520 12 OFFCURVE",
"572 54 CURVE"
);
}
);
userData = {
com.schriftgestaltung.Glyphs.lastChange = "2021-09-28 20:52:33 +0000";
};
width = 832;
},
{
layerId = "D1DD5D9A-50CC-400A-8230-704C313030E6";
paths = (
{
closed = 1;
nodes = (
"705 160 LINE",
"645 340 LINE",
"449 339 LINE SMOOTH",
"419 339 OFFCURVE",
"403 355 OFFCURVE",
"403 385 CURVE SMOOTH",
"403 583 LINE",
"283 583 LINE",
"283 350 LINE SMOOTH",
"283 275 OFFCURVE",
"325 233 OFFCURVE",
"400 234 CURVE SMOOTH",
"565 236 LINE",
"625 56 LINE",
"787 56 LINE",
"787 160 LINE"
);
},
{
closed = 1;
nodes = (
"505 413 LINE",
"505 517 LINE",
"319 517 LINE",
"319 413 LINE"
);
},
{
closed = 1;
nodes = (
"282 630 LINE",
"408 630 LINE",
"408 756 LINE",
"282 756 LINE"
);
},
{
closed = 0;
nodes = (
"366 441 LINE"
);
},
{
closed = 1;
nodes = (
"522 185 LINE",
"490 147 OFFCURVE",
"429 110 OFFCURVE",
"366 110 CURVE",
"266 110 OFFCURVE",
"200 176 OFFCURVE",
"200 276 CURVE",
"200 317 OFFCURVE",
"211 350 OFFCURVE",
"233 378 CURVE",
"233 529 LINE",
"146 484 OFFCURVE",
"80 388 OFFCURVE",
"80 276 CURVE",
"80 118 OFFCURVE",
"208 -10 OFFCURVE",
"366 -10 CURVE",
"444 -10 OFFCURVE",
"514 22 OFFCURVE",
"565 72 CURVE"
);
}
);
userData = {
com.schriftgestaltung.Glyphs.lastChange = "2021-09-26 03:24:48 +0000";
};
width = 807;
}
);
},
{
glyphname = Extintor;
lastChange = "2021-09-29 21:26:52 +0000";
layers = (
{
layerId = master01;
paths = (
{
closed = 1;
nodes = (
"208 120 LINE",
"208 348 LINE SMOOTH",
"208 547 OFFCURVE",
"190 623 OFFCURVE",
"358 623 CURVE SMOOTH",
"563 623 LINE",
"761 558 LINE",
"761 765 LINE",
"563 717 LINE",
"358 717 LINE SMOOTH",
"109 717 OFFCURVE",
"98 614 OFFCURVE",
"100 346 CURVE SMOOTH",
"102 118 LINE"
);
},
{
closed = 1;
nodes = (
"276 168 LINE",
"589 168 LINE",
"589 113 LINE",
"276 113 LINE"
);
},
{
closed = 1;
nodes = (
"589 0 LINE",
"589 400 LINE",
"589 490 OFFCURVE",
"549 530 OFFCURVE",
"459 530 CURVE",
"410 530 LINE",
"317 530 OFFCURVE",
"276 490 OFFCURVE",
"276 400 CURVE",
"276 0 LINE"
);
},
{
closed = 1;
nodes = (
"499 584 LINE",
"499 756 LINE",
"379 756 LINE",
"379 584 LINE"
);
}
);
userData = {
com.schriftgestaltung.Glyphs.lastChange = "2021-09-28 20:52:48 +0000";
};
width = 832;
},
{
layerId = "D1DD5D9A-50CC-400A-8230-704C313030E6";
paths = (
{
closed = 1;
nodes = (
"698 0 LINE",
"698 488 LINE",
"698 603 OFFCURVE",
"646 647 OFFCURVE",
"512 647 CURVE",
"377 647 OFFCURVE",
"325 603 OFFCURVE",
"325 488 CURVE",
"325 0 LINE",
"482 0 LINE",
"482 104 LINE",
"445 104 LINE",
"445 488 LINE",
"445 533 OFFCURVE",
"465 543 OFFCURVE",
"512 543 CURVE",
"558 543 OFFCURVE",
"578 533 OFFCURVE",
"578 488 CURVE",
"578 104 LINE",
"532 104 LINE",
"532 0 LINE"
);
},
{
closed = 1;
nodes = (
"452 636 LINE",
"572 636 LINE",
"572 756 LINE",
"452 756 LINE"
);
},
{
closed = 1;
nodes = (
"184 745 OFFCURVE",
"91 642 OFFCURVE",
"93 374 CURVE SMOOTH",
"95 146 LINE",
"201 148 LINE",
"201 376 LINE SMOOTH",
"201 575 OFFCURVE",
"265 651 OFFCURVE",
"431 651 CURVE SMOOTH",
"636 651 LINE",
"636 745 LINE",
"431 745 LINE SMOOTH"
);
},
{
closed = 1;
nodes = (
"30 0 LINE",
"266 0 LINE",
"148 342 LINE"
);
}
);
userData = {
com.schriftgestaltung.Glyphs.lastChange = "2021-09-26 03:06:26 +0000";
};
width = 728;
}
);
},
{
glyphname = Jardin;
lastChange = "2021-09-29 21:31:53 +0000";
layers = (
{
layerId = master01;
paths = (
{
closed = 1;
nodes = (
"747 -1 LINE",
"747 120 LINE",
"85 120 LINE",
"85 -1 LINE"
);
},
{
closed = 1;
nodes = (
"485 276 LINE SMOOTH",
"604 276 OFFCURVE",
"659 339 OFFCURVE",
"659 456 CURVE SMOOTH",
"659 581 LINE SMOOTH",
"659 710 OFFCURVE",
"622 762 OFFCURVE",
"486 762 CURVE SMOOTH",
"349 762 LINE SMOOTH",
"240 762 OFFCURVE",
"175 689 OFFCURVE",
"175 582 CURVE SMOOTH",
"175 456 LINE SMOOTH",
"175 329 OFFCURVE",
"210 276 OFFCURVE",
"349 276 CURVE SMOOTH"
);
},
{
closed = 1;
nodes = (
"311 383 OFFCURVE",
"289 395 OFFCURVE",
"289 464 CURVE SMOOTH",
"289 574 LINE SMOOTH",
"289 643 OFFCURVE",
"311 655 OFFCURVE",
"387 655 CURVE SMOOTH",
"447 655 LINE SMOOTH",
"523 655 OFFCURVE",
"545 643 OFFCURVE",
"545 574 CURVE SMOOTH",
"545 464 LINE SMOOTH",
"545 395 OFFCURVE",
"523 383 OFFCURVE",
"447 383 CURVE SMOOTH",
"387 383 LINE SMOOTH"
);
},
{
closed = 1;
nodes = (
"467 113 LINE",
"467 383 LINE",
"347 383 LINE",
"347 113 LINE"
);
}
);
userData = {
com.schriftgestaltung.Glyphs.lastChange = "2021-09-28 20:53:02 +0000";
};
width = 832;
},
{
layerId = "D1DD5D9A-50CC-400A-8230-704C313030E6";
paths = (
{
closed = 1;
nodes = (
"785 655 LINE SMOOTH",
"861 655 OFFCURVE",
"883 643 OFFCURVE",
"883 574 CURVE SMOOTH",
"883 464 LINE SMOOTH",
"883 395 OFFCURVE",
"861 383 OFFCURVE",
"785 383 CURVE SMOOTH",
"725 383 LINE SMOOTH",
"649 383 OFFCURVE",
"627 395 OFFCURVE",
"627 464 CURVE SMOOTH",
"627 574 LINE SMOOTH",
"627 643 OFFCURVE",
"649 655 OFFCURVE",
"725 655 CURVE SMOOTH",
"730 655 LINE",
"730 762 LINE",
"687 762 LINE SMOOTH",
"578 762 OFFCURVE",
"513 689 OFFCURVE",
"513 582 CURVE SMOOTH",
"513 456 LINE SMOOTH",
"513 329 OFFCURVE",
"548 276 OFFCURVE",
"687 276 CURVE SMOOTH",
"697 276 LINE",
"697 120 LINE",
"317 120 LINE",
"317 276 LINE",
"414 276 LINE SMOOTH",
"474 276 OFFCURVE",
"507 313 OFFCURVE",
"488 370 CURVE SMOOTH",
"362 756 LINE",
"279 756 LINE",
"279 646 LINE",
"351 383 LINE",
"163 383 LINE",
"232 646 LINE",
"232 756 LINE",
"157 756 LINE",
"35 370 LINE SMOOTH",
"17 312 OFFCURVE",
"50 276 OFFCURVE",
"110 276 CURVE SMOOTH",
"201 276 LINE",
"201 120 LINE",
"35 120 LINE",
"35 -1 LINE",
"997 -1 LINE",
"997 120 LINE",
"813 120 LINE",
"813 276 LINE",
"823 276 LINE SMOOTH",
"942 276 OFFCURVE",
"997 339 OFFCURVE",
"997 456 CURVE SMOOTH",
"997 581 LINE SMOOTH",
"997 710 OFFCURVE",
"960 762 OFFCURVE",
"824 762 CURVE SMOOTH",
"780 762 LINE",
"780 655 LINE"
);
}
);
userData = {
com.schriftgestaltung.Glyphs.lastChange = "2021-09-26 03:28:07 +0000";
};
width = 1027;
}
);
},
{
glyphname = Mascota;
lastChange = "2021-09-28 22:03:16 +0000";
layers = (
{
layerId = master01;
paths = (
{
closed = 1;
nodes = (
"228 0 LINE",
"228 194 LINE",
"201 99 LINE",
"317 281 LINE",
"144 252 LINE",
"108 152 LINE",
"108 0 LINE"
);
},
{
closed = 1;
nodes = (
"456 0 LINE",
"338 214 LINE",
"265 101 LINE",
"325 0 LINE"
);
},
{
closed = 1;
nodes = (
"645 0 LINE",
"655 428 LINE",
"554 541 LINE",
"144 541 LINE",
"144 252 LINE",
"579 252 LINE",
"527 304 LINE",
"527 0 LINE"
);
},
{
closed = 1;
nodes = (
"703 454 LINE",
"755 498 LINE",
"703 454 LINE",
"820 411 LINE",
"884 484 LINE",
"771 664 LINE",
"766 590 LINE",
"815 726 LINE",
"783 759 LINE",
"599 570 LINE"
);
},
{
closed = 0;
nodes = (
"203 520 LINE"
);
},
{
closed = 1;
nodes = (
"183 425 LINE",
"255 481 LINE",
"123 656 LINE",
"50 599 LINE"
);
}
